<svg width="175" height="88" viewBox="0 0 175 88" fill="none" xmlns="http://www.w3.org/2000/svg">
<path d="M160.72 1.13379H14.3563C7.08481 1.13379 1.18994 7.13519 1.18994 14.5382V72.5916C1.18994 79.9946 7.08481 85.996 14.3563 85.996H160.72C167.991 85.996 173.887 79.9946 173.887 72.5916V14.5382C173.887 7.13519 167.991 1.13379 160.72 1.13379ZM14.3563 3.40179H147.808V44.2457H3.41767V14.5382C3.41767 8.39697 8.32418 3.40578 14.3524 3.40578M3.41767 72.5916V46.5136H147.808V83.728H14.3563C8.32418 83.728 3.4216 78.7328 3.4216 72.5916M171.659 72.5916C171.659 78.7328 166.752 83.728 160.72 83.728H150.037V3.40179H160.72C166.752 3.40179 171.659 8.39698 171.659 14.5342V72.5916Z" fill="black"/>
<path d="M18.7001 33.6488C14.2682 33.6488 10.7462 29.9873 10.5618 26.178C10.4873 24.9202 10.5618 22.4806 12.4876 19.8892C14.5584 21.8138 16.0135 23.0716 16.0135 23.0716C16.0135 23.0716 14.9584 24.513 15.2879 26.178C15.5429 27.4717 16.8489 28.7295 18.5197 28.7295H33.0509C34.357 28.7295 35.1218 27.9509 35.1218 26.5095V9.68317H40.0637V25.1438C40.0637 27.3241 41.3343 28.7295 43.5503 28.7295H45.9468V33.6488H43.8406C41.2599 33.6488 39.6989 32.5029 38.7184 31.2451C37.7731 32.5748 36.1768 33.6488 33.4511 33.6488H18.7001ZM27.0188 21.1868C27.9993 21.1868 29.4897 20.7436 30.1055 19.4099L28.3249 17.7449C28.0347 18.4477 27.2345 18.3759 27.1639 18.3759H24.8029V17.154C24.8029 16.3394 24.9832 15.6726 25.7481 15.6726C26.1482 15.6726 26.6933 15.8962 26.7286 16.6709H29.3799C29.1995 14.0834 27.9993 12.9335 25.7481 12.9335C23.1674 12.9335 22.1516 14.9698 22.1516 17.15V18.3719H20.6965L19.861 21.1828H27.0188V21.1868Z" fill="black"/>
<path d="M52.2362 28.7295H45.6235V33.6488H52.2362V28.7295Z" fill="black"/>
<path d="M56.0854 13.9752H51.1436V9.68677H56.0854V13.9752ZM51.9084 33.6485V28.7291H55.5049C57.3954 28.7291 58.4111 27.8787 58.4111 25.7703V18.3355H63.3137V25.1395C63.3137 27.3196 64.6198 28.7251 66.8005 28.7251H69.2361V33.6445H67.0947C64.4433 33.6445 62.8431 32.3867 61.9018 31.057C61.0312 32.6103 59.1406 33.6445 56.8895 33.6445H51.9123L51.9084 33.6485ZM63.2784 13.9752H58.3367V9.68677H63.2784V13.9752Z" fill="black"/>
<path d="M75.5203 28.7295H68.9077V33.6488H75.5203V28.7295Z" fill="black"/>
<path d="M77.2244 24.4408C77.3342 18.7469 82.127 16.2313 86.4883 16.2313C93.1009 16.2313 98.7291 21.6657 98.7291 28.7333V33.6526H75.334V28.7333H93.7873C93.8226 24.1453 91.0261 20.6715 86.4844 20.6715C84.0488 20.6715 82.0524 21.7057 81.8328 24.4448H77.2205L77.2244 24.4408Z" fill="black"/>
<path d="M107.123 35.166C107.959 35.4256 109.119 35.6851 110.284 35.6851C111.045 35.6851 113.736 35.7211 114.606 33.6527H111.88C107.013 33.6527 103.307 29.9552 103.307 25.2196C103.307 20.4841 106.649 17.1938 111.88 17.1938H119.763V28.7334H125.066V33.6527H119.654C118.999 38.6439 114.422 40.0894 110.936 39.9776C110.065 39.9416 109.045 39.754 108.393 39.5703L107.123 35.17V35.166ZM114.826 21.63H111.739C109.598 21.63 108.362 23.5146 108.362 25.2157C108.362 27.0644 109.598 28.7294 111.739 28.7294H114.826V21.63Z" fill="black"/>
<path d="M131.359 28.7295H124.746V33.6488H131.359V28.7295Z" fill="black"/>
<path d="M131.173 33.6488V28.7295H135.46C136.766 28.7295 137.566 27.9549 137.566 26.5095V9.68317H142.472V26.214C142.472 28.3223 141.998 33.6488 135.895 33.6488H131.173Z" fill="black"/>
<path d="M10.3149 78.3259V51.8765H15.594V74.6563H21.6615V78.3259H10.3149Z" fill="black"/>
<path d="M38.2159 78.6769C36.804 78.6769 35.6038 78.4813 34.6115 78.094C33.6193 77.7066 32.827 77.1277 32.2387 76.357C31.6504 75.5864 31.219 74.68 30.9523 73.6378C30.6855 72.5956 30.5522 71.3658 30.5522 69.9524V60.1896C30.5522 58.7761 30.6855 57.5502 30.9523 56.512C31.219 55.4738 31.6465 54.5794 32.2387 53.8247C32.827 53.0701 33.6193 52.4992 34.6115 52.1158C35.6038 51.7324 36.804 51.5408 38.2159 51.5408C40.9653 51.5408 42.9342 52.2676 44.1304 53.725C45.3266 55.1824 45.9228 57.3345 45.9228 60.1856V69.9483C45.9228 72.7993 45.3266 74.9675 44.1304 76.4489C42.9342 77.9302 40.9613 78.6729 38.2159 78.6729M37.1962 74.5961C37.4786 74.7278 37.8159 74.7957 38.2159 74.7957C38.616 74.7957 38.9533 74.7319 39.2435 74.5961C39.5299 74.4643 39.7573 74.2967 39.9181 74.093C40.0789 73.8893 40.2083 73.6258 40.3024 73.2944C40.3966 72.963 40.4554 72.6476 40.4829 72.3441C40.5104 72.0406 40.5221 71.6773 40.5221 71.25V58.8679C40.5221 58.4406 40.5104 58.0772 40.4829 57.7738C40.4554 57.4703 40.3966 57.1589 40.3024 56.8395C40.2083 56.5201 40.0789 56.2645 39.9181 56.0648C39.7573 55.8692 39.5299 55.7055 39.2435 55.5777C38.9572 55.4499 38.616 55.386 38.2159 55.386C37.8159 55.386 37.4786 55.4499 37.1962 55.5777C36.9138 55.7055 36.6941 55.8692 36.5372 56.0648C36.3804 56.2605 36.2588 56.5241 36.1686 56.8475C36.0784 57.1708 36.0235 57.4823 35.996 57.7818C35.9685 58.0812 35.9568 58.4406 35.9568 58.8679V71.25C35.9568 71.6773 35.9685 72.0406 35.996 72.3441C36.0235 72.6476 36.0784 72.963 36.1686 73.2944C36.2588 73.6258 36.3804 73.8893 36.5372 74.093C36.6941 74.2967 36.9138 74.4643 37.1962 74.5961Z" fill="black"/>
<path d="M56.5288 78.3259V51.8765H61.8275V62.7254H66.4007V51.8765H71.6993V78.3259H66.4007V66.5666H61.8275V78.3259H56.5288Z" fill="black"/>
<path d="M81.4063 78.3258L86.4854 51.8725H92.2822L97.3456 78.3258H92.439L91.4821 72.4721H87.36L86.403 78.3258H81.4023H81.4063ZM87.862 69.138H90.9486L89.3994 58.6086L87.862 69.138Z" fill="black"/>
<path d="M108.669 78.3259V55.8455H104.516V51.8765H118.038V55.8455H113.948V78.3259H108.669Z" fill="black"/>
<path d="M127.249 78.3259V51.8765H132.528V62.961L137.245 51.8765H142.352L137.481 63.7755L142.713 78.3259H137.372L133.265 66.2191L132.528 67.493V78.3259H127.249Z" fill="black"/>
<path d="M162.054 21.0188L160.639 22.061L159.223 21.0188H160.29C160.29 21.0188 159.961 20.2242 160.332 20.1364C160.332 20.1364 159.897 19.4056 160.219 19.3138C160.219 19.3138 159.741 18.7388 160.262 18.4752C160.262 18.4752 159.889 17.8324 160.286 17.6367C160.286 17.6367 159.827 16.8861 160.286 16.7543C160.286 16.7543 159.893 16.0237 160.309 15.9158V13.8834C160.309 13.8834 159.768 13.544 159.937 15.3847L159.807 15.5165L159.851 16.0476C159.851 16.0476 159.371 15.8 159.548 15.4486L159.219 15.5804C159.219 15.5804 159.09 15.3168 159.219 14.7858C159.219 14.7858 159.156 14.654 159.031 14.9615C159.031 14.9615 158.388 14.4304 159.062 13.7237V13.568C159.062 13.568 158.756 13.1887 159.349 12.9051C159.349 12.9051 159.721 12.3501 159.031 12.3301C159.031 12.3301 158.862 12.993 158.646 12.993C158.646 12.993 158.623 13.4802 158.392 13.4802C158.392 13.4802 158.423 13.9792 158.089 14.099C158.089 14.099 158.175 14.4544 158.015 14.4983C158.015 14.4983 157.984 14.8057 158.089 14.8656C158.089 14.8656 157.321 14.2268 157.728 13.1646L158.207 12.1624C158.207 12.1624 158.337 11.867 157.846 11.9548L157.815 12.2942C157.815 12.2942 157.677 12.5139 157.611 12.2383C157.611 12.2383 157.293 11.9868 157.324 12.7574L157.379 13.1887C157.379 13.1887 157.262 13.4202 157.164 13.0449C157.164 13.0449 156.642 13.0569 157.164 14.0791C157.164 14.0791 156.191 13.3283 156.803 12.2463L158.039 10.9007C158.039 10.9007 157.984 10.3377 157.097 10.7689C157.097 10.7689 156.842 10.9126 156.607 11.1802C156.607 11.1802 157.042 9.92238 158.227 9.73472H159.07C159.07 9.73472 159.36 9.02796 158.14 9.36737C158.14 9.36737 157.936 8.40906 159.168 8.64065L159.992 9.36737L160.066 9.37935V8.46496L160.56 7.9339L161.144 8.45298V9.38334L161.988 8.63267C161.988 8.63267 163.137 8.3252 163.18 9.31546C163.18 9.31546 161.933 9.008 162.122 9.72673H163.18C163.18 9.72673 164.415 9.84652 164.718 11.0964C164.718 11.0964 163.862 10.2259 163.18 10.7729L164.643 12.3062C164.643 12.3062 165.207 13.2365 164.31 14.0351C164.31 14.0351 164.702 13.1766 164.235 12.989C164.235 12.989 164.137 12.9571 164.02 13.1766C164.02 13.1766 164.149 12.406 163.902 12.2303C163.902 12.2303 163.674 12.1304 163.541 12.3501C163.541 12.3501 163.572 11.831 163.063 11.9827C163.063 11.9827 163.008 12.2782 163.553 13.0609C163.553 13.0609 164.02 14.2547 163.294 14.8497C163.294 14.8497 163.368 14.0791 162.945 13.8595C162.945 13.8595 163.129 13.4163 162.686 13.2845C162.686 13.2845 162.827 13.0768 162.438 12.8852C162.438 12.8852 162.267 12.8093 162.298 12.4739C162.298 12.4739 161.85 12.0906 161.863 12.7534C161.863 12.7534 162.502 13.2525 162.18 13.536C162.18 13.536 162.851 14.155 162.427 14.5542C162.427 14.5542 162.525 15.1292 162.18 14.8936C162.18 14.8936 161.976 14.5423 162.019 15.249C162.019 15.249 162.234 15.7041 161.791 15.5125C161.791 15.5125 161.749 15.9118 161.474 16.0635V15.5125H161.345V14.2747C161.345 14.2747 161.387 13.8754 160.968 13.9193V15.8399C160.968 15.8399 161.345 16.0276 160.979 16.7423C160.979 16.7423 161.415 16.8301 160.992 17.6009C160.992 17.6009 161.384 17.6887 161.023 18.4393C161.023 18.4393 161.532 18.4713 161.098 19.3537C161.098 19.3537 161.474 19.3537 160.979 20.1364C160.979 20.1364 161.415 20.0924 161.023 20.9749L162.054 21.0268V21.0188Z" fill="#006432"/>
<path d="M165.235 25.4393L164.746 25.8387C163.922 26.194 163.078 25.3634 163.078 25.3634C162.777 25.1119 163.282 24.9642 163.282 24.9642C164.039 24.6846 163.424 24.2255 163.424 24.2255C162.687 24.0937 162.914 24.6687 162.914 24.6687C163.087 25.1 162.683 25.0361 162.683 25.0361L161.298 23.7024C162.153 22.8679 163.867 21.2827 165.213 20.6078C165.213 20.6078 166.448 19.6934 169.958 19.5457C169.958 19.5457 167.13 18.244 164.094 20.3284C164.094 20.3284 161.698 21.8817 160.745 23.0316L160.706 23.0675L160.671 23.0316C159.714 21.8817 157.321 20.3284 157.321 20.3284C154.289 18.244 151.458 19.5457 151.458 19.5457C154.968 19.6895 156.204 20.6078 156.204 20.6078C157.549 21.2907 159.267 22.8679 160.118 23.7024L158.733 25.0361C158.733 25.0361 158.329 25.092 158.506 24.6687C158.506 24.6687 158.733 24.0937 157.996 24.2255C157.996 24.2255 157.387 24.6807 158.137 24.9642C158.137 24.9642 158.646 25.1079 158.341 25.3634C158.341 25.3634 157.498 26.19 156.67 25.8387L156.18 25.4393C156.18 25.4393 155.466 25.1758 155.356 25.9265C155.356 25.9265 155.941 27.4478 157.863 26.721C157.863 26.721 158.6 26.4695 159.141 25.8067L159.416 26.0583C159.416 26.0583 159.384 26.6332 159.851 26.6652C159.851 26.6652 160.169 26.6093 160.153 26.19C160.153 26.19 160.066 25.8666 159.6 25.8347L159.372 25.627C159.372 25.627 160.247 24.8045 160.698 24.2934C161.149 24.8045 162.027 25.627 162.027 25.627L161.796 25.8347C161.329 25.8666 161.244 26.19 161.244 26.19C161.231 26.6013 161.545 26.6652 161.545 26.6652C162.012 26.6332 161.981 26.0583 161.981 26.0583L162.255 25.8067C162.788 26.4695 163.534 26.721 163.534 26.721C165.463 27.4478 166.04 25.9265 166.04 25.9265C165.934 25.1758 165.228 25.4393 165.228 25.4393" fill="#006432"/>
<path d="M155.499 32.5625H155.17C155.111 32.5625 155.056 32.5505 155.005 32.5226C154.907 32.4747 154.828 32.3828 154.758 32.251C154.667 32.0714 154.608 31.8239 154.581 31.5123C154.468 31.6561 154.377 31.756 154.314 31.8158C154.224 31.9037 154.146 31.9476 154.083 31.9476C154.051 31.9476 154.013 31.9436 153.961 31.9316L153.656 31.8717C153.526 31.8438 153.443 31.8239 153.417 31.8118C153.385 31.7999 153.373 31.7799 153.373 31.7479C153.373 31.704 153.432 31.5563 153.546 31.3128C153.66 31.0691 153.746 30.9174 153.797 30.8616C153.84 30.8136 153.91 30.7577 154.02 30.6818C154.083 30.638 154.173 30.582 154.292 30.5102L154.424 30.4303C154.421 30.4064 154.417 30.3824 154.413 30.3584C154.413 30.3345 154.413 30.3105 154.413 30.2905C154.413 30.2266 154.428 30.1468 154.456 30.047C154.483 29.9471 154.538 29.8274 154.613 29.6836L154.852 31.2728C154.891 31.5203 154.942 31.6921 155.001 31.7799C155.04 31.8358 155.095 31.8677 155.165 31.8677H155.495V32.5625H155.499ZM154.922 28.9889L154.648 29.464L154.292 29.2603L154.091 29.6637L153.625 29.4041L153.884 28.9569L154.252 29.1446L154.472 28.7532L154.919 28.9889H154.922ZM154.527 31.1211L154.476 30.8136C154.421 30.8375 154.382 30.8616 154.35 30.8735C154.259 30.9214 154.185 30.9693 154.13 31.0133C154.091 31.0452 154.055 31.0771 154.029 31.1091C153.993 31.145 153.978 31.173 153.978 31.1929C153.978 31.2169 154.009 31.2369 154.064 31.2489C154.123 31.2608 154.181 31.2688 154.237 31.2688C154.272 31.2688 154.31 31.2568 154.35 31.2369C154.389 31.2169 154.448 31.177 154.518 31.1211" fill="#006432"/>
<path d="M156.889 32.5624H155.324V31.8676H156.642C156.623 31.7518 156.591 31.656 156.54 31.5762C156.516 31.5322 156.458 31.4563 156.364 31.3486L156.564 30.7416C156.689 30.8854 156.775 31.0371 156.818 31.1968C156.866 31.3525 156.889 31.5881 156.889 31.8995V32.5664V32.5624ZM156.85 33.0096L156.575 33.5287L156.219 33.325L156.018 33.7284L155.552 33.4688L155.811 32.9737L156.18 33.1613L156.391 32.7501L156.846 33.0096H156.85Z" fill="#006432"/>
<path d="M158.65 32.5624H157.516C157.406 32.5624 157.32 32.5385 157.266 32.4905C157.195 32.4347 157.156 32.3388 157.156 32.2071C157.156 32.1311 157.159 32.0513 157.167 31.9635C157.175 31.8756 157.187 31.7878 157.202 31.7H157.297C157.308 31.7558 157.34 31.7958 157.387 31.8237C157.434 31.8517 157.489 31.8637 157.551 31.8637H158.411C158.371 31.6161 158.304 31.4165 158.21 31.2647C158.132 31.1409 158.022 31.0332 157.881 30.9453L158.062 30.1507C158.277 30.3144 158.43 30.526 158.521 30.7896C158.602 31.0292 158.646 31.3486 158.646 31.7438V32.5624H158.65Z" fill="#006432"/>
<path d="M160.959 32.387C160.959 32.6785 160.838 32.966 160.595 33.2536C160.352 33.5371 160.112 33.6807 159.873 33.6807C159.736 33.6807 159.583 33.6369 159.419 33.5451C159.254 33.4571 159.002 33.2775 158.662 33.014L158.767 32.8663C158.947 32.99 159.097 33.0698 159.21 33.1098C159.305 33.1457 159.414 33.1617 159.532 33.1617C159.693 33.1617 159.853 33.1138 160.014 33.022C160.202 32.9141 160.395 32.7385 160.595 32.4949C160.524 32.5069 160.465 32.5109 160.419 32.5109C160.253 32.5109 160.121 32.4549 160.022 32.3472C159.924 32.2393 159.877 32.0876 159.877 31.9C159.877 31.6444 159.936 31.4008 160.05 31.1652C160.176 30.9096 160.316 30.7819 160.477 30.7819C160.61 30.7819 160.724 30.8737 160.819 31.0614C160.913 31.2451 160.959 31.4687 160.959 31.7322V32.391V32.387ZM160.658 31.868C160.61 31.5965 160.516 31.4567 160.371 31.4567C160.32 31.4567 160.277 31.4767 160.246 31.5206C160.215 31.5605 160.198 31.6085 160.198 31.6563C160.198 31.7162 160.23 31.7682 160.297 31.808C160.364 31.848 160.45 31.868 160.56 31.868H160.654H160.658Z" fill="#006432"/>
<path d="M162.807 32.5625H162.435C162.301 32.5625 162.187 32.5345 162.086 32.4827C161.983 32.4267 161.905 32.3389 161.842 32.2191C161.732 32.3549 161.592 32.4507 161.419 32.5066C161.305 32.5425 161.179 32.5625 161.042 32.5625H160.78V31.8677H161.042C161.179 31.8677 161.278 31.8597 161.333 31.8477C161.388 31.8318 161.462 31.7998 161.56 31.748C161.509 31.6481 161.465 31.5762 161.43 31.5323C161.383 31.4804 161.34 31.4525 161.289 31.4525C161.27 31.4525 161.254 31.4604 161.239 31.4724C161.223 31.4844 161.203 31.5083 161.184 31.5443L161.074 31.5283C161.074 31.2209 161.125 31.0013 161.23 30.8695C161.336 30.7377 161.502 30.6738 161.724 30.6738C161.948 30.6738 162.14 30.7217 162.27 30.8136C162.403 30.9054 162.47 31.0332 162.47 31.1929C162.47 31.2807 162.45 31.3606 162.419 31.4405C162.384 31.5204 162.316 31.6281 162.219 31.7639C162.242 31.7958 162.274 31.8198 162.313 31.8398C162.352 31.8597 162.391 31.8677 162.426 31.8677H162.799V32.5625H162.807Z" fill="#006432"/>
<path d="M165.926 32.5626C165.737 32.5626 165.585 32.5506 165.459 32.5226C165.333 32.4947 165.216 32.4508 165.094 32.3909C164.996 32.4588 164.91 32.5066 164.835 32.5307C164.761 32.5546 164.647 32.5626 164.494 32.5626H164.086C163.973 32.5626 163.887 32.5347 163.819 32.4747C163.753 32.4148 163.694 32.315 163.643 32.1793C163.553 32.323 163.447 32.4228 163.334 32.4867C163.235 32.5386 163.121 32.5666 162.984 32.5666H162.627V31.8718H162.984C163.161 31.8718 163.306 31.8239 163.424 31.7201C163.576 31.5883 163.651 31.3886 163.651 31.1251L163.815 31.1491C163.815 31.205 163.808 31.2649 163.804 31.3368C163.804 31.4087 163.8 31.4845 163.8 31.5684C163.8 31.6522 163.828 31.7281 163.887 31.784C163.945 31.8398 164.012 31.8718 164.086 31.8718H164.396C164.6 31.8718 164.745 31.8438 164.831 31.784C164.938 31.7161 164.988 31.5843 164.988 31.3926C164.988 31.3527 165 31.3167 165.028 31.2848C165.043 31.2649 165.074 31.2369 165.122 31.201L165.216 31.1251C165.216 31.157 165.223 31.201 165.223 31.2569C165.223 31.3128 165.223 31.3487 165.223 31.3647C165.223 31.4565 165.212 31.5803 165.184 31.736C165.247 31.7679 165.314 31.792 165.392 31.8159C165.471 31.8358 165.55 31.8559 165.636 31.8678C165.636 31.8119 165.616 31.736 165.572 31.6442C165.53 31.5523 165.51 31.4925 165.51 31.4565C165.51 31.4126 165.518 31.3767 165.53 31.3527C165.53 31.3448 165.549 31.3167 165.585 31.2729L165.796 30.9814C165.84 31.0891 165.875 31.1851 165.894 31.2729C165.914 31.3607 165.921 31.4685 165.921 31.6003V32.5626H165.926Z" fill="#006432"/>
<path d="M167.129 32.5625H165.752V31.8677H166.827L166.525 30.1388L166.364 30.031C166.364 29.9311 166.379 29.8313 166.412 29.7275C166.451 29.5997 166.513 29.444 166.607 29.2643L166.721 29.3242C166.721 29.3242 166.721 29.3602 166.713 29.404C166.713 29.46 166.748 29.5159 166.82 29.5677C166.882 29.6157 166.98 29.6676 167.114 29.7275C167.098 29.8353 167.074 29.9432 167.046 30.0469C167.019 30.1507 166.984 30.2426 166.949 30.3265L166.858 30.2905L167.133 31.8677V32.5625H167.129Z" fill="#006432"/>
<path d="M168.052 31.8198C168.052 31.9715 168.032 32.1073 168.001 32.235C167.966 32.3588 167.899 32.5265 167.797 32.7381L167.648 32.6782C167.687 32.4626 167.707 32.2829 167.707 32.1471C167.707 32.0434 167.699 31.8916 167.683 31.692C167.668 31.4923 167.644 31.2927 167.62 31.097C167.597 30.9013 167.554 30.6657 167.499 30.3943C167.479 30.2984 167.468 30.2345 167.468 30.1986C167.468 30.1467 167.495 30.0548 167.545 29.931C167.597 29.8033 167.672 29.6516 167.765 29.4719L167.914 30.3743C167.969 30.7177 168.008 31.0132 168.028 31.2647C168.044 31.4564 168.052 31.644 168.052 31.8237" fill="#006432"/>
<path d="M158.236 44.9245V38.5916H159.491V41.4067L162.028 38.5916H163.719L161.377 41.0593L163.844 44.9245H162.22L160.51 41.9537L159.491 43.0118V44.9245H158.236Z" fill="#006432"/>
<path d="M158.378 53.4854L159.602 53.3656C159.676 53.7809 159.826 54.0883 160.049 54.288C160.273 54.4836 160.578 54.5835 160.959 54.5835C161.363 54.5835 161.669 54.4957 161.873 54.3239C162.077 54.1482 162.182 53.9446 162.182 53.713C162.182 53.5613 162.14 53.4375 162.053 53.3297C161.967 53.2218 161.814 53.134 161.602 53.0541C161.453 53.0022 161.12 52.9104 160.594 52.7786C159.92 52.6069 159.449 52.3993 159.178 52.1517C158.798 51.8043 158.606 51.3772 158.606 50.878C158.606 50.5546 158.696 50.2551 158.876 49.9716C159.057 49.6921 159.316 49.4765 159.653 49.3287C159.99 49.181 160.398 49.1091 160.877 49.1091C161.657 49.1091 162.246 49.2849 162.641 49.6322C163.038 49.9796 163.246 50.4467 163.266 51.0257L162.01 51.0817C161.956 50.7582 161.842 50.5226 161.665 50.3789C161.489 50.2351 161.221 50.1632 160.868 50.1632C160.516 50.1632 160.218 50.2391 160.014 50.3908C159.88 50.4867 159.814 50.6185 159.814 50.7822C159.814 50.9339 159.876 51.0616 160.002 51.1655C160.159 51.3013 160.543 51.4411 161.155 51.5888C161.767 51.7365 162.218 51.8883 162.512 52.044C162.806 52.1997 163.034 52.4153 163.198 52.6868C163.363 52.9583 163.446 53.2937 163.446 53.697C163.446 54.0604 163.347 54.3998 163.147 54.7152C162.948 55.0307 162.669 55.2663 162.308 55.422C161.947 55.5777 161.493 55.6536 160.955 55.6536C160.166 55.6536 159.563 55.4699 159.143 55.0986C158.72 54.7272 158.468 54.1881 158.386 53.4814" fill="#006432"/>
<path d="M163.828 66.1634H162.463L161.918 64.7259H159.432L158.917 66.1634H157.584L160.008 59.8306H161.337L163.828 66.1634ZM161.514 63.6558L160.655 61.3039L159.816 63.6558H161.514Z" fill="#006432"/>
<path d="M164.618 74.652C164.618 76.8441 162.873 78.621 160.72 78.621C158.567 78.621 156.817 76.8441 156.817 74.652C156.817 72.4598 158.563 70.683 160.72 70.683C162.877 70.683 164.618 72.4598 164.618 74.652Z" fill="#006432"/>
</svg>
