<svg width="190" height="71" viewBox="0 0 190 71" fill="none" xmlns="http://www.w3.org/2000/svg">
<rect x="0.612274" y="0.814422" width="188.993" height="69.2022" rx="10.7271" fill="white" stroke="#090909" stroke-width="0.775453"/>
<path d="M44.1424 36.4532C44.1795 33.5622 45.7277 30.8267 48.1837 29.3124C46.6343 27.0933 44.0392 25.6863 41.3392 25.6016C38.4594 25.2985 35.6676 27.3297 34.2001 27.3297C32.7042 27.3297 30.4448 25.6317 28.0118 25.6819C24.8405 25.7847 21.884 27.5929 20.3411 30.3734C17.0244 36.132 19.4984 44.5954 22.6754 49.2502C24.265 51.5296 26.1228 54.0757 28.5536 53.9854C30.9323 53.8865 31.8207 52.4643 34.692 52.4643C37.5366 52.4643 38.3701 53.9854 40.8503 53.928C43.4027 53.8865 45.0109 51.6385 46.5447 49.3376C47.6868 47.7134 48.5656 45.9184 49.1487 44.019C46.1491 42.7467 44.1459 39.7194 44.1424 36.4532Z" fill="#090909"/>
<path d="M39.4578 22.5403C40.8495 20.8649 41.5351 18.7114 41.3691 16.5371C39.2429 16.7611 37.2789 17.7802 35.8684 19.3913C34.4891 20.9655 33.7713 23.0812 33.907 25.1723C36.034 25.1943 38.125 24.2028 39.4578 22.5403Z" fill="#090909"/>
<path d="M128.984 33.4674V36.9707H126.794V39.2681H128.984V47.0743C128.984 49.7398 130.187 50.8061 133.212 50.8061C133.743 50.8061 134.249 50.7426 134.692 50.6664V48.3944C134.313 48.4325 134.072 48.4578 133.655 48.4578C132.3 48.4578 131.705 47.8232 131.705 46.3762V39.2681H134.692V36.9707H131.705V33.4674H128.984Z" fill="#090909"/>
<path d="M142.398 50.9964C146.423 50.9964 148.891 48.2928 148.891 43.8122C148.891 39.3569 146.411 36.6406 142.398 36.6406C138.374 36.6406 135.893 39.3569 135.893 43.8122C135.893 48.2928 138.361 50.9964 142.398 50.9964ZM142.398 48.5721C140.032 48.5721 138.703 46.8331 138.703 43.8122C138.703 40.8166 140.032 39.065 142.398 39.065C144.753 39.065 146.094 40.8166 146.094 43.8122C146.094 46.8204 144.753 48.5721 142.398 48.5721Z" fill="#090909"/>
<path d="M151.003 50.7299H153.724V42.5683C153.724 40.6262 155.18 39.3189 157.243 39.3189C157.724 39.3189 158.534 39.4077 158.762 39.4839V36.793C158.471 36.7168 157.952 36.6787 157.547 36.6787C155.749 36.6787 154.218 37.6688 153.826 39.0269H153.623V36.9072H151.003V50.7299Z" fill="#090909"/>
<path d="M165.519 38.9635C167.531 38.9635 168.847 40.3724 168.911 42.5429H161.949C162.101 40.3851 163.506 38.9635 165.519 38.9635ZM168.898 46.9981C168.392 48.077 167.265 48.6736 165.62 48.6736C163.443 48.6736 162.038 47.1378 161.949 44.7134V44.5611H171.682V43.6091C171.682 39.2681 169.366 36.6406 165.531 36.6406C161.646 36.6406 159.177 39.4458 159.177 43.863C159.177 48.2801 161.595 50.9964 165.544 50.9964C168.695 50.9964 170.898 49.4733 171.518 46.9981H168.898Z" fill="#090909"/>
<path d="M111.139 45.6254C111.349 49.0196 114.169 51.1903 118.367 51.1903C122.854 51.1903 125.661 48.9144 125.661 45.2833C125.661 42.4285 124.06 40.8498 120.177 39.942L118.091 39.4289C115.625 38.8501 114.628 38.0739 114.628 36.7188C114.628 35.0085 116.176 33.8903 118.498 33.8903C120.702 33.8903 122.224 34.9822 122.499 36.732H125.359C125.189 33.5351 122.381 31.2854 118.538 31.2854C114.405 31.2854 111.65 33.5351 111.65 36.9161C111.65 39.7052 113.211 41.3629 116.635 42.1654L119.075 42.7574C121.581 43.3494 122.683 44.2177 122.683 45.6649C122.683 47.3488 120.951 48.5723 118.59 48.5723C116.058 48.5723 114.3 47.4277 114.051 45.6254H111.139Z" fill="#090909"/>
<path d="M82.9494 36.6787C81.0762 36.6787 79.4561 37.618 78.6208 39.1919H78.4183V36.9072H75.7983V55.3248H78.5195V48.6355H78.7347C79.4561 50.0952 81.0129 50.9584 82.9748 50.9584C86.4554 50.9584 88.6704 48.204 88.6704 43.8122C88.6704 39.4204 86.4554 36.6787 82.9494 36.6787ZM82.1774 48.5086C79.8991 48.5086 78.4689 46.7062 78.4689 43.8249C78.4689 40.9309 79.8991 39.1285 82.19 39.1285C84.4936 39.1285 85.8732 40.8928 85.8732 43.8122C85.8732 46.7443 84.4936 48.5086 82.1774 48.5086Z" fill="#090909"/>
<path d="M98.1924 36.6787C96.3192 36.6787 94.6991 37.618 93.8638 39.1919H93.6612V36.9072H91.0413V55.3248H93.7625V48.6355H93.9777C94.6991 50.0952 96.2559 50.9584 98.2177 50.9584C101.698 50.9584 103.913 48.204 103.913 43.8122C103.913 39.4204 101.698 36.6787 98.1924 36.6787ZM97.4203 48.5086C95.1421 48.5086 93.7119 46.7062 93.7119 43.8249C93.7119 40.9309 95.1421 39.1285 97.433 39.1285C99.7366 39.1285 101.116 40.8928 101.116 43.8122C101.116 46.7443 99.7366 48.5086 97.4203 48.5086Z" fill="#090909"/>
<path d="M70.9159 50.7299H74.0381L67.2034 31.7459H64.0418L57.2071 50.7299H60.2243L61.9691 45.6912H69.1843L70.9159 50.7299ZM65.4717 35.1927H65.6948L68.4365 43.2178H62.7169L65.4717 35.1927Z" fill="#090909"/>
<path d="M57.1316 18.3555V25.8594H59.8332C62.0629 25.8594 63.3541 24.4814 63.3541 22.0841C63.3541 19.7232 62.0525 18.3555 59.8332 18.3555H57.1316ZM58.2931 19.4164H59.7036C61.254 19.4164 62.1718 20.4044 62.1718 22.0997C62.1718 23.821 61.2696 24.7986 59.7036 24.7986H58.2931V19.4164Z" fill="#090909"/>
<path d="M67.3085 25.9686C68.9574 25.9686 69.9686 24.861 69.9686 23.0253C69.9686 21.2001 68.9523 20.0872 67.3085 20.0872C65.6595 20.0872 64.6432 21.2001 64.6432 23.0253C64.6432 24.861 65.6543 25.9686 67.3085 25.9686ZM67.3085 24.9754C66.3388 24.9754 65.7943 24.263 65.7943 23.0253C65.7943 21.7981 66.3388 21.0805 67.3085 21.0805C68.273 21.0805 68.8226 21.7981 68.8226 23.0253C68.8226 24.2578 68.273 24.9754 67.3085 24.9754Z" fill="#090909"/>
<path d="M78.5795 20.1964H77.4646L76.4587 24.5178H76.3705L75.209 20.1964H74.1408L72.9792 24.5178H72.8963L71.8851 20.1964H70.7547L72.3103 25.8594H73.4563L74.6178 21.6889H74.706L75.8727 25.8594H77.0291L78.5795 20.1964Z" fill="#090909"/>
<path d="M79.8634 25.8594H80.9783V22.5469C80.9783 21.6629 81.502 21.1117 82.3265 21.1117C83.1509 21.1117 83.545 21.5641 83.545 22.4741V25.8594H84.6599V22.1933C84.6599 20.8464 83.9651 20.0872 82.705 20.0872C81.8546 20.0872 81.2946 20.4668 81.0197 21.0961H80.9368V20.1964H79.8634V25.8594Z" fill="#090909"/>
<path d="M86.4157 25.8594H87.5306V17.9863H86.4157V25.8594Z" fill="#090909"/>
<path d="M91.7235 25.9686C93.3724 25.9686 94.3836 24.861 94.3836 23.0253C94.3836 21.2001 93.3673 20.0872 91.7235 20.0872C90.0745 20.0872 89.0582 21.2001 89.0582 23.0253C89.0582 24.861 90.0693 25.9686 91.7235 25.9686ZM91.7235 24.9754C90.7538 24.9754 90.2093 24.263 90.2093 23.0253C90.2093 21.7981 90.7538 21.0805 91.7235 21.0805C92.688 21.0805 93.2376 21.7981 93.2376 23.0253C93.2376 24.2578 92.688 24.9754 91.7235 24.9754Z" fill="#090909"/>
<path d="M97.7054 25.0118C97.0987 25.0118 96.6579 24.7154 96.6579 24.2058C96.6579 23.7066 97.0105 23.4413 97.7883 23.3893L99.1676 23.3009V23.7742C99.1676 24.4762 98.5454 25.0118 97.7054 25.0118ZM97.4202 25.953C98.1617 25.953 98.7787 25.6306 99.1158 25.0638H99.2039V25.8594H100.277V21.9905C100.277 20.7944 99.4788 20.0872 98.0632 20.0872C96.7824 20.0872 95.8697 20.7112 95.7556 21.6837H96.8342C96.9587 21.2833 97.3891 21.0545 98.0113 21.0545C98.7736 21.0545 99.1676 21.3925 99.1676 21.9905V22.4793L97.638 22.5677C96.2949 22.6509 95.5379 23.2385 95.5379 24.2578C95.5379 25.2926 96.3312 25.953 97.4202 25.953Z" fill="#090909"/>
<path d="M104.061 25.953C104.838 25.953 105.497 25.5838 105.834 24.965H105.922V25.8594H106.99V17.9863H105.875V21.0961H105.793C105.487 20.472 104.833 20.1028 104.061 20.1028C102.635 20.1028 101.717 21.2365 101.717 23.0253C101.717 24.8194 102.624 25.953 104.061 25.953ZM104.377 21.1065C105.31 21.1065 105.896 21.8501 105.896 23.0305C105.896 24.2162 105.315 24.9494 104.377 24.9494C103.433 24.9494 102.868 24.2266 102.868 23.0253C102.868 21.8345 103.438 21.1065 104.377 21.1065Z" fill="#090909"/>
<path d="M114.22 25.9686C115.869 25.9686 116.88 24.861 116.88 23.0253C116.88 21.2001 115.864 20.0872 114.22 20.0872C112.571 20.0872 111.555 21.2001 111.555 23.0253C111.555 24.861 112.566 25.9686 114.22 25.9686ZM114.22 24.9754C113.25 24.9754 112.706 24.263 112.706 23.0253C112.706 21.7981 113.25 21.0805 114.22 21.0805C115.184 21.0805 115.734 21.7981 115.734 23.0253C115.734 24.2578 115.184 24.9754 114.22 24.9754Z" fill="#090909"/>
<path d="M118.356 25.8594H119.471V22.5469C119.471 21.6629 119.994 21.1117 120.819 21.1117C121.643 21.1117 122.037 21.5641 122.037 22.4741V25.8594H123.152V22.1933C123.152 20.8464 122.457 20.0872 121.197 20.0872C120.347 20.0872 119.787 20.4668 119.512 21.0961H119.429V20.1964H118.356V25.8594Z" fill="#090909"/>
<path d="M128.287 18.7872V20.2224H127.39V21.1637H128.287V24.3618C128.287 25.4538 128.779 25.8906 130.019 25.8906C130.237 25.8906 130.444 25.8646 130.625 25.8334V24.9026C130.47 24.9182 130.371 24.9286 130.2 24.9286C129.645 24.9286 129.402 24.6686 129.402 24.0758V21.1637H130.625V20.2224H129.402V18.7872H128.287Z" fill="#090909"/>
<path d="M132.122 25.8594H133.237V22.5521C133.237 21.6941 133.745 21.1169 134.658 21.1169C135.446 21.1169 135.866 21.5745 135.866 22.4793V25.8594H136.981V22.2037C136.981 20.8568 136.239 20.0924 135.036 20.0924C134.186 20.0924 133.589 20.472 133.315 21.1065H133.226V17.9863H132.122V25.8594Z" fill="#090909"/>
<path d="M141.003 21.0389C141.827 21.0389 142.366 21.6161 142.392 22.5053H139.54C139.602 21.6213 140.178 21.0389 141.003 21.0389ZM142.387 24.3306C142.18 24.7726 141.718 25.017 141.044 25.017C140.152 25.017 139.577 24.3878 139.54 23.3945V23.3321H143.528V22.9421C143.528 21.1637 142.579 20.0872 141.008 20.0872C139.416 20.0872 138.405 21.2365 138.405 23.0461C138.405 24.8558 139.395 25.9686 141.013 25.9686C142.304 25.9686 143.206 25.3446 143.46 24.3306H142.387Z" fill="#090909"/>
</svg>
