<svg width="53" height="41" viewBox="0 0 53 41" fill="none" xmlns="http://www.w3.org/2000/svg">
<g style="mix-blend-mode:multiply">
<path d="M32.903 39.6574L1.46172 21.5245C-0.704758 20.2638 -0.431326 18.0912 2.0717 16.6456L11.6379 11.128C14.1409 9.68244 17.948 9.52696 20.0977 10.7792L51.5348 28.9079C53.7055 30.1686 53.432 32.3454 50.929 33.7868L41.3628 39.3044C38.8598 40.75 35.0695 40.9055 32.903 39.6574Z" fill="#EAEAEA"/>
</g>
<path d="M50.3653 32.19L49.4104 32.0933C49.4104 32.0933 45.4266 34.85 42.221 36.1023C39.0155 37.3546 42.6417 34.6021 43.6766 33.8961C44.7114 33.1901 50.2012 30.5342 50.3653 30.9545C50.4553 31.3614 50.4553 31.783 50.3653 32.19Z" fill="#AFB4B8"/>
<path d="M3.81316 18.6165L6.53914 16.8389L14.0061 21.722L28.5531 33.1859L30.463 31.5638L36.6974 35.266L37.1181 24.2896L3.81316 10.0984C3.81316 10.0984 1.01566 11.7121 3.81316 18.6165Z" fill="#222222"/>
<path d="M11.9788 20.3941C11.9788 22.2389 10.6747 22.9827 9.06353 22.054C8.21363 21.5026 7.50617 20.7584 6.99882 19.8821C6.49147 19.0058 6.1986 18.0221 6.14404 17.0112C6.14404 15.1664 7.45235 14.4226 9.06353 15.3303C9.91614 15.8835 10.625 16.631 11.1319 17.5113C11.6387 18.3917 11.929 19.3797 11.9788 20.3941Z" fill="url(#paint0_linear_69_5187)"/>
<path d="M9.23567 23.3525L11.1245 22.2641L6.97665 15.1707L5.0752 16.2675L9.23567 23.3525Z" fill="url(#paint1_linear_69_5187)"/>
<path d="M10.0687 21.4951C10.0687 23.3399 8.76036 24.0837 7.14917 23.155C6.30005 22.6031 5.59342 21.8588 5.08682 20.9825C4.58022 20.1062 4.28797 19.1227 4.23389 18.1122C4.23389 16.2674 5.54219 15.5236 7.14917 16.4313C8.00185 16.9847 8.71103 17.7322 9.21853 18.6125C9.72602 19.4927 10.0174 20.4806 10.0687 21.4951Z" fill="url(#paint2_linear_69_5187)"/>
<path d="M36.7313 34.6609C36.7313 36.5057 35.4272 37.2495 33.816 36.3418C32.9656 35.7909 32.2578 35.0469 31.7504 34.1704C31.243 33.294 30.9504 32.3101 30.8965 31.2991C30.8965 29.4543 32.2048 28.7104 33.816 29.6392C34.663 30.1882 35.3685 30.9291 35.875 31.8016C36.3816 32.6742 36.6749 33.6538 36.7313 34.6609Z" fill="url(#paint3_linear_69_5187)"/>
<path d="M33.9886 37.6277L35.8774 36.5393L31.7296 29.4458L29.8281 30.5426L33.9886 37.6277Z" fill="url(#paint4_linear_69_5187)"/>
<path d="M41.8468 15.5825C41.8431 15.6886 41.8545 15.7947 41.8804 15.8976C41.8865 15.9277 41.9011 15.9555 41.9225 15.9775C41.9394 15.9961 41.9593 16.0117 41.9814 16.0237C42.1048 16.1197 42.2488 16.1858 42.4021 16.217C42.4718 16.2277 42.5427 16.2277 42.6124 16.217H42.6545C42.7365 16.2068 42.8162 16.1826 42.8901 16.1456L42.9448 16.1161L43.0037 16.0825C43.3944 15.839 43.7171 15.5008 43.9417 15.0992C43.9662 15.0479 43.9859 14.9944 44.0007 14.9395C44.0211 14.8723 44.0352 14.8034 44.0427 14.7336C44.0427 14.7336 44.0427 14.7 44.0427 14.6874C44.0427 14.6748 44.0427 14.5739 44.0427 14.5235C44.0449 14.4829 44.0449 14.4422 44.0427 14.4016C44.0445 14.3778 44.0445 14.3539 44.0427 14.3302C44.0376 14.2559 44.0235 14.1825 44.0007 14.1117C43.9712 13.9758 43.9024 13.8516 43.8029 13.7545C43.7656 13.7227 43.7218 13.6995 43.6746 13.6865C43.6273 13.6734 43.5778 13.6708 43.5295 13.6788C43.1138 13.811 42.727 14.0206 42.3895 14.2966C42.1431 14.4651 41.9574 14.7081 41.8594 14.9899V15.0109C41.8553 15.0501 41.8553 15.0895 41.8594 15.1286C41.8594 15.1832 41.8594 15.2463 41.8594 15.3093C41.8468 15.4018 41.8426 15.4942 41.8468 15.5825Z" fill="#BEC3C7"/>
<path d="M42.3096 15.3639V15.4438C42.3103 15.5989 42.3388 15.7526 42.3937 15.8976C42.4271 15.9964 42.4981 16.0779 42.5914 16.1246C42.6498 16.1468 42.7122 16.1564 42.7746 16.1528C42.8369 16.1492 42.8978 16.1324 42.9532 16.1036L43.0163 16.0741C43.4277 15.8569 43.757 15.5117 43.9544 15.0908C43.9789 15.0395 43.9986 14.986 44.0133 14.9311C44.0333 14.8696 44.0474 14.8062 44.0554 14.742C44.0554 14.742 44.0554 14.7084 44.0554 14.6958C44.0554 14.6832 44.0554 14.5823 44.0554 14.5319C44.0575 14.4913 44.0575 14.4506 44.0554 14.41C44.0575 14.3891 44.0575 14.368 44.0554 14.347C44.0494 14.2697 44.0339 14.1935 44.0091 14.1201C43.9712 14.0234 43.925 13.9646 43.8703 13.9562C43.8341 13.9502 43.7971 13.9502 43.7609 13.9562C43.482 14.0195 43.2215 14.146 42.9995 14.326C42.8137 14.436 42.6551 14.5864 42.5357 14.7661C42.4162 14.9459 42.3389 15.1502 42.3096 15.3639Z" fill="#E3E3E3"/>
<path d="M52.5906 29.5509C52.4325 29.6779 52.2338 29.7435 52.0311 29.7358C51.7745 29.6853 49.8352 28.5591 49.8352 28.5591L49.7342 28.5087V27.6682C49.7342 25.5671 48.2408 22.9827 46.3982 21.9195C44.9133 21.079 43.6512 21.453 43.2221 22.7599C43.1103 23.1088 43.0563 23.4736 43.0623 23.8399V24.9746L42.7846 24.8233L24.9816 14.5571V13.4098C24.9758 12.864 24.8908 12.3218 24.7292 11.8004C24.2304 10.0964 23.1363 8.62775 21.6457 7.6611C19.8031 6.59792 18.3097 7.45098 18.3097 9.56053V10.2875L14.9864 7.6695L14.4143 6.2029V5.53894L14.532 5.29941V4.80354L14.3385 4.5556L14.0903 3.84961L14.532 3.2655C14.532 3.2655 14.6078 2.07625 14.6625 1.78629C14.6472 1.52649 14.6786 1.26606 14.755 1.01727C14.865 0.872267 15.0004 0.748398 15.1546 0.651672H15.1967C15.5206 0.731516 18.0237 1.52154 18.0237 1.52154C18.0237 1.52154 18.5411 1.6224 19.5002 1.76528C20.4594 1.90816 23.5177 2.10987 24.3212 2.362C26.757 3.34526 29.1009 4.54197 31.3254 5.93815C33.0657 6.95272 34.6833 8.16394 36.1464 9.54792C38.3297 11.5734 42.0358 15.574 42.5322 16.1665C43.3736 16.8263 50.3652 21.4824 51.2991 23.6802C51.5137 24.3148 52.0185 26.2815 52.0185 26.2815L52.4055 26.9664V27.4119L52.1615 27.7481L52.334 28.9499L52.5906 29.5509Z" fill="#E3E3E3"/>
<path d="M52.5906 29.5509C52.4325 29.6779 52.2338 29.7436 52.0311 29.7358C51.7745 29.6854 49.8352 28.5592 49.8352 28.5592L49.7342 28.5087V27.6683C49.7342 25.5671 48.2408 22.9827 46.3982 21.9195C44.9133 21.0791 43.6512 21.4531 43.2221 22.76C43.1103 23.1089 43.0563 23.4737 43.0623 23.84V24.9746L42.7846 24.8233L24.9816 14.5571V13.4099C24.9758 12.864 24.8908 12.3219 24.7292 11.8004C24.2304 10.0965 23.1363 8.62779 21.6457 7.66114C19.8031 6.59796 18.3097 7.45102 18.3097 9.56057V10.2876L14.9864 7.66954L14.4143 6.20294V5.53899L14.532 5.29945V4.80359L14.3385 4.55564L14.0903 4.07238C14.0903 4.07238 15.2388 4.38336 15.3524 4.2909C15.4659 4.19845 17.4053 2.71084 17.6619 2.76126C17.9185 2.81169 24.9942 7.11064 27.7581 8.75374C30.5219 10.3968 41.1145 17.0659 44.9427 19.6797C49.3219 22.6465 49.3219 24.3022 50.2685 26.0294C50.3526 26.1807 52.1657 27.7733 52.1657 27.7733L52.3382 28.9752L52.5906 29.5509Z" fill="#CFD3D6"/>
<path d="M20.5607 5.32045C19.0547 4.73212 18.0787 5.32045 18.0366 7.84182C19.8708 6.71141 20.3756 6.37102 22.0835 7.804C23.2023 8.78134 24.1856 9.90345 25.0072 11.1406C25.0072 11.1406 24.4099 6.92572 20.5607 5.32045Z" fill="#CFD3D6"/>
<path d="M43.2224 22.7264C43.1106 23.0752 43.0566 23.4401 43.0625 23.8063V24.941L42.7849 24.7897L24.9819 14.5235V13.3762C24.9761 12.8304 24.891 12.2882 24.7295 11.7668C24.8178 11.439 24.8767 11.2289 24.8767 11.2289C24.8767 11.2289 24.9272 11.1953 25.024 11.1448C25.7473 10.7661 26.5913 10.6891 27.3713 10.9305C28.7301 11.3802 40.6731 19.0577 41.5565 19.7049C42.196 20.1714 42.6335 20.0873 42.9994 21.5539C43.0752 21.8691 43.1509 22.2515 43.2224 22.7264Z" fill="#BEC3C7"/>
<path d="M29.3316 14.1705L26.5762 13.5444L27.5437 14.5193L41.5396 22.9239C41.5396 22.9239 40.185 21.306 39.3521 20.8228C38.5192 20.3395 29.3316 14.1705 29.3316 14.1705Z" fill="#E3E3E3"/>
<path d="M24.9819 14.5235V13.3762C24.9761 12.8304 24.8911 12.2882 24.7295 11.7668C24.2307 10.0628 23.1366 8.59416 21.646 7.62751C19.8034 6.56433 18.31 7.41739 18.31 9.52694V10.2539L14.9867 7.63591L14.4146 6.16931L14.9951 6.75763L17.7631 8.68228C17.9945 6.58113 19.6435 5.81631 21.646 6.97194C23.1877 7.96524 24.3679 9.42858 25.0114 11.1448C25.348 11.9585 25.5292 12.8279 25.5456 13.7082V14.0696L42.4778 24.1173V23.4828C42.4484 22.8058 42.6259 22.136 42.9868 21.5623C43.6557 20.5958 44.9304 20.4151 46.3859 21.2555C48.5482 22.5162 50.2982 25.5167 50.2982 27.9792L50.3697 28.265L52.5782 29.5257C52.4202 29.6527 52.2215 29.7183 52.0188 29.7106C51.7622 29.6601 49.8228 28.5339 49.8228 28.5339L49.7219 28.4835V27.643C49.7219 25.5419 48.2285 22.9575 46.3859 21.8943C44.9009 21.0538 43.6389 21.4278 43.2098 22.7348C43.098 23.0836 43.044 23.4485 43.0499 23.8147V24.9494L42.7723 24.7981L24.9819 14.5235Z" fill="#AFB4B8"/>
<path d="M22.3986 4.26145C27.2742 7.32493 41.9011 16.6666 41.9011 16.6666C41.9011 16.6666 47.475 20.1419 48.3669 21.1127C49.2587 22.0834 50.5039 24.4241 50.7185 24.8065C51.1145 25.3218 51.5491 25.8064 52.0184 26.2563C52.0184 26.2563 51.5135 24.2896 51.299 23.655C50.3651 21.4572 43.3945 16.8011 42.5321 16.1413C42.0441 15.5488 38.3253 11.5482 36.1462 9.52272C34.6832 8.13874 33.0656 6.92752 31.3253 5.91295C29.1008 4.51677 26.7569 3.32005 24.321 2.3368C23.5176 2.08466 20.4635 1.88295 19.5001 1.74008C18.5368 1.5972 18.0235 1.49634 18.0235 1.49634C18.0235 1.49634 15.4995 0.706308 15.1966 0.626465C15.057 0.754646 14.9095 0.873948 14.7549 0.983663C17.4507 1.69372 20.0264 2.79827 22.3986 4.26145Z" fill="#E3E3E3"/>
<path d="M24.561 13.1325C24.561 14.9815 23.2569 15.7253 21.6457 14.8134C20.7964 14.2618 20.0896 13.5175 19.583 12.6412C19.0763 11.7648 18.7842 10.7812 18.7305 9.77068C18.7305 7.92587 20.0346 7.18207 21.6457 8.11078C22.4928 8.65981 23.1983 9.40069 23.7048 10.2733C24.2113 11.1458 24.5047 12.1254 24.561 13.1325Z" fill="url(#paint5_linear_69_5187)"/>
<path d="M23.9258 12.7543C23.9258 14.1873 22.9161 14.763 21.6667 14.0444C21.0106 13.6177 20.4643 13.0427 20.0718 12.366C19.6794 11.6893 19.4519 10.9298 19.4077 10.1489C19.4077 8.72013 20.4215 8.14021 21.6667 8.863C22.3232 9.28832 22.87 9.8624 23.2625 10.5386C23.655 11.2147 23.8823 11.9739 23.9258 12.7543Z" fill="#CBCAE8"/>
<path d="M49.3177 27.4119C49.3177 29.2567 48.0094 30.0005 46.3982 29.0718C45.5489 28.5202 44.842 27.7759 44.3354 26.8995C43.8288 26.0232 43.5367 25.0396 43.4829 24.029C43.4829 22.1842 44.787 21.4404 46.3982 22.3691C47.2486 22.92 47.9564 23.6641 48.4638 24.5405C48.9712 25.4169 49.2638 26.4009 49.3177 27.4119Z" fill="url(#paint6_linear_69_5187)"/>
<path d="M48.6614 27.0337C48.6614 28.4625 47.6476 29.0382 46.3982 28.3196C45.7419 27.8932 45.1953 27.3182 44.8028 26.6414C44.4104 25.9646 44.183 25.205 44.1392 24.4241C44.1392 22.9953 45.153 22.4196 46.3982 23.1382C47.0558 23.5637 47.6035 24.1383 47.9968 24.8152C48.3901 25.4922 48.6178 26.2523 48.6614 27.0337Z" fill="#CBCAE8"/>
<path d="M41.7248 23.4114L41.6365 23.3609C41.5019 23.2769 28.0445 15.2337 27.1779 14.721C26.5298 14.2852 26.0284 13.6642 25.7392 12.9392L25.7055 12.8678C25.533 12.5064 23.6021 7.95111 23.5096 7.7578L22.2476 4.55564L22.3485 4.18585L23.9429 4.39597L40.5301 14.8008L41.2074 16.1036L41.7122 17.4357C41.7122 17.4357 41.9268 19.2889 42.0109 20.0117C42.095 20.7345 41.7543 23.2054 41.7375 23.3105L41.7248 23.4114ZM22.3948 4.54724L23.6358 7.70736C23.6568 7.75359 25.6592 12.4518 25.8275 12.809L25.8612 12.8804C26.1417 13.5801 26.6251 14.18 27.2494 14.6033L41.6155 23.1886C41.7793 22.143 41.8664 21.0868 41.8763 20.0285C41.788 19.3057 41.5776 17.4651 41.5776 17.4651L41.0854 16.1624L40.4292 14.9017L23.884 4.52203L22.4495 4.34133L22.3948 4.54724Z" fill="#97772A"/>
<path d="M14.5408 1.48376L15.7271 1.76112L17.5191 2.50913L17.2078 2.92516L16.3328 3.51347L14.9278 2.99239L14.4019 2.60578L14.3052 1.82415L14.5408 1.48376Z" fill="#EF3D29"/>
<path d="M17.6495 8.48479C17.6495 8.48479 14.953 6.60217 14.7932 6.44248C14.6333 6.2828 14.4146 6.02225 14.4146 6.02225V5.50116L15.2559 6.19455L16.2866 7.03501L16.5179 7.41321L17.6495 8.48479Z" fill="#CFD3D6"/>
<path d="M52.4054 26.9413C52.0052 26.7941 51.6261 26.5949 51.278 26.3488C50.8733 26.01 50.6192 25.5251 50.5713 24.9998L52.0184 26.2605L52.4054 26.9413Z" fill="#E3E3E3"/>
<path d="M19.5004 1.74012L5.00392 10.1027L3.52736 9.85475L1.39453 8.55624L15.1548 0.618103L18.0238 1.49638L19.5004 1.74012Z" fill="#EAEAEA"/>
<path d="M19.5004 1.74011L24.3213 2.33684L11.5707 9.69085L5.00391 10.1027L19.5004 1.74011Z" fill="#E3E3E3"/>
<path d="M42.5325 16.1414L28.5325 24.214L23.396 16.8768L36.1467 9.52277L42.5325 16.1414Z" fill="#EAEAEA"/>
<path d="M23.396 16.8768L36.1467 9.52277L32.0661 6.57277L24.3215 2.33685L11.5708 9.69086L23.396 16.8768Z" fill="#EAEAEA"/>
<path d="M42.5323 16.1414L28.5322 24.214L37.5515 31.5848L51.2992 23.6551L50.2685 22.0246L42.5323 16.1414Z" fill="#EAEAEA"/>
<path d="M38.8431 37.4806L52.5908 29.5509L52.595 29.2861L52.4141 26.9749L38.414 35.6526L37.7451 36.1359L38.8431 37.4806Z" fill="#CFD3D6"/>
<path d="M38.843 37.4806C38.6849 37.6076 38.4862 37.6733 38.2835 37.6655C38.0269 37.6151 35.3388 36.9217 35.3388 36.9217L35.242 36.8671V36.0266C35.242 33.9255 33.7444 31.341 31.9061 30.2779C30.4169 29.4374 29.1549 29.8072 28.7258 31.1183C28.6159 31.4662 28.5619 31.8293 28.5659 32.1941V33.3287L28.2883 33.1775L10.4895 22.8944V21.7472C10.4825 21.2025 10.396 20.6617 10.2329 20.1419C9.73608 18.437 8.64149 16.9677 7.1493 16.0027C5.30674 14.9395 3.81335 15.7883 3.81335 17.9021V18.6291L0.986407 15.7211L0.418492 14.2545L0.418492 13.5905L0.536281 13.351V12.8551L0.342773 12.6114L0.342773 11.771L0.784478 11.1868C0.784478 11.1868 0.860207 9.99759 0.910688 9.70763C0.994692 9.39285 1.11025 9.08735 1.25563 8.79574C1.28718 8.71147 1.33923 8.63637 1.40708 8.57721H1.44915C2.16989 8.96358 2.86414 9.39737 3.52729 9.87572C3.52729 9.87572 4.04472 9.97657 5.00807 10.1237C5.97141 10.2707 10.7671 9.46389 11.5706 9.70342C14.0049 10.687 16.3474 11.8837 18.5707 13.2796C20.3118 14.2948 21.9307 15.5059 23.3958 16.8893C25.5791 18.9149 28.0443 23.634 28.5323 24.2266C29.3946 24.8863 36.6177 29.3996 37.5516 31.5974C37.7661 32.2319 38.2667 34.1986 38.2667 34.1986L38.6579 34.8836V35.329L38.4139 35.6652L38.5864 36.8671L38.843 37.4806Z" fill="#E3E3E3"/>
<path d="M38.843 37.4806C38.6849 37.6076 38.4862 37.6733 38.2835 37.6655C38.0269 37.6151 35.3388 36.9217 35.3388 36.9217L35.242 36.8671V36.0266C35.242 33.9255 33.7444 31.341 31.9061 30.2779C30.4169 29.4374 29.1549 29.8072 28.7258 31.1183C28.6159 31.4662 28.5619 31.8293 28.5659 32.1941V33.3287L28.2883 33.1774L10.4895 22.8944V21.7472C10.4825 21.2025 10.396 20.6617 10.2329 20.1419C9.73608 18.437 8.64149 16.9677 7.1493 16.0027C5.30674 14.9395 3.81335 15.7883 3.81335 17.9021V18.6291L0.986407 15.7211L0.418492 14.2545L0.418492 13.5905L0.536281 13.351V12.8551L0.342773 12.6114L0.342773 11.9685C0.342773 11.9685 0.994825 12.5652 1.09579 12.4769C1.19675 12.3887 2.89628 11.0398 3.1571 11.0902C3.41791 11.1406 10.4895 15.4354 13.2533 17.0785C16.0172 18.7216 26.6098 25.3906 30.4421 28.0044C34.8172 30.9754 34.8172 32.6269 35.7679 34.3583C35.8478 34.5096 38.4097 35.6694 38.4097 35.6694L38.5822 36.8713L38.843 37.4806Z" fill="#CFD3D6"/>
<path d="M28.7258 31.0889C28.6159 31.4368 28.562 31.7999 28.566 32.1647V33.2993L28.2883 33.148L10.4895 22.8944V21.7472C10.4825 21.2025 10.3961 20.6617 10.2329 20.1419C10.3255 19.81 10.3801 19.604 10.3801 19.604C10.4282 19.5706 10.4788 19.5411 10.5316 19.5158C11.254 19.1391 12.0959 19.0621 12.8748 19.3015C14.2335 19.7511 26.1765 27.4329 27.0599 28.0759C27.7036 28.5423 28.1369 28.4583 28.5029 29.9291C28.5786 30.2274 28.6543 30.6141 28.7258 31.0889Z" fill="#BEC3C7"/>
<path d="M6.34594 13.6998C4.83992 13.1115 3.31288 14.5403 3.2666 17.0617C4.65062 15.0236 5.73597 14.9605 7.60377 16.1834C10.0689 17.7929 10.9986 21.2514 10.9986 21.2514C10.9986 21.2514 11.3604 15.9439 6.34594 13.6998Z" fill="#E3E3E3"/>
<path d="M14.835 22.5288L12.0796 21.9027L13.0472 22.8818L27.043 31.2864C27.043 31.2864 25.6884 29.6643 24.8555 29.1853C24.0226 28.7062 14.835 22.5288 14.835 22.5288Z" fill="#E3E3E3"/>
<path d="M10.4894 22.8944V21.7472C10.4824 21.2025 10.396 20.6617 10.2328 20.1419C9.73605 18.437 8.64146 16.9677 7.14927 16.0027C5.30671 14.9395 3.81331 15.7884 3.81331 17.9021L3.81331 18.6291L1.64263 16.696L0.986372 15.7211L0.418457 14.2545L1.25981 15.553L3.27064 17.0574C3.50201 14.9563 5.15106 14.1873 7.15348 15.3429C8.69404 16.3376 9.87385 17.8004 10.5189 19.5158C10.8521 20.3303 11.0318 21.1994 11.0489 22.0792V22.4322L27.9811 32.4841V31.8453C27.9523 31.1698 28.1298 30.5014 28.4902 29.9291C29.1632 28.9583 30.4337 28.7776 31.8934 29.6181C34.0515 30.8788 35.8015 33.8792 35.8015 36.3418L35.873 36.6317C35.873 36.6317 37.6777 37.4722 38.7378 37.4386C38.8682 37.4386 38.5359 37.6655 38.2709 37.6655C37.1056 37.6655 35.3261 36.9217 35.3261 36.9217L35.2294 36.8671V36.0266C35.2294 33.9255 33.7318 31.341 31.8934 30.2779C30.4042 29.4374 29.1422 29.8072 28.7131 31.1183C28.6032 31.4662 28.5493 31.8293 28.5533 32.1941V33.3287L28.2756 33.1775L10.4894 22.8944Z" fill="#AFB4B8"/>
<path d="M7.90242 12.624C12.7823 15.6875 27.4049 25.025 27.4049 25.025C27.4049 25.025 32.9789 28.5045 33.8707 29.4752C34.8576 30.7016 35.7519 31.9994 36.5462 33.3581C36.7608 33.7406 38.2752 34.1986 38.2752 34.1986C38.2752 34.1986 37.7746 32.2319 37.5601 31.5974C36.6262 29.3996 29.4032 24.8737 28.5408 24.2266C28.0528 23.634 25.5961 18.9149 23.4043 16.8893C21.9393 15.5059 20.3203 14.2948 18.5792 13.2796C16.3559 11.8837 14.0134 10.687 11.5791 9.70342C10.7756 9.45549 5.97572 10.2581 5.01658 10.1237C4.05744 9.98918 3.53581 9.87572 3.53581 9.87572C2.87265 9.39737 2.17841 8.96358 1.45767 8.57721C1.33567 8.70328 1.27257 8.78312 1.26416 8.78732C1.26416 8.78732 4.12896 10.2539 7.90242 12.624Z" fill="#E3E3E3"/>
<path d="M10.0687 21.4951C10.0687 23.3399 8.76036 24.0837 7.14917 23.155C6.30005 22.6031 5.59342 21.8588 5.08682 20.9825C4.58022 20.1062 4.28797 19.1227 4.23389 18.1122C4.23389 16.2674 5.54219 15.5236 7.14917 16.4313C8.00185 16.9847 8.71103 17.7322 9.21853 18.6125C9.72602 19.4927 10.0174 20.4806 10.0687 21.4951Z" fill="#2D2C37"/>
<path d="M10.0687 21.4951C10.0687 23.3399 8.76036 24.0837 7.14917 23.155C6.30005 22.6031 5.59342 21.8588 5.08682 20.9825C4.58022 20.1062 4.28797 19.1227 4.23389 18.1122C4.23389 16.2674 5.54219 15.5236 7.14917 16.4313C8.00185 16.9847 8.71103 17.7322 9.21853 18.6125C9.72602 19.4927 10.0174 20.4806 10.0687 21.4951Z" fill="url(#paint7_linear_69_5187)"/>
<path d="M9.88348 21.4614C9.88348 23.239 8.62145 23.9534 7.08178 23.0583C6.26666 22.5299 5.58778 21.8169 5.10025 20.9772C4.61272 20.1375 4.33029 19.1949 4.27588 18.2257C4.27588 16.4481 5.5379 15.7337 7.08178 16.6288C7.89658 17.1572 8.57501 17.8703 9.06185 18.71C9.54869 19.5498 9.8302 20.4925 9.88348 21.4614Z" fill="url(#paint8_linear_69_5187)"/>
<path d="M9.48834 21.243C9.48834 22.7516 8.41983 23.3441 7.09891 22.6003C6.40519 22.1502 5.82735 21.5432 5.41223 20.8284C4.9971 20.1137 4.75635 19.3113 4.70947 18.4863C4.70947 16.9735 5.78219 16.3641 7.09891 17.1247C7.79341 17.575 8.37176 18.1827 8.78695 18.8982C9.20214 19.6138 9.44244 20.4172 9.48834 21.243Z" fill="#504F58"/>
<path d="M9.41692 21.0833C9.41692 22.5163 8.40308 23.0962 7.14947 22.3734C6.49226 21.9465 5.94492 21.371 5.55173 20.6935C5.15854 20.016 4.93055 19.2555 4.88623 18.4737C4.88623 17.0365 5.90006 16.4608 7.14947 17.1835C7.80839 17.609 8.35727 18.1841 8.75133 18.8618C9.14539 19.5395 9.37346 20.3007 9.41692 21.0833Z" fill="#BABABE"/>
<path d="M5.04991 18.9064C5.18015 19.8419 5.58239 20.7186 6.20677 21.4278C6.85882 22.1716 7.595 22.5498 8.18815 22.512C8.44221 22.5012 8.68272 22.3946 8.86123 22.2136C8.92484 22.1542 8.98003 22.0863 9.02529 22.0119L9.05054 21.9657C9.08537 21.9104 9.11359 21.8511 9.13467 21.7892C9.17024 21.7064 9.1984 21.6206 9.21881 21.5329C9.2568 21.3632 9.27515 21.1898 9.2735 21.016C9.2735 20.9319 9.2735 20.8479 9.2735 20.7639V20.6336V20.5453V20.4655C9.2735 20.3814 9.24404 20.3016 9.22301 20.2176L9.18936 20.0957C9.18345 20.0611 9.17357 20.0272 9.15991 19.9948C9.14773 19.9448 9.13228 19.8957 9.11364 19.8478C9.10436 19.8108 9.09312 19.7743 9.07998 19.7385C9.02109 19.583 8.95798 19.4275 8.88226 19.272L8.836 19.1796C8.78131 19.0745 8.72241 18.9737 8.66352 18.8686C8.64657 18.8444 8.63111 18.8191 8.61724 18.793L8.5247 18.6543C8.40833 18.4804 8.2819 18.3134 8.14608 18.1542C8.07457 18.0744 8.00306 17.9987 7.93154 17.9315L7.83057 17.8307L7.80114 17.8012L7.717 17.7298C7.42736 17.4647 7.08465 17.2642 6.71157 17.1415C6.46805 17.0391 6.19636 17.0251 5.94358 17.1018C5.6908 17.1786 5.47286 17.3413 5.32756 17.5617C5.31763 17.5747 5.30916 17.5888 5.30232 17.6037C5.24396 17.701 5.19869 17.8056 5.1677 17.9147C5.0615 18.2339 5.02143 18.5713 5.04991 18.9064Z" fill="url(#paint9_linear_69_5187)"/>
<path d="M7.84767 18.2173L7.8687 18.8518C8.10848 18.8518 8.34406 18.8098 8.56702 18.7804L8.47447 18.6417C8.3581 18.4678 8.23169 18.3009 8.09586 18.1417C8.02435 18.0618 7.95283 17.9862 7.88132 17.9189L7.78036 17.8181L7.75091 17.7887L7.66678 17.7172C7.37715 17.4522 7.03443 17.2516 6.66136 17.1289C6.41784 17.0265 6.14615 17.0125 5.89336 17.0893C5.64058 17.166 5.42265 17.3287 5.27734 17.5491C5.72212 17.3796 6.20875 17.3529 6.66946 17.4726C7.13017 17.5924 7.54203 17.8527 7.84767 18.2173Z" fill="#393843"/>
<path d="M5.18457 18.8939C5.47598 19.2848 5.85677 19.6003 6.29515 19.8142C6.85885 20.0033 7.95261 21.3228 7.95261 21.3228L7.86847 18.8519C6.5812 18.9485 5.18457 18.8939 5.18457 18.8939Z" fill="#393843"/>
<path d="M6.3165 18.4694C6.42996 19.2694 6.77504 20.0187 7.30929 20.6252C7.57619 20.9406 7.90379 21.1993 8.27264 21.3858C8.50002 21.5023 8.75345 21.5587 9.00882 21.5497H9.0593C9.11359 21.5464 9.16727 21.5366 9.21916 21.5203C9.25715 21.3507 9.2755 21.1772 9.27385 21.0034C9.27385 20.9194 9.27385 20.8353 9.27385 20.7513V20.621V20.5328V20.4529C9.27385 20.3689 9.24439 20.289 9.22336 20.205L9.18971 20.0831C9.1838 20.0485 9.17392 20.0146 9.16026 19.9823C9.14808 19.9323 9.13263 19.8831 9.11399 19.8352C9.10471 19.7982 9.09346 19.7617 9.08033 19.7259C9.02144 19.5704 8.95833 19.415 8.88261 19.2595L8.83634 19.167C8.78166 19.062 8.72276 18.9611 8.66387 18.8561L8.52505 18.6417C8.40868 18.4678 8.28225 18.3009 8.14643 18.1417C8.07492 18.0618 8.00341 17.9862 7.93189 17.9189L7.83092 17.8181L7.80149 17.7887L7.71735 17.7172C7.42771 17.4522 7.085 17.2516 6.71192 17.1289C6.6423 17.1929 6.584 17.2682 6.53946 17.3516C6.48847 17.4342 6.44885 17.5232 6.42167 17.6164C6.38123 17.7631 6.35724 17.914 6.35015 18.066C6.32651 18.1992 6.31525 18.3342 6.3165 18.4694Z" fill="url(#paint10_linear_69_5187)"/>
<path d="M7.94025 19.6545L7.88556 20.1503L7.94025 19.6502L8.32727 19.4275L8.60912 18.8518L8.4703 18.6375C8.35393 18.4636 8.22751 18.2966 8.09168 18.1374C8.02017 18.0576 7.94866 17.9819 7.87715 17.9147L7.77618 17.8138L7.74674 17.7844L7.60791 17.8685L8.08749 18.4274L7.94025 19.6545Z" fill="url(#paint11_linear_69_5187)"/>
<path d="M7.93994 19.6545L7.88525 20.1504L8.26807 21.3816L8.43634 21.9405C8.49523 22.0624 8.32276 22.3356 8.40269 22.3229C8.62177 22.24 8.82953 22.1299 9.02108 21.9952L9.04632 21.9489C9.08115 21.8936 9.10937 21.8343 9.13045 21.7724C9.12742 21.7417 9.11887 21.7118 9.10521 21.6842L9.05473 21.5455L8.36062 19.499L8.32697 19.4318L7.93994 19.6545Z" fill="url(#paint12_linear_69_5187)"/>
<path d="M5.60966 17.8139C5.62853 17.8019 5.65041 17.7956 5.67276 17.7956C5.6951 17.7956 5.717 17.8019 5.73587 17.8139L7.58684 18.5955L7.63732 18.6249V19.6209L7.21664 19.3856L5.68118 18.7846C5.6309 18.7503 5.58868 18.7055 5.55745 18.6532C5.52621 18.601 5.50672 18.5426 5.50029 18.4821C5.50029 18.2678 5.15534 18.2173 5.1974 18.0324C5.32723 17.9461 5.46532 17.8729 5.60966 17.8139Z" fill="url(#paint13_linear_69_5187)"/>
<path d="M7.56146 20.4403L8.36495 18.7888C8.38076 18.7388 8.38365 18.6856 8.37336 18.6342C8.36306 18.5828 8.3399 18.5348 8.30605 18.4947C8.23033 18.3938 8.1504 18.293 8.06206 18.1921C7.97372 18.0912 7.89378 18.0072 7.80544 17.9232C7.7171 17.8391 7.62877 17.8307 7.59091 17.9021L6.7832 19.5536L7.56146 20.4403Z" fill="#DFDFE3"/>
<path d="M7.25422 19.8562V18.8645L7.20374 18.835L5.35277 18.0492C5.26864 18.003 5.19291 18.024 5.17608 18.108C5.1345 18.3097 5.11896 18.5159 5.12982 18.7216C5.13682 18.7814 5.1566 18.8389 5.18781 18.8904C5.21901 18.9419 5.26092 18.9861 5.3107 19.0199L6.84617 19.6209L7.25422 19.8562Z" fill="#DFDFE3"/>
<path d="M8.71396 22.1674C8.76864 22.1254 8.76864 22.0162 8.71396 21.9111L7.96936 19.7217L7.93991 19.6545L7.25 19.8562L7.51924 20.3731L8.07032 22.1633C8.12922 22.2851 8.23859 22.365 8.31852 22.3482C8.46208 22.3179 8.59713 22.2561 8.71396 22.1674Z" fill="#DFDFE3"/>
<path d="M8.30178 22.1086C8.28915 22.0952 8.27917 22.0795 8.27234 22.0624L7.70442 20.2428L6.99769 19.4318L5.41595 18.8098C5.38459 18.7846 5.36362 18.7487 5.35704 18.709C5.34843 18.5873 5.34843 18.4651 5.35704 18.3434L7.27113 19.1586L7.6918 18.1669C7.7507 18.2257 7.80539 18.2887 7.86428 18.3518C7.92318 18.4148 8.01992 18.5367 8.09144 18.6375C8.10462 18.6553 8.11459 18.6752 8.12089 18.6964L7.70021 19.7091L8.5037 22.0204C8.44029 22.058 8.37246 22.0876 8.30178 22.1086Z" fill="#4B4A4B"/>
<path d="M34.8215 35.7703C34.8215 37.6151 33.5132 38.3589 31.902 37.4302C31.0533 36.8818 30.346 36.1414 29.8373 35.2689C29.3286 34.3964 29.0329 33.4164 28.9741 32.4085C28.9741 30.5595 30.2824 29.8156 31.8894 30.7275C32.7416 31.2775 33.4516 32.0211 33.9611 32.8975C34.4707 33.7739 34.7656 34.7583 34.8215 35.7703Z" fill="url(#paint14_linear_69_5187)"/>
<path d="M34.8215 35.7703C34.8215 37.6151 33.5132 38.3589 31.9062 37.4302C31.0563 36.8828 30.3477 36.1427 29.8382 35.27C29.3287 34.3974 29.0327 33.417 28.9741 32.4085C28.9741 30.5595 30.2824 29.8156 31.8936 30.7275C32.7446 31.2785 33.4533 32.0224 33.9621 32.8986C34.4709 33.7749 34.7654 34.7588 34.8215 35.7703Z" fill="#2D2C37"/>
<path d="M34.8215 35.7703C34.8215 37.6151 33.5132 38.3589 31.9062 37.4302C31.0563 36.8828 30.3477 36.1427 29.8382 35.27C29.3287 34.3974 29.0327 33.417 28.9741 32.4085C28.9741 30.5595 30.2824 29.8156 31.8936 30.7275C32.7446 31.2785 33.4533 32.0224 33.9621 32.8986C34.4709 33.7749 34.7654 34.7588 34.8215 35.7703Z" fill="url(#paint15_linear_69_5187)"/>
<path d="M34.6406 35.7367C34.6406 37.5142 33.3786 38.2286 31.8347 37.3335C31.0189 36.8058 30.3395 36.093 29.8519 35.2532C29.3642 34.4134 29.0822 33.4703 29.0288 32.5009C29.0288 30.7233 30.2908 30.0089 31.8347 30.904C32.6501 31.4322 33.3291 32.1451 33.8167 32.9849C34.3043 33.8246 34.5865 34.7674 34.6406 35.7367Z" fill="url(#paint16_linear_69_5187)"/>
<path d="M34.241 35.5013C34.241 37.0142 33.1725 37.6025 31.8515 36.8629C31.1585 36.4114 30.5815 35.8034 30.1672 35.088C29.7528 34.3726 29.5127 33.5698 29.4663 32.7446C29.4663 31.2318 30.5348 30.6225 31.8515 31.3831C32.546 31.8334 33.1244 32.441 33.5396 33.1566C33.9548 33.8722 34.1951 34.6755 34.241 35.5013Z" fill="#504F58"/>
<path d="M34.1694 35.3585C34.1694 36.7914 33.1555 37.3714 31.9019 36.6486C31.2447 36.2216 30.6974 35.6461 30.3042 34.9686C29.911 34.2911 29.683 33.5307 29.6387 32.7488C29.6387 31.3158 30.6525 30.7359 31.9019 31.4587C32.5608 31.8842 33.1097 32.4592 33.5038 33.137C33.8978 33.8147 34.1259 34.5759 34.1694 35.3585Z" fill="#BABABE"/>
<path d="M29.8155 33.1817C29.9448 34.1174 30.3472 34.9944 30.9724 35.703C31.6244 36.4469 32.3606 36.8251 32.9538 36.7872C33.2078 36.7764 33.4483 36.6698 33.6269 36.4889C33.6917 36.4305 33.747 36.3625 33.7909 36.2872L33.8162 36.2409C33.8501 36.1865 33.8782 36.1288 33.9003 36.0686C33.9352 35.9842 33.9634 35.897 33.9844 35.8081C34.0226 35.6385 34.041 35.465 34.0391 35.2912C34.0391 35.2072 34.0391 35.1231 34.0391 35.0391C34.0414 34.9957 34.0414 34.9522 34.0391 34.9088V34.8206V34.7407C34.0391 34.6609 34.0097 34.5768 33.9886 34.4928L33.955 34.3709C33.9491 34.3363 33.9392 34.3024 33.9255 34.2701C33.9134 34.2201 33.8979 34.1709 33.8793 34.123C33.87 34.0874 33.8587 34.0523 33.8456 34.0179C33.7884 33.8589 33.7224 33.7032 33.6479 33.5515L33.6016 33.4548C33.5469 33.3498 33.488 33.2489 33.4291 33.1438C33.4122 33.1196 33.3968 33.0943 33.3829 33.0682L33.2903 32.9337C33.175 32.7577 33.0485 32.5893 32.9117 32.4295C32.8402 32.3496 32.7687 32.274 32.6972 32.2067C32.6657 32.171 32.6319 32.1374 32.5962 32.1059L32.5668 32.0765L32.4826 32.005C32.193 31.74 31.8503 31.5394 31.4772 31.4167C31.2336 31.3152 30.9621 31.3016 30.7096 31.3783C30.457 31.455 30.239 31.6171 30.0932 31.8369C30.0833 31.85 30.0748 31.8641 30.0679 31.879C30.0103 31.9766 29.9651 32.0811 29.9333 32.1899C29.8271 32.5091 29.7871 32.8465 29.8155 33.1817Z" fill="url(#paint17_linear_69_5187)"/>
<path d="M32.6001 32.4925L32.6211 33.127C32.8609 33.127 33.0965 33.085 33.3195 33.0556L33.2269 32.9211C33.1116 32.7451 32.9851 32.5767 32.8483 32.4168C32.7768 32.337 32.7053 32.2613 32.6338 32.1941C32.6023 32.1584 32.5685 32.1247 32.5328 32.0932L32.5034 32.0638L32.4192 31.9924C32.1296 31.7273 31.7869 31.5268 31.4138 31.4041C31.1702 31.3025 30.8987 31.2889 30.6462 31.3656C30.3936 31.4423 30.1756 31.6045 30.0298 31.8243C30.4746 31.6548 30.9612 31.628 31.4219 31.7478C31.8826 31.8676 32.2945 32.1279 32.6001 32.4925Z" fill="#393843"/>
<path d="M29.9375 33.169C30.2289 33.5599 30.6097 33.8755 31.0481 34.0893C31.616 34.2784 32.7055 35.598 32.7055 35.598L32.6214 33.127C31.3341 33.2237 29.9375 33.169 29.9375 33.169Z" fill="#393843"/>
<path d="M31.0771 32.7446C31.1906 33.5445 31.5357 34.2938 32.0699 34.9004C32.3356 35.217 32.6635 35.4759 33.0333 35.661C33.2611 35.7767 33.514 35.8344 33.7695 35.8291H33.8242C33.877 35.8254 33.9293 35.8155 33.9798 35.7997C34.018 35.6301 34.0364 35.4566 34.0345 35.2828C34.0345 35.1987 34.0345 35.1147 34.0345 35.0306C34.0367 34.9872 34.0367 34.9438 34.0345 34.9004V34.8121V34.7323C34.0345 34.6524 34.0051 34.5684 33.984 34.4843L33.9504 34.3625C33.9444 34.3278 33.9346 34.294 33.9209 34.2616C33.9087 34.2116 33.8933 34.1625 33.8746 34.1145C33.8653 34.0789 33.8541 34.0439 33.841 34.0095C33.7838 33.8505 33.7178 33.6947 33.6433 33.543L33.597 33.4464C33.5423 33.3413 33.4834 33.2405 33.4245 33.1354L33.2857 32.9253C33.1704 32.7493 33.0439 32.5809 32.9071 32.421C32.8356 32.3412 32.7641 32.2655 32.6925 32.1983C32.661 32.1626 32.6273 32.1289 32.5916 32.0974L32.5621 32.068L32.478 31.9966C32.1884 31.7315 31.8457 31.531 31.4726 31.4083C31.404 31.4733 31.3459 31.5484 31.3001 31.631C31.2508 31.7144 31.2113 31.8033 31.1823 31.8957C31.1425 32.0426 31.1186 32.1934 31.1108 32.3454C31.0895 32.4774 31.0782 32.6109 31.0771 32.7446Z" fill="url(#paint18_linear_69_5187)"/>
<path d="M32.6969 33.9297L32.6422 34.4255L32.6969 33.9255L33.0839 33.7027L33.3658 33.127L33.2269 32.9169C33.1116 32.7409 32.9852 32.5725 32.8483 32.4126C32.7768 32.3328 32.7053 32.2571 32.6338 32.1899C32.6023 32.1542 32.5686 32.1205 32.5328 32.0891L32.5034 32.0596L32.3604 32.1479L32.8441 32.7026L32.6969 33.9297Z" fill="url(#paint19_linear_69_5187)"/>
<path d="M32.6968 33.9297L32.6421 34.4256L33.0249 35.6568L33.1974 36.2157C33.2521 36.3376 33.0796 36.636 33.1595 36.5981C33.3786 36.5152 33.5864 36.4051 33.7779 36.2704L33.8032 36.2241C33.8371 36.1697 33.8652 36.112 33.8873 36.0518C33.8843 36.0198 33.8758 35.9885 33.862 35.9594L33.8158 35.8207L33.1175 33.77L33.0838 33.7028L32.6968 33.9297Z" fill="url(#paint20_linear_69_5187)"/>
<path d="M30.3621 32.0891C30.3816 32.0791 30.4033 32.0739 30.4252 32.0739C30.4471 32.0739 30.4688 32.0791 30.4883 32.0891L32.3393 32.8749L32.3898 32.9043V33.8961L31.9691 33.6607L30.4336 33.0598C30.3833 33.0255 30.3411 32.9806 30.3099 32.9284C30.2787 32.8761 30.2592 32.8177 30.2527 32.7572C30.2527 32.5429 29.9078 32.4967 29.9498 32.3076C30.0797 32.2213 30.2178 32.1481 30.3621 32.0891Z" fill="url(#paint21_linear_69_5187)"/>
<path d="M32.3139 34.7197L33.1174 33.064C33.134 33.0141 33.1373 32.9607 33.127 32.9092C33.1167 32.8576 33.0931 32.8096 33.0585 32.7699C32.9828 32.669 32.9028 32.5682 32.8145 32.4715C32.7344 32.3756 32.6487 32.2844 32.5579 32.1984C32.4737 32.1143 32.3812 32.1101 32.3433 32.1774L31.5356 33.8205L32.3139 34.7197Z" fill="#DFDFE3"/>
<path d="M32.0072 34.1314V33.1396L31.9567 33.1102L30.1057 32.3244C30.0216 32.2781 29.9458 32.3034 29.929 32.3832C29.8874 32.5849 29.8719 32.7911 29.8827 32.9967C29.8898 33.0565 29.9095 33.1141 29.9407 33.1655C29.9719 33.217 30.0139 33.2612 30.0636 33.2951L31.5991 33.896L32.0072 34.1314Z" fill="#DFDFE3"/>
<path d="M33.4669 36.4427C33.5216 36.4006 33.5216 36.2956 33.4669 36.1863L32.7223 33.9969L32.6928 33.9297L32.0029 34.1314L32.2511 34.6525L32.8022 36.4427C32.8611 36.5645 32.9705 36.6444 33.0504 36.6276C33.2017 36.599 33.3443 36.5357 33.4669 36.4427Z" fill="#DFDFE3"/>
<path d="M33.0546 36.3838C33.042 36.3704 33.032 36.3547 33.0251 36.3376L32.4572 34.518L31.7505 33.707L30.1772 33.0892C30.1463 33.0618 30.1256 33.0248 30.1183 32.9842C30.1097 32.8625 30.1097 32.7403 30.1183 32.6186L32.0323 33.4338L32.453 32.4421C32.5119 32.5009 32.5666 32.5639 32.6255 32.627C32.6844 32.69 32.7812 32.8161 32.8527 32.9127C32.8658 32.9305 32.8758 32.9504 32.8821 32.9716L32.4614 33.9885L33.2649 36.2956C33.1989 36.3338 33.1282 36.3635 33.0546 36.3838Z" fill="#4B4A4B"/>
<path d="M27.2197 31.7193L27.1566 31.6815C27.0178 31.5974 13.1776 23.3441 12.3446 22.781C11.9098 22.2707 11.5834 21.6774 11.3855 21.0371C10.7671 16.8137 8.07479 14.8303 8.04534 14.8135L7.86865 13.8679L8.02431 12.7039L8.35244 12.4182L9.42937 12.7921L26.0124 23.1886L27.4511 24.3401L27.1524 24.8611L26.9421 25.6764C26.8544 26.4016 26.808 27.1311 26.8033 27.8616C26.8538 28.9836 27.224 31.6436 27.224 31.6647L27.2197 31.7193ZM8.09582 14.7672C8.28933 14.9101 10.8512 16.9146 11.4612 21.0287C11.6593 21.6438 11.975 22.2146 12.3909 22.7096C13.1944 23.2517 26.1344 30.9713 27.1398 31.5722C27.0809 31.152 26.7822 28.8533 26.7191 27.8322C26.7239 27.0961 26.7703 26.361 26.858 25.6302L27.0725 24.7897L27.346 24.3148L25.9535 23.2054L9.38309 12.809L8.34823 12.4518L8.07058 12.6997L7.92334 13.8301L8.09582 14.7672Z" fill="#AFB4B8"/>
<path d="M1.04124 9.27057L1.25578 9.82527L1.81949 10.422L2.71132 11.2877L2.08451 11.7331L1.62597 11.4432C1.34583 11.2695 1.1313 11.0079 1.016 10.6994L0.902411 10.3884L0.805664 9.61097L1.04124 9.27057Z" fill="#EF3D29"/>
<path d="M3.15717 16.8473L0.788762 14.515C0.633112 14.3596 0.410156 14.0948 0.410156 14.0948L0.410156 13.5737L0.750903 14.5529L1.78155 15.3933L2.01293 15.7715L3.15717 16.8473Z" fill="#CFD3D6"/>
<path d="M38.6495 34.871C38.0493 34.8517 37.4618 34.6935 36.9332 34.4087C36.5531 34.1459 36.2543 33.782 36.0708 33.3582L38.2583 34.1986L38.6495 34.871Z" fill="#E3E3E3"/>
<path d="M38.2711 34.186L52.0188 26.2563L51.2994 23.6551L37.5518 31.5848L38.2711 34.186Z" fill="#E3E3E3"/>
<path d="M38.414 35.6526L52.1617 27.7229L52.4057 27.3867V26.9413L52.0187 26.2563L38.271 34.186L38.658 34.871V35.3164L38.414 35.6526Z" fill="#EAEAEA"/>
<path d="M28.9741 24.0879C28.9741 24.0879 29.8954 24.9283 30.905 24.7771C31.9146 24.6258 34.384 23.6256 37.7368 21.7976C41.0896 19.9696 42.7849 18.1248 42.9826 17.6458C43.1803 17.1667 42.5241 16.6666 42.5241 16.6666L28.9741 24.0879Z" fill="#1E1E1E"/>
<path d="M35.877 9.67822C34.5037 10.7902 33.0467 11.7947 31.5188 12.6829C30.505 13.2922 29.529 13.8385 28.6414 14.3176C25.7513 15.864 23.7026 16.7003 23.7026 16.7003C23.7742 16.7717 24.7207 17.6584 26.6852 20.4823C27.9473 22.2935 28.6288 23.4491 28.9779 24.0753C29.0708 24.1939 29.2008 24.2782 29.3471 24.3148C29.4934 24.3513 29.6477 24.338 29.7856 24.277H29.8319L30.1558 24.1383L30.2315 24.1047H30.2736L30.3872 24.0543C32.1582 23.2895 34.1733 22.2809 35.7592 21.4236C36.6552 20.9446 37.4419 20.5159 37.9509 20.205C39.5243 19.2721 41.6318 17.8475 42.3512 16.9398C42.4147 16.86 42.4724 16.7758 42.5237 16.6877C40.4559 14.2156 38.2361 11.8746 35.877 9.67822Z" fill="#1E2329"/>
<path d="M29.2725 13.973C29.5543 14.4856 30.2653 14.3344 30.4714 14.2083C30.6775 14.0822 32.4317 13.0863 32.6968 12.8846C32.9618 12.6829 32.6968 12.166 32.6168 12.0105C32.2382 12.2458 31.8722 12.4728 31.5189 12.6829C30.7406 13.1535 29.9834 13.5821 29.2725 13.973Z" fill="#1E1E1E"/>
<path d="M42.2885 16.6457L41.9015 16.6667L33.6016 11.3718C34.3796 10.8534 35.1281 10.2922 35.8438 9.69086C36.235 10.0691 36.6851 10.5061 37.1394 11.0146C39.3985 13.4603 42.2885 16.6457 42.2885 16.6457Z" fill="#313942"/>
<path d="M42.3597 16.9188C41.6403 17.8265 39.5327 19.251 37.9594 20.1839C37.4293 20.4949 36.6637 20.9236 35.7677 21.4026C34.1691 22.2431 32.1667 23.2684 30.3956 24.0332L30.2821 24.0837H30.24L30.1643 24.1173L29.8403 24.256H29.7941C29.6562 24.317 29.5018 24.3303 29.3555 24.2937C29.2092 24.2572 29.0793 24.1729 28.9864 24.0543L28.9149 24.277C28.734 23.9408 28.5489 23.613 28.3638 23.2894C28.4605 23.197 28.6498 22.9995 28.9022 22.7179C29.2766 22.2977 33.9503 20.1293 34.085 20.0621L34.3121 19.9318C38.6156 17.4945 39.457 16.6204 39.9955 16.4145C40.08 16.3816 40.1698 16.3645 40.2605 16.3641C40.9121 16.3278 41.5646 16.4162 42.183 16.6246L42.3597 16.9188Z" fill="#272E36"/>
<path d="M34.4426 20.0327L34.1523 19.894C34.1523 19.894 34.1523 18.4694 34.2996 18.2803C35.787 17.3993 37.3204 16.5983 38.8934 15.8808C39.0532 15.9018 40.9967 17.0154 40.9967 17.0154L34.4426 20.0327Z" fill="#272E36"/>
<path d="M31.5991 13.8301L30.9218 14.2209C30.5399 14.4442 30.1705 14.6883 29.8154 14.9521C29.7532 15.0009 29.7059 15.0662 29.6792 15.1405C29.6524 15.2148 29.6471 15.2952 29.664 15.3724L29.7481 15.7674C29.75 15.7987 29.7596 15.829 29.7759 15.8558C29.7922 15.8826 29.8148 15.905 29.8417 15.9211C29.8686 15.9373 29.899 15.9466 29.9303 15.9484C29.9617 15.9501 29.993 15.9443 30.0215 15.9313C30.4176 15.7639 30.8026 15.5716 31.1742 15.3555L31.8515 14.9647C32.2366 14.7422 32.6088 14.4981 32.9663 14.2335C33.0285 14.1848 33.0757 14.1195 33.1025 14.0452C33.1293 13.9709 33.1346 13.8905 33.1177 13.8133L33.0336 13.4183C33.0309 13.3869 33.0208 13.3565 33.004 13.3298C32.9872 13.3031 32.9643 13.2808 32.9371 13.2647C32.9099 13.2487 32.8793 13.2394 32.8478 13.2376C32.8162 13.2358 32.7847 13.2415 32.7559 13.2544C32.3587 13.4222 31.9724 13.6145 31.5991 13.8301Z" fill="#272E36"/>
<path d="M31.7462 14.3344C31.7462 14.1411 31.6999 13.6074 31.6999 13.6074H31.0269C31.0269 13.6074 31.1026 14.3638 31.111 14.3932C31.1488 14.5151 31.3129 14.6495 31.3802 14.6411C31.5485 14.6369 31.7546 14.5403 31.7462 14.3344Z" fill="#272E36"/>
<path d="M31.6411 13.4435C31.666 13.476 31.6835 13.5136 31.6924 13.5536C31.7013 13.5936 31.7013 13.6351 31.6925 13.6751C31.6837 13.7151 31.6662 13.7527 31.6414 13.7853C31.6165 13.8179 31.5848 13.8446 31.5485 13.8637C31.4722 13.9056 31.3836 13.9193 31.2982 13.9024C31.2128 13.8855 31.1361 13.8391 31.0816 13.7713C31.0575 13.7382 31.0408 13.7004 31.0326 13.6603C31.0245 13.6203 31.025 13.579 31.0341 13.5391C31.0433 13.4993 31.0609 13.4619 31.0858 13.4295C31.1107 13.397 31.1422 13.3703 31.1783 13.351C31.2538 13.3086 31.342 13.2946 31.4269 13.3115C31.5118 13.3285 31.5878 13.3753 31.6411 13.4435Z" fill="#272E36"/>
<path d="M51.299 23.6551C51.421 24.0753 48.5394 26.3824 47.6349 27.0547C46.607 27.7817 45.5412 28.4536 44.442 29.0676C42.8855 29.9753 41.6529 30.5006 37.5513 31.589C37.2695 31.6646 36.71 30.7906 36.71 30.7906L49.0904 22.9743L51.299 23.6551Z" fill="#EAEAEA"/>
<path d="M39.1121 31.1604C37.8206 31.2907 37.0928 30.82 36.7773 30.4922C36.4618 30.1644 36.2852 30.8368 36.2852 30.8368C36.2852 30.8368 37.1055 32.2446 37.7828 32.2446C38.46 32.2446 39.1121 31.1604 39.1121 31.1604Z" fill="#E3E3E3"/>
<path d="M23.7028 16.7003C23.7028 16.7003 24.6451 17.5407 26.6938 20.4823C28.7424 23.4239 29.2851 24.651 29.2851 24.651L28.5321 24.7056L25.7725 20.1083L23.2021 16.8641L23.7028 16.7003Z" fill="#EAEAEA"/>
<path d="M23.9637 2.54273C20.5731 3.9547 20.0262 4.17322 17.8597 5.43391C15.6932 6.6946 13.2323 8.178 12.1427 9.36305C12.1427 9.36305 11.4823 9.31683 10.5273 9.30422C8.92143 9.25979 7.31534 9.38515 5.73584 9.67822C6.24976 9.11268 6.81287 8.59376 7.41854 8.12757C8.86804 6.96762 10.3959 5.90894 11.9913 4.95905C13.9258 3.83674 15.9473 2.87131 18.0364 2.07207C18.2227 1.99883 18.4157 1.94394 18.6127 1.90818C18.8148 1.86656 19.0225 1.85945 19.2269 1.88717C19.2269 1.88717 22.9036 2.13511 23.9637 2.54273Z" fill="#1E2329"/>
<path d="M1.35645 8.60665C1.59101 8.06935 1.9483 7.59441 2.39971 7.2199C3.89243 6.02816 5.46215 4.936 7.09867 3.95051C10.2537 1.99224 12.9881 0.710539 13.7201 0.550852C14.2186 0.463235 14.7306 0.489087 15.2177 0.62649L14.0272 2.99658L1.35645 8.60665Z" fill="#EAEAEA"/>
<g style="mix-blend-mode:screen">
<path d="M35.7676 21.4026C34.169 22.2431 30.3956 24.0333 30.3956 24.0333L30.282 24.0837H30.2399L30.1642 24.1173L29.8403 24.256H29.794C29.6561 24.317 29.5018 24.3303 29.3555 24.2937C29.2092 24.2572 29.0793 24.1729 28.9863 24.0543L28.9148 24.277C27.4418 21.5692 25.6954 19.0192 23.7026 16.6666C23.7026 16.6666 25.7513 15.8262 28.6414 14.2839C30.3565 15.6032 31.9451 17.079 33.3866 18.6921C34.4425 19.8436 35.2123 20.7303 35.7676 21.4026Z" fill="#0B0E0F"/>
</g>
<path d="M52.6032 29.3282C52.6074 29.3799 52.6074 29.4319 52.6032 29.4837C52.6052 29.5046 52.6052 29.5257 52.6032 29.5467C52.6032 30.4082 51.5726 31.3915 50.3779 32.1899C50.3779 32.0639 50.3779 31.9924 50.3779 31.9504V31.8916C50.4494 31.7949 50.1549 31.3495 50.0876 31.3705C50.0203 31.3915 48.0768 32.669 46.5665 33.5515C45.0563 34.434 43.1422 35.3963 42.8478 35.5602C42.7089 35.6316 42.5407 35.6358 42.4018 35.9174C42.263 36.1989 42.1536 36.4847 42.12 36.5603C42.1215 36.5672 42.1215 36.5744 42.12 36.5813C42.1069 36.6742 42.0769 36.7639 42.0316 36.8461C41.7312 36.9898 41.4221 37.1147 41.1062 37.2201C39.2173 37.7916 38.4307 37.6697 38.4307 37.6697L38.7756 37.4386L52.2793 28.3911C52.4389 28.6694 52.5526 28.9716 52.6159 29.2861C52.6159 29.2861 52.599 29.3156 52.6032 29.3282Z" fill="#CFD3D6"/>
<path d="M41.695 35.5854C40.7424 36.0252 39.707 36.2573 38.6577 36.2662C38.6072 37.0646 38.6577 37.1066 38.6577 37.1066C39.0997 37.1638 39.549 37.1178 39.9702 36.9721C40.9588 36.762 41.594 36.5183 41.695 35.5854Z" fill="#AFB4B8"/>
<path d="M52.2205 28.4078C52.1153 29.0172 51.215 29.7862 50.8911 30.0888C50.9189 30.4216 50.9189 30.7561 50.8911 31.0889C51.3707 30.7271 51.7824 30.2832 52.1069 29.7778C52.2313 29.3325 52.2699 28.8676 52.2205 28.4078Z" fill="#AFB4B8"/>
<path d="M41.0811 36.9764C41.4308 36.8591 41.7723 36.7187 42.1034 36.5562C42.1049 36.5631 42.1049 36.5702 42.1034 36.5772C42.0903 36.67 42.0603 36.7597 42.015 36.8419C41.7146 36.9856 41.4055 37.1105 41.0896 37.2159C39.2007 37.7874 38.4141 37.6656 38.4141 37.6656L38.759 37.4344C39.5489 37.3775 40.3289 37.2237 41.0811 36.9764Z" fill="#AFB4B8"/>
<path d="M52.6033 29.3282C52.6075 29.3799 52.6075 29.4319 52.6033 29.4836C52.6053 29.5046 52.6053 29.5257 52.6033 29.5467C52.6033 30.4081 51.5726 31.3915 50.3779 32.1899C50.3779 32.0639 50.3779 31.9924 50.3779 31.9504C51.5726 31.1562 52.6243 30.1686 52.6075 29.3072C52.6059 29.3002 52.6059 29.293 52.6075 29.2861C52.6075 29.2861 52.6033 29.3156 52.6033 29.3282Z" fill="#AFB4B8"/>
<path d="M38.4141 35.6526C39.599 35.441 40.7621 35.1217 41.8888 34.6987C43.1383 34.1956 44.3477 33.5986 45.5066 32.9127C47.7783 31.6731 52.2753 29.0508 52.4057 27.3867C52.4464 26.9811 52.4006 26.5714 52.2716 26.1847C52.1425 25.798 51.9331 25.4429 51.6569 25.1427L51.8336 26.5715L51.7158 27.2817L43.5379 32.4001L38.6034 34.871L38.4141 35.6526Z" fill="#E3E3E3"/>
<path d="M38.603 34.871C39.7894 34.6596 40.9539 34.3403 42.082 33.917C43.333 33.4175 44.5427 32.8203 45.6998 32.1311C47.9715 30.8956 52.2287 28.412 52.3549 26.7479C52.3207 26.2117 52.1208 25.6993 51.7828 25.2813L51.5346 27.3825L49.7341 28.5003L42.549 32.7362L39.2382 34.1776L38.603 34.871Z" fill="#EAEAEA"/>
<path d="M41.3123 30.488C41.3123 30.488 39.7095 29.1307 37.9469 27.8868C36.1843 26.6429 32.5454 24.4787 32.5454 24.4787L32.7684 24.3737C32.7684 24.3737 36.016 26.3529 37.7071 27.4161C38.9074 28.1996 40.0606 29.0527 41.1609 29.9711C41.2526 30.1286 41.3046 30.306 41.3123 30.488Z" fill="#E3E3E3"/>
<path d="M48.7922 25.9579C48.7922 25.9579 42.5031 19.5326 42.0361 19.1544C42.217 19.1544 48.056 24.941 48.2874 25.2099C48.4726 25.4474 48.6413 25.6973 48.7922 25.9579Z" fill="#E3E3E3"/>
<path d="M9.15988 9.31685C10.0223 8.63188 10.9646 7.89648 11.7218 7.388C14.327 5.66757 17.0708 4.16639 19.925 2.89995L18.6293 1.9082C18.4323 1.94396 18.2393 1.99885 18.053 2.07209C15.9523 2.86968 13.9195 3.83514 11.9742 4.95907C10.3788 5.90896 8.85095 6.96764 7.40145 8.12759C6.79578 8.59378 6.23267 9.1127 5.71875 9.67824L5.88702 9.64463C6.96676 9.4433 8.06162 9.33365 9.15988 9.31685Z" fill="#272E36"/>
<path d="M16.2992 25.1847L16.1646 24.7645L16.4632 23.6467C16.4632 23.5374 16.3917 21.7977 16.3917 21.2724C16.3917 20.7471 16.5894 19.1712 16.5894 19.1418L16.9638 17.5576H17.0311L16.6567 19.1418C16.6567 19.1418 16.459 20.7261 16.459 21.243C16.459 21.7599 16.5305 23.6005 16.5305 23.6215L16.2319 24.7351L16.3581 25.1259L16.2992 25.1847Z" fill="#AFB4B8"/>
<path d="M28.2883 24.7182L27.1862 24.5838C27.1862 24.5838 13.0304 15.5404 8.15479 12.4812C8.15479 12.4812 11.0995 10.4809 11.3183 10.38C11.537 10.2791 12.3237 10.38 14.5953 11.481C16.5462 12.4704 18.442 13.5646 20.2745 14.7588C21.7919 15.7627 23.1515 16.9863 24.3087 18.3896C25.8358 20.2722 28.2883 24.7182 28.2883 24.7182Z" fill="#1E1E1E"/>
<path d="M27.3292 24.1888C26.2228 23.4828 13.9349 15.6371 8.89941 12.4686C9.93848 11.7668 11.2342 10.9011 11.4739 10.7625H11.4992C11.7011 10.7625 12.391 10.8675 14.4145 11.8466C16.3488 12.8282 18.2291 13.9126 20.0473 15.095C21.5322 16.0759 22.8622 17.2727 23.9933 18.646C25.1165 20.0369 26.7823 22.8903 27.5353 24.214L27.3292 24.1888Z" fill="#1E2329"/>
<path d="M17.645 13.3846C17.645 13.3846 16.4292 15.8808 16.4292 17.5365L17.931 18.5072C17.931 18.5072 17.8258 15.1664 18.4737 13.9393C18.2111 13.7349 17.9341 13.5495 17.645 13.3846Z" fill="#1E1E1E"/>
<path d="M27.4177 24.5291C27.5442 24.5119 27.6659 24.469 27.7753 24.4031C27.8804 24.319 27.8005 24.0039 27.6238 23.8904C27.4471 23.7769 26.9423 24.0291 26.8624 23.987C26.7825 23.945 26.2734 24.1593 26.2734 24.1593L26.4375 24.5207L27.4177 24.5291Z" fill="#BEC3C7"/>
<path d="M26.4079 23.2138C26.8791 23.0962 27.3586 23.2474 27.4217 23.7811C27.5017 24.4283 27.2156 24.5333 27.0431 24.6216C26.532 24.8568 25.9778 24.9842 25.4151 24.9956C24.599 24.9956 24.498 24.5754 24.498 24.277C24.498 24.235 24.498 24.2392 24.498 24.2014C24.5233 23.7811 24.6705 23.6635 24.9482 23.5836C25.5497 23.3945 26.4079 23.2138 26.4079 23.2138Z" fill="#BEC3C7"/>
<path d="M27.2406 23.4828C26.7744 23.4422 26.3046 23.4907 25.8566 23.6257C25.3097 23.7433 24.8974 23.7349 24.8512 24.2686C24.8049 24.8023 24.9816 24.9326 25.2087 24.9704C25.6539 25.008 26.1022 24.9536 26.5254 24.8107C27.1775 24.6216 27.27 24.5123 27.3668 24.3358C27.4635 24.1593 27.5098 23.5668 27.2406 23.4828Z" fill="#E3E3E3"/>
<path d="M34.83 24.6048L37.1269 23.487C37.2194 23.445 37.211 23.3567 37.1269 23.2979C37.0731 23.2669 37.0132 23.2483 36.9514 23.2432C36.8895 23.2381 36.8274 23.2467 36.7693 23.2685L34.4429 24.3821C34.3504 24.4283 34.3588 24.5123 34.464 24.5754C34.5188 24.6076 34.5802 24.627 34.6436 24.6321C34.707 24.6372 34.7707 24.6278 34.83 24.6048Z" fill="#0C100F"/>
<path d="M40.2187 21.7472L42.0949 20.3521C42.1749 20.2932 42.158 20.205 42.0655 20.1503C42.018 20.1235 41.9644 20.1093 41.9098 20.1093C41.8553 20.1093 41.8016 20.1235 41.7542 20.1503L39.878 21.5497C39.8023 21.6085 39.8149 21.6968 39.9074 21.7514C39.9548 21.7789 40.0088 21.7931 40.0637 21.7923C40.1185 21.7916 40.1721 21.776 40.2187 21.7472Z" fill="#0C100F"/>
<path d="M17.435 19.2973C17.3577 19.3893 17.3021 19.4975 17.2722 19.6139C17.2424 19.7303 17.239 19.8518 17.2625 19.9697C17.334 20.163 18.6844 20.9866 18.819 21.016C18.9536 21.0455 19.0546 20.6799 19.0335 20.5622C18.5247 20.1111 17.991 19.6888 17.435 19.2973Z" fill="#AFB4B8"/>
<path d="M18.5455 19.8688L17.6158 19.2847C17.4938 19.2091 17.3929 19.2595 17.3887 19.4024V19.4486C17.3901 19.5253 17.4095 19.6006 17.4453 19.6684C17.4811 19.7363 17.5323 19.7948 17.5948 19.8394L18.8568 20.642C18.9999 20.7345 19.084 20.579 18.9914 20.3983C18.8924 20.1854 18.7385 20.0027 18.5455 19.8688Z" fill="#CFD3D6"/>
<path d="M18.9453 20.7051C18.9104 20.7036 18.8767 20.6919 18.8485 20.6714L17.5865 19.8688C17.5191 19.821 17.4638 19.7581 17.4251 19.6851C17.3864 19.6121 17.3653 19.5311 17.3635 19.4486V19.3981C17.3604 19.3652 17.3672 19.332 17.3829 19.3029C17.3986 19.2737 17.4226 19.2498 17.4519 19.2343C17.4805 19.2172 17.5132 19.2083 17.5465 19.2083C17.5798 19.2083 17.6125 19.2172 17.6412 19.2343L18.5582 19.8184C18.7585 19.9553 18.9195 20.1422 19.0252 20.3605C19.056 20.4033 19.0726 20.4548 19.0726 20.5076C19.0726 20.5603 19.056 20.6118 19.0252 20.6546C19.005 20.68 18.9769 20.6978 18.9453 20.7051ZM17.5234 19.2847H17.4855C17.468 19.2967 17.4541 19.3131 17.4452 19.3324C17.4363 19.3516 17.4328 19.3729 17.435 19.3939V19.4444C17.4375 19.5143 17.4557 19.5829 17.4885 19.6447C17.5213 19.7066 17.5678 19.7602 17.6243 19.8016L18.8864 20.6042C18.9074 20.6042 18.9495 20.642 18.9789 20.6042C19.0084 20.5664 19.0168 20.4907 18.9789 20.3899C18.8855 20.1855 18.7405 20.0089 18.5582 19.8772L17.6159 19.3141C17.5893 19.2941 17.5567 19.2838 17.5234 19.2847Z" fill="#AFB4B8"/>
<path d="M17.767 19.6587C17.767 19.7343 17.7081 19.7637 17.645 19.7217C17.6117 19.6976 17.5845 19.666 17.5655 19.6295C17.5465 19.5931 17.5363 19.5527 17.5356 19.5116C17.5356 19.436 17.5903 19.4065 17.6576 19.4486C17.691 19.4727 17.7182 19.5043 17.7372 19.5407C17.7561 19.5772 17.7664 19.6176 17.767 19.6587Z" fill="#0C100F"/>
<path d="M8.8486 13.8679C8.77124 13.9607 8.71559 14.0697 8.68575 14.1867C8.65591 14.3038 8.65263 14.426 8.67613 14.5445C8.74764 14.7378 10.098 15.5572 10.2326 15.5909C10.3672 15.6245 10.4682 15.2505 10.4472 15.137C9.93918 14.6836 9.40544 14.2599 8.8486 13.8679Z" fill="#AFB4B8"/>
<path d="M9.95918 14.4436L9.04211 13.8595C8.92432 13.7838 8.81915 13.8343 8.81494 13.9729V14.0234C8.81525 14.0998 8.83372 14.1751 8.86882 14.2431C8.90393 14.311 8.95467 14.3696 9.01687 14.4142L10.2789 15.2168C10.4219 15.3051 10.5019 15.1538 10.4093 14.9689C10.308 14.7574 10.1528 14.5762 9.95918 14.4436Z" fill="#CFD3D6"/>
<path d="M10.3589 15.2757C10.3247 15.2741 10.2914 15.264 10.2621 15.2463L9.00007 14.4437C8.93267 14.3958 8.87742 14.3329 8.83871 14.26C8.79999 14.187 8.77889 14.106 8.77711 14.0234V13.973C8.77396 13.9396 8.78089 13.906 8.79701 13.8766C8.81313 13.8471 8.83771 13.8232 8.86758 13.8078C8.89745 13.7924 8.93124 13.7863 8.9646 13.7903C8.99796 13.7943 9.02935 13.8082 9.05476 13.8301L9.97604 14.4142C10.175 14.5515 10.3346 14.7384 10.4388 14.9563C10.4977 15.074 10.4977 15.1917 10.4388 15.2463C10.4281 15.2563 10.4155 15.264 10.4018 15.2691C10.3881 15.2741 10.3735 15.2764 10.3589 15.2757ZM8.93697 13.8595C8.92465 13.8557 8.91143 13.8557 8.89911 13.8595C8.86966 13.8595 8.85284 13.9142 8.84863 13.9688V14.015C8.84687 14.0864 8.86332 14.157 8.89644 14.2202C8.92956 14.2834 8.97825 14.3372 9.03793 14.3764L10.3 15.1791C10.321 15.1791 10.3631 15.2127 10.3925 15.1791C10.422 15.1454 10.4346 15.0656 10.3925 14.9689C10.2916 14.7631 10.1395 14.5866 9.9508 14.4563L9.03373 13.8721C9.00343 13.8585 8.96976 13.8541 8.93697 13.8595Z" fill="#AFB4B8"/>
<path d="M9.20207 14.2336C9.20207 14.3092 9.14317 14.3344 9.08007 14.2966C9.04676 14.2725 9.01954 14.2409 9.00055 14.2044C8.98157 14.168 8.97135 14.1276 8.9707 14.0865C8.9707 14.0108 9.02959 13.9814 9.09269 14.0234C9.12649 14.0471 9.15409 14.0786 9.17313 14.1151C9.19217 14.1517 9.2021 14.1923 9.20207 14.2336Z" fill="#0C100F"/>
<path d="M3.21191 9.63617C3.21191 9.63617 3.27502 10.0018 4.84414 10.3506C6.41326 10.6993 12.0671 9.60675 12.0671 9.60675L5.52563 9.83787L3.21191 9.63617Z" fill="#E3E3E3"/>
<path d="M37.2612 35.1189C38.0765 35.4658 38.9814 35.5438 39.8441 35.3416L41.1398 34.9718L38.3171 35.9677L37.1182 35.4131L37.2612 35.1189Z" fill="#CFD3D6"/>
<path d="M48.9897 26.3782C46.2258 28.4289 41.3965 30.8242 41.3965 30.8242C41.3965 30.8242 40.614 33.438 42.2378 32.8749C43.8616 32.3118 49.2968 29.0466 49.7511 28.5087C49.8323 28.118 49.8042 27.7125 49.6699 27.3366C49.5356 26.9608 49.3002 26.6292 48.9897 26.3782Z" fill="#1E1E1E"/>
<path d="M41.6655 31.5722C41.6655 31.5722 46.4949 29.1769 49.2629 27.1262C49.4655 27.2994 49.6376 27.5054 49.7719 27.7355C49.6749 27.2067 49.3986 26.7274 48.9895 26.3782C46.2257 28.4289 41.3963 30.8242 41.3963 30.8242C41.3963 30.8242 40.9167 32.4211 41.4804 32.8497C41.4851 32.4176 41.5473 31.9879 41.6655 31.5722Z" fill="#9BA9C2"/>
<path d="M41.3967 30.8242C41.3967 30.8242 39.4027 31.631 38.2333 31.5848C37.6443 31.5517 37.0698 31.3896 36.5506 31.1099C36.5002 31.0813 36.4436 31.0654 36.3857 31.0635C36.3278 31.0616 36.2703 31.0738 36.2181 31.099C36.166 31.1242 36.1207 31.1617 36.0863 31.2083C36.0519 31.2548 36.0293 31.309 36.0205 31.3663C36.0205 31.5301 36.0205 32.0344 36.0205 32.0344C36.4661 32.4159 36.9948 32.6879 37.5644 32.8287C38.5124 33.0137 39.4926 32.9426 40.404 32.6227C40.8246 32.4673 41.5145 33.127 41.5145 33.127L42.2339 32.8623C42.1151 32.1277 41.8286 31.4304 41.3967 30.8242Z" fill="#9BA9C2"/>
<path d="M51.6902 24.9956C51.6061 25.8613 51.0718 26.2941 50.4787 26.8194C50.3758 27.2113 50.3333 27.6166 50.3525 28.0213L49.8897 28.3827L49.692 28.5297C49.5407 27.7846 49.2992 27.0607 48.9727 26.374C48.9727 26.374 49.6289 25.8235 50.445 25.0376C51.2611 24.2518 51.3537 23.9156 51.3537 23.9156L51.3074 23.7349C51.3453 23.8022 51.543 24.3821 51.6902 24.9956Z" fill="#9BA9C2"/>
<path d="M0.536246 13.3384C0.536246 13.3384 0.645619 13.662 1.7562 14.452L2.871 15.2421C2.871 15.2421 0.645622 13.9814 0.418457 13.5612L0.536246 13.3384Z" fill="#AFB4B8"/>
<path d="M41.3627 32.7867C41.0941 32.5034 40.7418 32.3134 40.3573 32.2446C40.2472 32.2525 40.1384 32.2737 40.0334 32.3076C39.5705 32.4483 39.0859 32.5038 38.6031 32.4715C38.2986 32.4743 37.9949 32.4404 37.6986 32.3706C37.1934 32.2535 36.7142 32.0441 36.2852 31.7529C36.2852 31.568 36.2852 31.3873 36.2852 31.299C36.2891 31.2775 36.3006 31.2581 36.3176 31.2443C36.3345 31.2304 36.3558 31.223 36.3777 31.2234C36.3942 31.2185 36.4117 31.2185 36.4282 31.2234C36.9851 31.527 37.6034 31.7008 38.2371 31.7319H38.3423C39.5622 31.7319 41.308 31.0049 41.388 30.9755C41.4679 30.9461 46.1921 28.5591 48.9601 26.5168L48.8928 26.542C49.4538 26.1292 49.9775 25.668 50.4577 25.1637C50.6922 24.9435 50.9115 24.7076 51.114 24.4577C51.1603 24.609 51.2107 24.7771 51.257 24.9494C51.1181 25.4199 50.8209 25.828 50.4156 26.105C50.2832 26.2059 50.1669 26.3264 50.0707 26.4622C49.9352 26.891 49.881 27.3414 49.9109 27.7901L49.6879 27.9624C49.6079 27.646 49.5096 27.3345 49.3934 27.0295V26.9707L49.3471 26.9287C49.3192 26.9004 49.2897 26.8737 49.2588 26.8488L49.0989 26.7227L48.9349 26.8446C46.4655 28.6726 42.549 30.6771 41.7455 31.0805L41.2365 31.3369L41.3417 31.568C41.4988 31.9183 41.6173 32.2847 41.695 32.6606L41.3627 32.7867Z" fill="#F9FFFF"/>
<path d="M23.9256 16.986L23.6563 16.7128C23.6563 16.7128 23.2062 15.8724 20.8504 14.2713C18.9195 12.9518 14.1953 9.82948 12.1172 9.39664C10.8888 9.1403 10.75 8.97641 10.75 8.87135C10.75 8.7663 10.9435 8.71586 10.9814 8.70746V8.7747C10.9057 8.7747 10.8047 8.83353 10.8047 8.87135C10.8047 8.90917 10.8972 9.07306 12.1172 9.3294C14.2206 9.74963 18.9406 12.893 20.8799 14.2167C23.1852 15.7925 23.6605 16.6036 23.7026 16.6792L23.9592 16.9398L23.9256 16.986Z" fill="#AFB4B8"/>
<path d="M35.9611 9.89677C35.3638 9.11934 33.6642 7.7704 31.8217 6.61057C30.139 5.53898 25.1203 2.67722 23.9635 2.57636C23.7388 2.54821 23.5126 2.53278 23.2862 2.53014V2.50073L23.2651 2.52594V2.48391C23.2651 2.4587 23.2651 2.4461 23.9887 2.50913C25.175 2.61419 30.1137 5.45073 31.8764 6.55594C33.7273 7.71577 35.4353 9.07732 36.0369 9.85474L35.9611 9.89677Z" fill="#AFB4B8"/>
<path d="M42.3135 25.7268L44.5431 26.2773L43.4703 26.9161L42.3135 25.7268Z" fill="#6FC2DE"/>
<path d="M45.1996 27.9834L43.8829 26.605L42.9658 27.1597L45.1996 27.9834Z" fill="#6FC2DE"/>
<defs>
<linearGradient id="paint0_linear_69_5187" x1="11.1164" y1="22.2683" x2="7.01297" y2="15.15" gradientUnits="userSpaceOnUse">
<stop stop-color="#181818"/>
<stop offset="0.27" stop-color="#262626"/>
<stop offset="0.77" stop-color="#2E2E2E"/>
</linearGradient>
<linearGradient id="paint1_linear_69_5187" x1="10.157" y1="22.823" x2="6.0493" y2="15.7048" gradientUnits="userSpaceOnUse">
<stop stop-color="#181818"/>
<stop offset="0.27" stop-color="#262626"/>
<stop offset="0.77" stop-color="#2E2E2E"/>
</linearGradient>
<linearGradient id="paint2_linear_69_5187" x1="5.70204" y1="22.3187" x2="8.59589" y2="17.3027" gradientUnits="userSpaceOnUse">
<stop stop-color="#161616"/>
<stop offset="0.3" stop-color="#1A1A1A"/>
<stop offset="0.79" stop-color="#1E1E1E"/>
<stop offset="0.8" stop-color="#1E1E1E"/>
</linearGradient>
<linearGradient id="paint3_linear_69_5187" x1="35.8689" y1="36.5435" x2="31.7654" y2="29.4253" gradientUnits="userSpaceOnUse">
<stop stop-color="#181818"/>
<stop offset="0.27" stop-color="#262626"/>
<stop offset="0.77" stop-color="#2E2E2E"/>
</linearGradient>
<linearGradient id="paint4_linear_69_5187" x1="34.9099" y1="37.0982" x2="30.8022" y2="29.9799" gradientUnits="userSpaceOnUse">
<stop stop-color="#181818"/>
<stop offset="0.27" stop-color="#262626"/>
<stop offset="0.77" stop-color="#2E2E2E"/>
</linearGradient>
<linearGradient id="paint5_linear_69_5187" x1="20.1986" y1="13.9604" x2="23.0925" y2="8.94437" gradientUnits="userSpaceOnUse">
<stop stop-color="#161616"/>
<stop offset="0.3" stop-color="#1A1A1A"/>
<stop offset="0.79" stop-color="#1E1E1E"/>
<stop offset="0.8" stop-color="#1E1E1E"/>
</linearGradient>
<linearGradient id="paint6_linear_69_5187" x1="44.9511" y1="28.2355" x2="47.8449" y2="23.2195" gradientUnits="userSpaceOnUse">
<stop stop-color="#161616"/>
<stop offset="0.3" stop-color="#1A1A1A"/>
<stop offset="0.79" stop-color="#1E1E1E"/>
<stop offset="0.8" stop-color="#1E1E1E"/>
</linearGradient>
<linearGradient id="paint7_linear_69_5187" x1="5.70204" y1="22.3187" x2="8.59589" y2="17.3027" gradientUnits="userSpaceOnUse">
<stop stop-color="#141414"/>
<stop offset="0.44" stop-color="#1E1E1E"/>
<stop offset="0.78" stop-color="#202020"/>
<stop offset="0.98" stop-color="#292929"/>
<stop offset="1" stop-color="#2A2A2A"/>
</linearGradient>
<linearGradient id="paint8_linear_69_5187" x1="5.68514" y1="22.2557" x2="8.46979" y2="17.4289" gradientUnits="userSpaceOnUse">
<stop stop-color="#161616"/>
<stop offset="0.3" stop-color="#1A1A1A"/>
<stop offset="0.79" stop-color="#1E1E1E"/>
<stop offset="0.8" stop-color="#1E1E1E"/>
</linearGradient>
<linearGradient id="paint9_linear_69_5187" x1="8.64669" y1="22.3649" x2="5.66045" y2="17.1892" gradientUnits="userSpaceOnUse">
<stop offset="0.27" stop-color="#ECEEF7"/>
<stop offset="0.77" stop-color="#9C9AA8"/>
</linearGradient>
<linearGradient id="paint10_linear_69_5187" x1="7.10737" y1="20.7219" x2="8.58159" y2="18.1697" gradientUnits="userSpaceOnUse">
<stop offset="0.26" stop-color="#393843"/>
<stop offset="0.78" stop-color="#23222E"/>
</linearGradient>
<linearGradient id="paint11_linear_69_5187" x1="7.33868" y1="18.835" x2="8.52059" y2="19.1718" gradientUnits="userSpaceOnUse">
<stop stop-color="#ADAEB8"/>
<stop offset="0.08" stop-color="#BABCC5"/>
<stop offset="0.2" stop-color="#C9CBD4"/>
<stop offset="0.34" stop-color="#D2D4DC"/>
<stop offset="0.55" stop-color="#D5D7DF"/>
<stop offset="0.66" stop-color="#C0C1CA"/>
<stop offset="1" stop-color="#868490"/>
</linearGradient>
<linearGradient id="paint12_linear_69_5187" x1="7.88525" y1="21.0749" x2="8.84411" y2="20.6875" gradientUnits="userSpaceOnUse">
<stop stop-color="#ADAEB8"/>
<stop offset="0.08" stop-color="#BABCC5"/>
<stop offset="0.2" stop-color="#C9CBD4"/>
<stop offset="0.34" stop-color="#D2D4DC"/>
<stop offset="0.55" stop-color="#D5D7DF"/>
<stop offset="0.66" stop-color="#C0C1CA"/>
<stop offset="1" stop-color="#868490"/>
</linearGradient>
<linearGradient id="paint13_linear_69_5187" x1="6.26171" y1="19.1208" x2="6.81612" y2="18.1622" gradientUnits="userSpaceOnUse">
<stop stop-color="#ADAEB8"/>
<stop offset="0.08" stop-color="#BABCC5"/>
<stop offset="0.2" stop-color="#C9CBD4"/>
<stop offset="0.34" stop-color="#D2D4DC"/>
<stop offset="0.55" stop-color="#D5D7DF"/>
<stop offset="0.66" stop-color="#C0C1CA"/>
<stop offset="1" stop-color="#868490"/>
</linearGradient>
<linearGradient id="paint14_linear_69_5187" x1="30.4549" y1="36.5939" x2="33.3487" y2="31.578" gradientUnits="userSpaceOnUse">
<stop stop-color="#161616"/>
<stop offset="0.3" stop-color="#1A1A1A"/>
<stop offset="0.79" stop-color="#1E1E1E"/>
<stop offset="0.8" stop-color="#1E1E1E"/>
</linearGradient>
<linearGradient id="paint15_linear_69_5187" x1="30.4549" y1="36.5939" x2="33.3487" y2="31.578" gradientUnits="userSpaceOnUse">
<stop stop-color="#141414"/>
<stop offset="0.44" stop-color="#1E1E1E"/>
<stop offset="0.78" stop-color="#202020"/>
<stop offset="0.98" stop-color="#292929"/>
<stop offset="1" stop-color="#2A2A2A"/>
</linearGradient>
<linearGradient id="paint16_linear_69_5187" x1="30.4381" y1="36.5309" x2="33.2227" y2="31.7041" gradientUnits="userSpaceOnUse">
<stop stop-color="#161616"/>
<stop offset="0.3" stop-color="#1A1A1A"/>
<stop offset="0.79" stop-color="#1E1E1E"/>
<stop offset="0.8" stop-color="#1E1E1E"/>
</linearGradient>
<linearGradient id="paint17_linear_69_5187" x1="33.3997" y1="36.6444" x2="30.4135" y2="31.4644" gradientUnits="userSpaceOnUse">
<stop offset="0.27" stop-color="#ECEEF7"/>
<stop offset="0.77" stop-color="#9C9AA8"/>
</linearGradient>
<linearGradient id="paint18_linear_69_5187" x1="31.8596" y1="35.0012" x2="33.3338" y2="32.4449" gradientUnits="userSpaceOnUse">
<stop offset="0.26" stop-color="#393843"/>
<stop offset="0.78" stop-color="#23222E"/>
</linearGradient>
<linearGradient id="paint19_linear_69_5187" x1="32.0869" y1="33.1102" x2="33.273" y2="33.4471" gradientUnits="userSpaceOnUse">
<stop stop-color="#ADAEB8"/>
<stop offset="0.08" stop-color="#BABCC5"/>
<stop offset="0.2" stop-color="#C9CBD4"/>
<stop offset="0.34" stop-color="#D2D4DC"/>
<stop offset="0.55" stop-color="#D5D7DF"/>
<stop offset="0.66" stop-color="#C0C1CA"/>
<stop offset="1" stop-color="#868490"/>
</linearGradient>
<linearGradient id="paint20_linear_69_5187" x1="32.6379" y1="35.3543" x2="33.5967" y2="34.9669" gradientUnits="userSpaceOnUse">
<stop stop-color="#ADAEB8"/>
<stop offset="0.08" stop-color="#BABCC5"/>
<stop offset="0.2" stop-color="#C9CBD4"/>
<stop offset="0.34" stop-color="#D2D4DC"/>
<stop offset="0.55" stop-color="#D5D7DF"/>
<stop offset="0.66" stop-color="#C0C1CA"/>
<stop offset="1" stop-color="#868490"/>
</linearGradient>
<linearGradient id="paint21_linear_69_5187" x1="31.0142" y1="33.4002" x2="31.5686" y2="32.4416" gradientUnits="userSpaceOnUse">
<stop stop-color="#ADAEB8"/>
<stop offset="0.08" stop-color="#BABCC5"/>
<stop offset="0.2" stop-color="#C9CBD4"/>
<stop offset="0.34" stop-color="#D2D4DC"/>
<stop offset="0.55" stop-color="#D5D7DF"/>
<stop offset="0.66" stop-color="#C0C1CA"/>
<stop offset="1" stop-color="#868490"/>
</linearGradient>
</defs>
</svg>
