<svg width="186" height="71" viewBox="0 0 186 71" fill="none" xmlns="http://www.w3.org/2000/svg">
<rect x="0.587737" y="0.814422" width="184.558" height="69.2022" rx="10.7271" fill="white" stroke="#090909" stroke-width="0.775453"/>
<g filter="url(#filter0_ii_528_12351)">
<path d="M19.3182 18.5306C18.9211 18.9521 18.6864 19.6062 18.6864 20.4534V50.7199C18.6864 51.5684 18.9211 52.2212 19.3182 52.6427L19.4192 52.7412L36.3257 35.7864V35.5866V35.3868L19.4192 18.4307L19.3182 18.5306Z" fill="url(#paint0_linear_528_12351)"/>
<path d="M41.9599 41.4385L36.3253 35.7851V35.5853V35.3854L41.9613 29.7334L42.0882 29.8059L48.7654 33.6105C50.6718 34.6971 50.6718 36.4748 48.7654 37.5628L42.0882 41.3673L41.9599 41.4385Z" fill="url(#paint1_linear_528_12351)"/>
<g filter="url(#filter1_i_528_12351)">
<path d="M42.0886 41.3666L36.3244 35.5859L19.3182 52.642C19.946 53.3098 20.9845 53.3919 22.154 52.7268L42.0886 41.3666Z" fill="url(#paint2_linear_528_12351)"/>
</g>
<path d="M42.0886 29.8051L22.1539 18.4463C20.9844 17.7798 19.946 17.8633 19.3182 18.5311L36.3257 35.5872L42.0886 29.8051Z" fill="url(#paint3_linear_528_12351)"/>
</g>
<path d="M93.0751 37.2414C90.0437 37.2414 87.5729 39.5436 87.5729 42.7144C87.5729 45.8659 90.0437 48.1874 93.0751 48.1874C96.1078 48.1874 98.5785 45.8659 98.5785 42.7144C98.5772 39.5436 96.1065 37.2414 93.0751 37.2414ZM93.0751 46.0332C91.4137 46.0332 89.9818 44.6653 89.9818 42.7157C89.9818 40.7455 91.415 39.3981 93.0751 39.3981C94.7364 39.3981 96.1683 40.7455 96.1683 42.7157C96.1683 44.664 94.7364 46.0332 93.0751 46.0332ZM81.0707 37.2414C78.0393 37.2414 75.5685 39.5436 75.5685 42.7144C75.5685 45.8659 78.0393 48.1874 81.0707 48.1874C84.1033 48.1874 86.5741 45.8659 86.5741 42.7144C86.5741 39.5436 84.1033 37.2414 81.0707 37.2414ZM81.0707 46.0332C79.4093 46.0332 77.9774 44.6653 77.9774 42.7157C77.9774 40.7455 79.4106 39.3981 81.0707 39.3981C82.732 39.3981 84.1639 40.7455 84.1639 42.7157C84.1652 44.664 82.732 46.0332 81.0707 46.0332ZM66.7927 38.922V41.2435H72.358C72.1917 42.5497 71.7561 43.5032 71.091 44.166C70.2816 44.9741 69.0147 45.8659 66.7927 45.8659C63.3669 45.8659 60.6886 43.1082 60.6886 39.6877C60.6886 36.2672 63.3669 33.5095 66.7927 33.5095C68.6409 33.5095 69.9903 34.2353 70.9866 35.1682L72.6273 33.5301C71.2354 32.2033 69.3884 31.188 66.7927 31.188C62.0999 31.188 58.1548 35.0022 58.1548 39.6877C58.1548 44.3731 62.0999 48.1874 66.7927 48.1874C69.3253 48.1874 71.2367 47.3574 72.7305 45.8028C74.2668 44.2689 74.7449 42.1121 74.7449 40.371C74.7449 39.8331 74.7037 39.3351 74.6199 38.9207L66.7927 38.922ZM125.188 40.7249C124.732 39.5024 123.34 37.2414 120.496 37.2414C117.672 37.2414 115.325 39.4599 115.325 42.7144C115.325 45.7823 117.651 48.1874 120.765 48.1874C123.277 48.1874 124.731 46.6535 125.334 45.7617L123.465 44.5173C122.843 45.4297 121.991 46.0306 120.765 46.0306C119.54 46.0306 118.668 45.4708 118.107 44.3719L125.437 41.3452L125.188 40.7249ZM117.713 42.5497C117.651 40.4341 119.354 39.357 120.579 39.357C121.534 39.357 122.344 39.8344 122.614 40.5177L117.713 42.5497ZM111.754 47.8567H114.162V31.7696H111.754V47.8567ZM107.808 38.4652H107.726C107.185 37.8217 106.147 37.2414 104.84 37.2414C102.098 37.2414 99.5864 39.6465 99.5864 42.7363C99.5864 45.8041 102.098 48.1887 104.84 48.1887C106.148 48.1887 107.185 47.6083 107.726 46.9456H107.808V47.7331C107.808 49.8269 106.687 50.9464 104.881 50.9464C103.407 50.9464 102.493 49.8899 102.119 48.9981L100.022 49.8693C100.624 51.3196 102.222 53.1032 104.881 53.1032C107.705 53.1032 110.093 51.4444 110.093 47.4011V37.5747H107.809L107.808 38.4652ZM105.047 46.0332C103.386 46.0332 101.995 44.6434 101.995 42.7363C101.995 40.8073 103.386 39.3981 105.047 39.3981C106.687 39.3981 107.974 40.8073 107.974 42.7363C107.974 44.6434 106.687 46.0332 105.047 46.0332ZM136.471 31.7696H130.708V47.8567H133.112V41.7621H136.47C139.135 41.7621 141.757 39.8357 141.757 36.7665C141.757 33.6974 139.136 31.7696 136.471 31.7696ZM136.533 39.523H133.112V34.0088H136.533C138.331 34.0088 139.352 35.4951 139.352 36.7665C139.352 38.0122 138.331 39.523 136.533 39.523ZM151.396 37.2131C149.655 37.2131 147.852 37.9787 147.105 39.6761L149.24 40.5653C149.696 39.6761 150.547 39.3853 151.437 39.3853C152.681 39.3853 153.945 40.1304 153.966 41.4546V41.6206C153.53 41.3722 152.597 41.0003 151.458 41.0003C149.157 41.0003 146.814 42.2627 146.814 44.6215C146.814 46.7744 148.701 48.1604 150.815 48.1604C152.431 48.1604 153.323 47.4359 153.882 46.5865H153.965V47.8284H156.287V41.6604C156.288 38.8062 154.151 37.2131 151.396 37.2131ZM151.105 46.0293C150.318 46.0293 149.219 45.6356 149.219 44.6627C149.219 43.4209 150.588 42.9447 151.77 42.9447C152.825 42.9447 153.324 43.1725 153.966 43.4826C153.779 44.9741 152.494 46.0293 151.105 46.0293ZM164.745 37.5644L161.988 44.5392H161.905L159.044 37.5644H156.453L160.744 47.3123L158.298 52.7352H160.806L167.419 37.5644H164.745ZM143.084 47.8567H145.488V31.7696H143.084V47.8567Z" fill="#090909"/>
<path d="M66.4925 22.2543C66.4925 23.3131 66.1732 24.1559 65.5332 24.7852C64.8069 25.5332 63.8592 25.9072 62.6951 25.9072C61.5799 25.9072 60.6309 25.5281 59.8518 24.77C59.0715 24.0106 58.6813 23.0705 58.6813 21.9485C58.6813 20.8252 59.0715 19.8851 59.8518 19.127C60.6309 18.3676 61.5799 17.9886 62.6951 17.9886C63.2488 17.9886 63.778 18.0947 64.2802 18.3057C64.7837 18.518 65.1868 18.7997 65.4881 19.1523L64.8095 19.8194C64.2983 19.2192 63.5939 18.9198 62.6938 18.9198C61.88 18.9198 61.1769 19.2003 60.5832 19.7613C59.9896 20.3223 59.6934 21.0514 59.6934 21.9472C59.6934 22.8431 59.9896 23.5722 60.5832 24.1332C61.1769 24.6942 61.88 24.9747 62.6938 24.9747C63.5566 24.9747 64.2764 24.6929 64.852 24.1281C65.2254 23.7604 65.4418 23.2487 65.4997 22.5929H62.6938V21.6819H66.4372C66.4758 21.8803 66.4925 22.0711 66.4925 22.2543Z" fill="#090909"/>
<path d="M72.429 19.0879H68.911V21.4912H72.0839V22.4022H68.911V24.8054H72.429V25.7379H67.9181V18.1567H72.429V19.0879Z" fill="#090909"/>
<path d="M76.6151 25.7379H75.6223V19.0879H73.4641V18.1567H78.7733V19.0879H76.6151V25.7379Z" fill="#090909"/>
<path d="M82.6145 25.7379V18.1567H83.6073V25.7379H82.6145Z" fill="#090909"/>
<path d="M88.0102 25.7379H87.0174V19.0879H84.8592V18.1567H90.1684V19.0879H88.0102V25.7379Z" fill="#090909"/>
<path d="M100.219 24.7587C99.4589 25.5244 98.515 25.9072 97.3857 25.9072C96.2564 25.9072 95.3125 25.5244 94.554 24.7587C93.7943 23.993 93.4157 23.0554 93.4157 21.9473C93.4157 20.8392 93.7943 19.9016 94.554 19.1359C95.3125 18.3702 96.2564 17.9861 97.3857 17.9861C98.5085 17.9861 99.4512 18.3715 100.213 19.141C100.976 19.9105 101.357 20.8455 101.357 21.9473C101.357 23.0554 100.977 23.993 100.219 24.7587ZM95.2867 24.1231C95.8585 24.6917 96.5577 24.9747 97.3857 24.9747C98.2137 24.9747 98.9142 24.6905 99.4846 24.1231C100.056 23.5545 100.344 22.8292 100.344 21.9473C100.344 21.0653 100.056 20.3401 99.4846 19.7715C98.9142 19.2029 98.2137 18.9198 97.3857 18.9198C96.5577 18.9198 95.8585 19.2041 95.2867 19.7715C94.7163 20.3401 94.4291 21.0653 94.4291 21.9473C94.4291 22.8292 94.7163 23.5545 95.2867 24.1231Z" fill="#090909"/>
<path d="M102.75 25.7379V18.1567H103.958L107.713 24.0536H107.756L107.713 22.593V18.1567H108.706V25.7379H107.669L103.741 19.5542H103.698L103.741 21.0148V25.7379H102.75Z" fill="#090909"/>
<path d="M66.4925 22.2543C66.4925 23.3131 66.1732 24.1559 65.5332 24.7852C64.8069 25.5332 63.8592 25.9072 62.6951 25.9072C61.5799 25.9072 60.6309 25.5281 59.8518 24.77C59.0715 24.0106 58.6813 23.0705 58.6813 21.9485C58.6813 20.8252 59.0715 19.8851 59.8518 19.127C60.6309 18.3676 61.5799 17.9886 62.6951 17.9886C63.2488 17.9886 63.778 18.0947 64.2802 18.3057C64.7837 18.518 65.1868 18.7997 65.4881 19.1523L64.8095 19.8194C64.2983 19.2192 63.5939 18.9198 62.6938 18.9198C61.88 18.9198 61.1769 19.2003 60.5832 19.7613C59.9896 20.3223 59.6934 21.0514 59.6934 21.9472C59.6934 22.8431 59.9896 23.5722 60.5832 24.1332C61.1769 24.6942 61.88 24.9747 62.6938 24.9747C63.5566 24.9747 64.2764 24.6929 64.852 24.1281C65.2254 23.7604 65.4418 23.2487 65.4997 22.5929H62.6938V21.6819H66.4372C66.4758 21.8803 66.4925 22.0711 66.4925 22.2543Z" stroke="white" stroke-width="0.052863" stroke-miterlimit="10"/>
<path d="M72.429 19.0879H68.911V21.4912H72.0839V22.4022H68.911V24.8054H72.429V25.7379H67.9181V18.1567H72.429V19.0879Z" stroke="white" stroke-width="0.052863" stroke-miterlimit="10"/>
<path d="M76.6151 25.7379H75.6223V19.0879H73.4641V18.1567H78.7733V19.0879H76.6151V25.7379Z" stroke="white" stroke-width="0.052863" stroke-miterlimit="10"/>
<path d="M82.6145 25.7379V18.1567H83.6073V25.7379H82.6145Z" stroke="white" stroke-width="0.052863" stroke-miterlimit="10"/>
<path d="M88.0102 25.7379H87.0174V19.0879H84.8592V18.1567H90.1684V19.0879H88.0102V25.7379Z" stroke="white" stroke-width="0.052863" stroke-miterlimit="10"/>
<path d="M100.219 24.7587C99.4589 25.5244 98.515 25.9072 97.3857 25.9072C96.2564 25.9072 95.3125 25.5244 94.554 24.7587C93.7943 23.993 93.4157 23.0554 93.4157 21.9473C93.4157 20.8392 93.7943 19.9016 94.554 19.1359C95.3125 18.3702 96.2564 17.9861 97.3857 17.9861C98.5085 17.9861 99.4512 18.3715 100.213 19.141C100.976 19.9105 101.357 20.8455 101.357 21.9473C101.357 23.0554 100.977 23.993 100.219 24.7587ZM95.2867 24.1231C95.8585 24.6917 96.5577 24.9747 97.3857 24.9747C98.2137 24.9747 98.9142 24.6905 99.4846 24.1231C100.056 23.5545 100.344 22.8292 100.344 21.9473C100.344 21.0653 100.056 20.3401 99.4846 19.7715C98.9142 19.2029 98.2137 18.9198 97.3857 18.9198C96.5577 18.9198 95.8585 19.2041 95.2867 19.7715C94.7163 20.3401 94.4291 21.0653 94.4291 21.9473C94.4291 22.8292 94.7163 23.5545 95.2867 24.1231Z" stroke="white" stroke-width="0.052863" stroke-miterlimit="10"/>
<path d="M102.75 25.7379V18.1567H103.958L107.713 24.0536H107.756L107.713 22.593V18.1567H108.706V25.7379H107.669L103.741 19.5542H103.698L103.741 21.0148V25.7379H102.75Z" stroke="white" stroke-width="0.052863" stroke-miterlimit="10"/>
<defs>
<filter id="filter0_ii_528_12351" x="18.6864" y="17.9863" width="31.5088" height="35.2" filterUnits="userSpaceOnUse" color-interpolation-filters="sRGB">
<feFlood flood-opacity="0" result="BackgroundImageFix"/>
<feBlend mode="normal" in="SourceGraphic" in2="BackgroundImageFix" result="shape"/>
<feColorMatrix in="SourceAlpha" type="matrix" values="0 0 0 0 0 0 0 0 0 0 0 0 0 0 0 0 0 0 127 0" result="hardAlpha"/>
<feOffset dy="-0.205495"/>
<feComposite in2="hardAlpha" operator="arithmetic" k2="-1" k3="1"/>
<feColorMatrix type="matrix" values="0 0 0 0 0 0 0 0 0 0 0 0 0 0 0 0 0 0 0.12 0"/>
<feBlend mode="normal" in2="shape" result="effect1_innerShadow_528_12351"/>
<feColorMatrix in="SourceAlpha" type="matrix" values="0 0 0 0 0 0 0 0 0 0 0 0 0 0 0 0 0 0 127 0" result="hardAlpha"/>
<feOffset dy="0.205495"/>
<feComposite in2="hardAlpha" operator="arithmetic" k2="-1" k3="1"/>
<feColorMatrix type="matrix" values="0 0 0 0 1 0 0 0 0 1 0 0 0 0 1 0 0 0 0.25 0"/>
<feBlend mode="normal" in2="effect1_innerShadow_528_12351" result="effect2_innerShadow_528_12351"/>
</filter>
<filter id="filter1_i_528_12351" x="19.3182" y="35.5859" width="22.7704" height="17.6003" filterUnits="userSpaceOnUse" color-interpolation-filters="sRGB">
<feFlood flood-opacity="0" result="BackgroundImageFix"/>
<feBlend mode="normal" in="SourceGraphic" in2="BackgroundImageFix" result="shape"/>
<feColorMatrix in="SourceAlpha" type="matrix" values="0 0 0 0 0 0 0 0 0 0 0 0 0 0 0 0 0 0 127 0" result="hardAlpha"/>
<feOffset dy="-0.205495"/>
<feComposite in2="hardAlpha" operator="arithmetic" k2="-1" k3="1"/>
<feColorMatrix type="matrix" values="0 0 0 0 0 0 0 0 0 0 0 0 0 0 0 0 0 0 0.08 0"/>
<feBlend mode="normal" in2="shape" result="effect1_innerShadow_528_12351"/>
</filter>
<linearGradient id="paint0_linear_528_12351" x1="34.8271" y1="20.1331" x2="11.8604" y2="43.0344" gradientUnits="userSpaceOnUse">
<stop stop-color="#00A0FF"/>
<stop offset="0.0066" stop-color="#00A1FF"/>
<stop offset="0.2601" stop-color="#00BEFF"/>
<stop offset="0.5122" stop-color="#00D2FF"/>
<stop offset="0.7604" stop-color="#00DFFF"/>
<stop offset="1" stop-color="#00E3FF"/>
</linearGradient>
<linearGradient id="paint1_linear_528_12351" x1="51.247" y1="35.5853" x2="18.2283" y2="35.5853" gradientUnits="userSpaceOnUse">
<stop stop-color="#FFE000"/>
<stop offset="0.4087" stop-color="#FFBD00"/>
<stop offset="0.7754" stop-color="#FFA500"/>
<stop offset="1" stop-color="#FF9C00"/>
</linearGradient>
<linearGradient id="paint2_linear_528_12351" x1="38.9583" y1="38.7252" x2="7.81261" y2="69.7823" gradientUnits="userSpaceOnUse">
<stop stop-color="#FF3A44"/>
<stop offset="1" stop-color="#C31162"/>
</linearGradient>
<linearGradient id="paint3_linear_528_12351" x1="15.0352" y1="8.45568" x2="28.9426" y2="22.3235" gradientUnits="userSpaceOnUse">
<stop stop-color="#32A071"/>
<stop offset="0.0685" stop-color="#2DA771"/>
<stop offset="0.4762" stop-color="#15CF74"/>
<stop offset="0.8009" stop-color="#06E775"/>
<stop offset="1" stop-color="#00F076"/>
</linearGradient>
</defs>
</svg>
