<svg width="17" height="17" viewBox="0 0 17 17" fill="none" xmlns="http://www.w3.org/2000/svg">
<g clip-path="url(#clip0_126_10621)">
<path fill-rule="evenodd" clip-rule="evenodd" d="M4.84875 0.0495C5.7285 0.009 6.009 0 8.25 0C10.491 0 10.7715 0.00975 11.6505 0.0495C12.5295 0.08925 13.1295 0.2295 13.6545 0.43275C14.2042 0.6405 14.703 0.96525 15.1155 1.38525C15.5355 1.797 15.8595 2.295 16.0665 2.8455C16.2705 3.3705 16.41 3.9705 16.4505 4.848C16.491 5.72925 16.5 6.00975 16.5 8.25C16.5 10.491 16.4902 10.7715 16.4505 11.6512C16.4107 12.5287 16.2705 13.1287 16.0665 13.6537C15.8595 14.2043 15.535 14.7031 15.1155 15.1155C14.703 15.5355 14.2042 15.8595 13.6545 16.0665C13.1295 16.2705 12.5295 16.41 11.652 16.4505C10.7715 16.491 10.491 16.5 8.25 16.5C6.009 16.5 5.7285 16.4902 4.84875 16.4505C3.97125 16.4107 3.37125 16.2705 2.84625 16.0665C2.29569 15.8595 1.79686 15.535 1.3845 15.1155C0.964785 14.7035 0.639986 14.2049 0.43275 13.6545C0.2295 13.1295 0.09 12.5295 0.0495 11.652C0.009 10.7708 0 10.4902 0 8.25C0 6.009 0.00975 5.7285 0.0495 4.8495C0.08925 3.9705 0.2295 3.3705 0.43275 2.8455C0.640292 2.29506 0.96534 1.79648 1.38525 1.3845C1.79703 0.964875 2.29535 0.640082 2.8455 0.43275C3.3705 0.2295 3.97125 0.09 4.84875 0.0495ZM11.5837 1.5345C10.7137 1.49475 10.4528 1.4865 8.25 1.4865C6.04725 1.4865 5.78625 1.49475 4.91625 1.5345C4.1115 1.57125 3.675 1.7055 3.384 1.81875C2.99925 1.96875 2.724 2.1465 2.43525 2.43525C2.16154 2.70154 1.95088 3.02571 1.81875 3.384C1.7055 3.675 1.57125 4.1115 1.5345 4.91625C1.49475 5.78625 1.4865 6.04725 1.4865 8.25C1.4865 10.4528 1.49475 10.7137 1.5345 11.5837C1.57125 12.3885 1.7055 12.825 1.81875 13.116C1.95075 13.4738 2.1615 13.7985 2.43525 14.0648C2.7015 14.3385 3.02625 14.5493 3.384 14.6813C3.675 14.7945 4.1115 14.9288 4.91625 14.9655C5.78625 15.0052 6.0465 15.0135 8.25 15.0135C10.4535 15.0135 10.7137 15.0052 11.5837 14.9655C12.3885 14.9288 12.825 14.7945 13.116 14.6813C13.5008 14.5313 13.776 14.3535 14.0648 14.0648C14.3385 13.7985 14.5493 13.4738 14.6813 13.116C14.7945 12.825 14.9288 12.3885 14.9655 11.5837C15.0052 10.7137 15.0135 10.4528 15.0135 8.25C15.0135 6.04725 15.0052 5.78625 14.9655 4.91625C14.9288 4.1115 14.7945 3.675 14.6813 3.384C14.5313 2.99925 14.3535 2.724 14.0648 2.43525C13.7984 2.16155 13.4743 1.95091 13.116 1.81875C12.825 1.7055 12.3885 1.57125 11.5837 1.5345ZM7.19625 10.7933C7.78478 11.0382 8.44005 11.0713 9.05017 10.8868C9.66038 10.7023 10.1876 10.3117 10.5417 9.78165C10.8959 9.2517 11.0551 8.61518 10.992 7.98082C10.929 7.34651 10.6477 6.75373 10.1962 6.30375C9.9084 6.01611 9.5604 5.79586 9.17723 5.65886C8.79413 5.52186 8.3853 5.47152 7.98038 5.51147C7.57545 5.5514 7.18436 5.68063 6.83535 5.88985C6.48634 6.09906 6.18806 6.38306 5.96198 6.72139C5.73589 7.05972 5.58764 7.44397 5.52789 7.8465C5.46813 8.24895 5.49836 8.65973 5.61641 9.04913C5.73445 9.43853 5.93736 9.79695 6.21054 10.0985C6.48372 10.4001 6.82037 10.6374 7.19625 10.7933ZM5.2515 5.2515C5.64527 4.85773 6.11274 4.54537 6.62722 4.33227C7.14171 4.11916 7.69312 4.00948 8.25 4.00948C8.80688 4.00948 9.35828 4.11916 9.87278 4.33227C10.3873 4.54537 10.8547 4.85773 11.2485 5.2515C11.6423 5.64527 11.9546 6.11274 12.1677 6.62722C12.3808 7.14171 12.4905 7.69312 12.4905 8.25C12.4905 8.80688 12.3808 9.35828 12.1677 9.87278C11.9546 10.3873 11.6423 10.8547 11.2485 11.2485C10.4533 12.0437 9.37463 12.4905 8.25 12.4905C7.12535 12.4905 6.04675 12.0437 5.2515 11.2485C4.45624 10.4533 4.00948 9.37463 4.00948 8.25C4.00948 7.12535 4.45624 6.04675 5.2515 5.2515ZM13.431 4.641C13.5286 4.54895 13.6067 4.43826 13.6607 4.31548C13.7147 4.1927 13.7436 4.06033 13.7456 3.9262C13.7475 3.79207 13.7225 3.65891 13.6721 3.53461C13.6216 3.4103 13.5468 3.29738 13.452 3.20253C13.3571 3.10768 13.2442 3.03282 13.1199 2.98239C12.9956 2.93196 12.8624 2.90699 12.7283 2.90894C12.5941 2.91089 12.4618 2.93974 12.339 2.99377C12.2162 3.0478 12.1055 3.12592 12.0135 3.2235C11.8345 3.41327 11.7365 3.66534 11.7403 3.9262C11.7441 4.18706 11.8494 4.43616 12.0339 4.62063C12.2183 4.80511 12.4675 4.91042 12.7283 4.91423C12.9892 4.91803 13.2413 4.82002 13.431 4.641Z" fill="#1DC370"/>
</g>
<defs>
<clipPath id="clip0_126_10621">
<rect width="16.5" height="16.5" fill="white"/>
</clipPath>
</defs>
</svg>
