<svg width="106" height="53" viewBox="0 0 106 53" fill="none" xmlns="http://www.w3.org/2000/svg">
<g clip-path="url(#clip0_351_1155)">
<path d="M97.3499 0.68689H8.69528C4.29082 0.68689 0.720215 4.32203 0.720215 8.80612V43.9699C0.720215 48.454 4.29082 52.0891 8.69528 52.0891H97.3499C101.754 52.0891 105.325 48.454 105.325 43.9699V8.80612C105.325 4.32203 101.754 0.68689 97.3499 0.68689ZM8.69528 2.06065H89.5291V26.8004H2.06958V8.80612C2.06958 5.0863 5.04153 2.06307 8.6929 2.06307M2.06958 43.9699V28.1741H89.5291V50.7154H8.69528C5.04153 50.7154 2.07196 47.6897 2.07196 43.9699M103.976 43.9699C103.976 47.6897 101.003 50.7154 97.3499 50.7154H90.8789V2.06065H97.3499C101.003 2.06065 103.976 5.08631 103.976 8.80369V43.9699Z" fill="white"/>
<path d="M11.3275 20.3815C8.64302 20.3815 6.50972 18.1636 6.39802 15.8563C6.35292 15.0944 6.39802 13.6167 7.56452 12.047C8.81883 13.2128 9.7002 13.9746 9.7002 13.9746C9.7002 13.9746 9.06112 14.8477 9.26071 15.8563C9.41513 16.6399 10.2062 17.4018 11.2183 17.4018H20.02C20.8111 17.4018 21.2744 16.9301 21.2744 16.057V5.86511H24.2677V15.2299C24.2677 16.5504 25.0374 17.4018 26.3796 17.4018H27.8312V20.3815H26.5555C24.9923 20.3815 24.0468 19.6873 23.4528 18.9255C22.8803 19.7309 21.9134 20.3815 20.2624 20.3815H11.3275ZM16.3663 12.833C16.9602 12.833 17.8629 12.5646 18.2359 11.7568L17.1574 10.7482C16.9816 11.1739 16.4969 11.1304 16.4542 11.1304H15.024V10.3903C15.024 9.89691 15.1333 9.49302 15.5966 9.49302C15.8389 9.49302 16.1691 9.62846 16.1905 10.0977H17.7964C17.6871 8.5304 16.9602 7.83386 15.5966 7.83386C14.0334 7.83386 13.4181 9.0673 13.4181 10.3879V11.128H12.5367L12.0307 12.8306H16.3663V12.833Z" fill="white"/>
<path d="M31.6396 17.4019H27.6343V20.3815H31.6396V17.4019Z" fill="white"/>
<path d="M33.972 8.4649H30.9786V5.86731H33.972V8.4649ZM31.4419 20.3813V17.4015H33.6204C34.7655 17.4015 35.3807 16.8864 35.3807 15.6094V11.106H38.3503V15.2273C38.3503 16.5478 39.1414 17.3991 40.4622 17.3991H41.9375V20.3788H40.6404C39.0345 20.3788 38.0652 19.617 37.4951 18.8116C36.9677 19.7524 35.8226 20.3788 34.459 20.3788H31.4443L31.4419 20.3813ZM38.3289 8.4649H35.3356V5.86731H38.3289V8.4649Z" fill="white"/>
<path d="M45.7435 17.4019H41.7382V20.3815H45.7435V17.4019Z" fill="white"/>
<path d="M46.7764 14.8042C46.8429 11.3553 49.746 9.83154 52.3877 9.83154C56.393 9.83154 59.8021 13.1232 59.8021 17.4042V20.3838H45.6313V17.4042H56.8088C56.8302 14.6252 55.1363 12.521 52.3853 12.521C50.91 12.521 49.7008 13.1474 49.5678 14.8066H46.774L46.7764 14.8042Z" fill="white"/>
<path d="M64.8863 21.3006C65.3924 21.4578 66.0955 21.615 66.8012 21.615C67.2622 21.615 68.8917 21.6368 69.4192 20.3839H67.7677C64.8198 20.3839 62.5747 18.1443 62.5747 15.2759C62.5747 12.4075 64.599 10.4146 67.7677 10.4146H72.5427V17.4042H75.7547V20.3839H72.4762C72.0798 23.4071 69.3075 24.2827 67.1957 24.215C66.6682 24.1932 66.0504 24.0795 65.6559 23.9683L64.8863 21.303V21.3006ZM69.5521 13.1016H67.6824C66.3853 13.1016 65.637 14.2431 65.637 15.2735C65.637 16.3933 66.3853 17.4018 67.6824 17.4018H69.5521V13.1016Z" fill="white"/>
<path d="M79.5657 17.4019H75.5603V20.3815H79.5657V17.4019Z" fill="white"/>
<path d="M79.4535 20.3815V17.4018H82.0502C82.8411 17.4018 83.3259 16.9326 83.3259 16.057V5.86511H86.2977V15.8781C86.2977 17.1551 86.0104 20.3815 82.3136 20.3815H79.4535Z" fill="white"/>
<path d="M6.24756 47.443V31.4222H9.44516V45.2203H13.1203V47.443H6.24756Z" fill="white"/>
<path d="M23.1486 47.6558C22.2934 47.6558 21.5664 47.5372 20.9654 47.3026C20.3644 47.068 19.8845 46.7173 19.5281 46.2506C19.1718 45.7838 18.9105 45.2347 18.7489 44.6035C18.5873 43.9722 18.5066 43.2273 18.5066 42.3712V36.4577C18.5066 35.6015 18.5873 34.859 18.7489 34.2302C18.9105 33.6013 19.1694 33.0596 19.5281 32.6024C19.8845 32.1453 20.3644 31.7995 20.9654 31.5673C21.5664 31.3351 22.2934 31.219 23.1486 31.219C24.8139 31.219 26.0065 31.6592 26.7311 32.542C27.4556 33.4248 27.8168 34.7284 27.8168 36.4553V42.3687C27.8168 44.0956 27.4556 45.4089 26.7311 46.3062C26.0065 47.2035 24.8115 47.6533 23.1486 47.6533M22.531 45.1839C22.702 45.2637 22.9063 45.3049 23.1486 45.3049C23.3909 45.3049 23.5952 45.2662 23.771 45.1839C23.9445 45.1041 24.0823 45.0026 24.1796 44.8792C24.277 44.7558 24.3554 44.5962 24.4124 44.3955C24.4694 44.1947 24.5051 44.0037 24.5217 43.8198C24.5384 43.6361 24.5455 43.416 24.5455 43.1572V35.6571C24.5455 35.3983 24.5384 35.1782 24.5217 34.9944C24.5051 34.8106 24.4694 34.622 24.4124 34.4285C24.3554 34.235 24.277 34.0802 24.1796 33.9593C24.0823 33.8408 23.9445 33.7416 23.771 33.6642C23.5976 33.5868 23.3909 33.5481 23.1486 33.5481C22.9063 33.5481 22.702 33.5868 22.531 33.6642C22.3598 33.7416 22.2268 33.8408 22.1318 33.9593C22.0368 34.0778 21.9631 34.2374 21.9085 34.4333C21.8539 34.6292 21.8206 34.8179 21.8039 34.9993C21.7873 35.1806 21.7802 35.3983 21.7802 35.6571V43.1572C21.7802 43.416 21.7873 43.6361 21.8039 43.8198C21.8206 44.0037 21.8539 44.1947 21.9085 44.3955C21.9631 44.5962 22.0368 44.7558 22.1318 44.8792C22.2268 45.0026 22.3598 45.1041 22.531 45.1839Z" fill="white"/>
<path d="M34.2408 47.443V31.4222H37.4503V37.9935H40.2204V31.4222H43.4299V47.443H40.2204V40.3202H37.4503V47.443H34.2408Z" fill="white"/>
<path d="M49.3088 47.4429L52.3853 31.4198H55.8965L58.9634 47.4429H55.9915L55.4119 43.8973H52.915L52.3354 47.4429H49.3064H49.3088ZM53.2191 41.8778H55.0887L54.1503 35.5L53.2191 41.8778Z" fill="white"/>
<path d="M65.8222 47.443V33.8263H63.3064V31.4222H71.4972V33.8263H69.0197V47.443H65.8222Z" fill="white"/>
<path d="M77.0757 47.443V31.4222H80.2732V38.1363L83.1309 31.4222H86.2243L83.2739 38.6296L86.4426 47.443H83.2074L80.7198 40.1098L80.2732 40.8813V47.443H77.0757Z" fill="white"/>
<path d="M98.1577 12.7313L97.3003 13.3626L96.4429 12.7313H97.0889C97.0889 12.7313 96.8895 12.2501 97.1147 12.1969C97.1147 12.1969 96.8512 11.7542 97.0463 11.6986C97.0463 11.6986 96.7565 11.3503 97.072 11.1907C97.072 11.1907 96.8462 10.8013 97.0864 10.6828C97.0864 10.6828 96.8086 10.2282 97.0864 10.1483C97.0864 10.1483 96.8487 9.70575 97.1009 9.64043V8.40936C97.1009 8.40936 96.7728 8.20381 96.8751 9.31872L96.7967 9.39854L96.823 9.72025C96.823 9.72025 96.5326 9.57025 96.6398 9.35742L96.4404 9.43724C96.4404 9.43724 96.362 9.2776 96.4404 8.95596C96.4404 8.95596 96.4021 8.87614 96.3262 9.06241C96.3262 9.06241 95.9367 8.7407 96.3451 8.31262V8.2183C96.3451 8.2183 96.16 7.98855 96.5188 7.81678C96.5188 7.81678 96.7446 7.48064 96.3262 7.46851C96.3262 7.46851 96.224 7.87003 96.0935 7.87003C96.0935 7.87003 96.0791 8.16511 95.9393 8.16511C95.9393 8.16511 95.9581 8.4674 95.7561 8.53994C95.7561 8.53994 95.8082 8.7552 95.7109 8.78183C95.7109 8.78183 95.6921 8.96803 95.7561 9.0043C95.7561 9.0043 95.2907 8.61734 95.5372 7.97399L95.8276 7.36692C95.8276 7.36692 95.906 7.188 95.6087 7.24119L95.5899 7.44674C95.5899 7.44674 95.5065 7.57981 95.4663 7.41289C95.4663 7.41289 95.2738 7.26054 95.2926 7.72732L95.3258 7.98855C95.3258 7.98855 95.255 8.12878 95.1954 7.90145C95.1954 7.90145 94.8792 7.90873 95.1954 8.52787C95.1954 8.52787 94.6064 8.07316 94.9771 7.41775L95.7254 6.6027C95.7254 6.6027 95.6921 6.26165 95.1552 6.52288C95.1552 6.52288 95.0003 6.60991 94.8579 6.77198C94.8579 6.77198 95.122 6.01012 95.8395 5.89645H96.3501C96.3501 5.89645 96.5257 5.46836 95.7868 5.67394C95.7868 5.67394 95.6633 5.09347 96.4097 5.23375L96.9083 5.67394L96.9535 5.68119V5.12734L97.2526 4.80566L97.6064 5.12008V5.68361L98.1176 5.22892C98.1176 5.22892 98.8138 5.04268 98.8395 5.6425C98.8395 5.6425 98.0843 5.45626 98.1985 5.89161H98.8395C98.8395 5.89161 99.5878 5.96417 99.7709 6.72121C99.7709 6.72121 99.2528 6.19393 98.8395 6.5253L99.7258 7.45402C99.7258 7.45402 100.068 8.01754 99.5238 8.50125C99.5238 8.50125 99.7615 7.98127 99.4786 7.86761C99.4786 7.86761 99.4191 7.84826 99.3482 7.98127C99.3482 7.98127 99.4266 7.51449 99.2767 7.40804C99.2767 7.40804 99.1387 7.34757 99.0584 7.48064C99.0584 7.48064 99.0772 7.16622 98.7686 7.25811C98.7686 7.25811 98.7354 7.4371 99.0653 7.91116C99.0653 7.91116 99.3482 8.63426 98.9085 8.99466C98.9085 8.99466 98.9537 8.52787 98.6971 8.39486C98.6971 8.39486 98.8088 8.12641 98.5403 8.0466C98.5403 8.0466 98.6256 7.9208 98.3904 7.80471C98.3904 7.80471 98.2863 7.75873 98.3051 7.55561C98.3051 7.55561 98.0342 7.32343 98.0417 7.72489C98.0417 7.72489 98.4287 8.02725 98.2336 8.19895C98.2336 8.19895 98.64 8.57385 98.3835 8.81567C98.3835 8.81567 98.4431 9.16394 98.2336 9.02128C98.2336 9.02128 98.1101 8.80845 98.1364 9.23654C98.1364 9.23654 98.2669 9.5122 97.9984 9.39612C97.9984 9.39612 97.9727 9.638 97.8065 9.72989V9.39612H97.7281V8.64639C97.7281 8.64639 97.7538 8.4045 97.4998 8.43113V9.59445C97.4998 9.59445 97.7281 9.70811 97.5067 10.1411C97.5067 10.1411 97.7707 10.1942 97.5142 10.6611C97.5142 10.6611 97.7519 10.7143 97.533 11.1689C97.533 11.1689 97.8416 11.1883 97.5782 11.7228C97.5782 11.7228 97.8065 11.7228 97.5067 12.1969C97.5067 12.1969 97.7707 12.1703 97.533 12.7048L98.1577 12.7362V12.7313Z" fill="#006432"/>
<path d="M100.086 15.409L99.7892 15.6509C99.2906 15.8661 98.7794 15.363 98.7794 15.363C98.5969 15.2106 98.9029 15.1212 98.9029 15.1212C99.3614 14.9518 98.9889 14.6737 98.9889 14.6737C98.5423 14.5939 98.6796 14.9422 98.6796 14.9422C98.7844 15.2034 98.5398 15.1647 98.5398 15.1647L97.7012 14.3569C98.2186 13.8514 99.2573 12.8912 100.072 12.4825C100.072 12.4825 100.82 11.9286 102.947 11.8391C102.947 11.8391 101.234 11.0507 99.3947 12.3132C99.3947 12.3132 97.9433 13.254 97.3662 13.9506L97.3424 13.9724L97.3211 13.9506C96.7415 13.254 95.292 12.3132 95.292 12.3132C93.4555 11.0507 91.7407 11.8391 91.7407 11.8391C93.867 11.9262 94.6153 12.4825 94.6153 12.4825C95.43 12.8961 96.4706 13.8514 96.9861 14.3569L96.1476 15.1647C96.1476 15.1647 95.9023 15.1986 96.0096 14.9422C96.0096 14.9422 96.1476 14.5939 95.701 14.6737C95.701 14.6737 95.3322 14.9495 95.7863 15.1212C95.7863 15.1212 96.0949 15.2082 95.9098 15.363C95.9098 15.363 95.3993 15.8637 94.8975 15.6509L94.6008 15.409C94.6008 15.409 94.1687 15.2493 94.1016 15.7041C94.1016 15.7041 94.456 16.6256 95.6201 16.1853C95.6201 16.1853 96.0667 16.033 96.3947 15.6315L96.5609 15.7839C96.5609 15.7839 96.5415 16.1321 96.8243 16.1515C96.8243 16.1515 97.0169 16.1176 97.0075 15.8637C97.0075 15.8637 96.9548 15.6678 96.6725 15.6484L96.5346 15.5226C96.5346 15.5226 97.0646 15.0244 97.3374 14.7149C97.6109 15.0244 98.1427 15.5226 98.1427 15.5226L98.0029 15.6484C97.72 15.6678 97.6679 15.8637 97.6679 15.8637C97.6604 16.1128 97.8505 16.1515 97.8505 16.1515C98.1333 16.1321 98.1145 15.7839 98.1145 15.7839L98.2807 15.6315C98.6037 16.033 99.0553 16.1853 99.0553 16.1853C100.224 16.6256 100.573 15.7041 100.573 15.7041C100.509 15.2493 100.081 15.409 100.081 15.409" fill="#006432"/>
<path d="M94.1881 19.7235H93.9886C93.9529 19.7235 93.9196 19.7162 93.8889 19.6993C93.8293 19.6703 93.7816 19.6146 93.739 19.5348C93.6844 19.426 93.6487 19.2761 93.6324 19.0874C93.5634 19.1745 93.5088 19.2349 93.4705 19.2712C93.416 19.3244 93.3683 19.351 93.3307 19.351C93.3112 19.351 93.288 19.3486 93.2566 19.3413L93.0716 19.305C92.9932 19.2881 92.943 19.2761 92.9267 19.2688C92.9079 19.2616 92.9004 19.2494 92.9004 19.2301C92.9004 19.2035 92.9361 19.114 93.0051 18.9665C93.0741 18.8189 93.1262 18.727 93.1569 18.6932C93.1833 18.6641 93.2259 18.6303 93.2924 18.5843C93.3307 18.5577 93.3852 18.5238 93.4567 18.4804L93.537 18.4319C93.5351 18.4175 93.5326 18.403 93.5301 18.3884C93.5301 18.3739 93.5301 18.3594 93.5301 18.3473C93.5301 18.3086 93.5395 18.2602 93.5565 18.1998C93.5728 18.1393 93.606 18.0668 93.6512 17.9797L93.7961 18.9423C93.8199 19.0922 93.8506 19.1962 93.8864 19.2494C93.9102 19.2833 93.9434 19.3026 93.9861 19.3026H94.1856V19.7235H94.1881ZM93.8387 17.5589L93.6725 17.8467L93.4567 17.7233L93.335 17.9676L93.0528 17.8104L93.2096 17.5395L93.4329 17.6532L93.5659 17.4161L93.8368 17.5589H93.8387ZM93.5991 18.8504L93.5684 18.6641C93.5351 18.6786 93.5113 18.6932 93.4919 18.7004C93.4373 18.7295 93.3921 18.7584 93.3589 18.7851C93.335 18.8044 93.3137 18.8238 93.2974 18.8431C93.2761 18.8649 93.2667 18.8818 93.2667 18.8939C93.2667 18.9084 93.2855 18.9205 93.3187 18.9278C93.3545 18.935 93.3896 18.9399 93.4235 18.9399C93.4448 18.9399 93.468 18.9326 93.4919 18.9205C93.5157 18.9084 93.5514 18.8842 93.5941 18.8504" fill="#006432"/>
<path d="M95.0305 19.7235H94.0828V19.3026H94.8812C94.8693 19.2325 94.8498 19.1745 94.8191 19.1261C94.8047 19.0995 94.7696 19.0535 94.7125 18.9883L94.8335 18.6206C94.9094 18.7077 94.9615 18.7996 94.9878 18.8963C95.0167 18.9906 95.0305 19.1334 95.0305 19.322V19.7259V19.7235ZM95.0067 19.9944L94.8404 20.3088L94.6247 20.1854L94.503 20.4298L94.2208 20.2725L94.3776 19.9726L94.6008 20.0863L94.7288 19.8372L95.0048 19.9944H95.0067Z" fill="#006432"/>
<path d="M96.0955 19.7235H95.4087C95.3422 19.7235 95.2901 19.709 95.2569 19.68C95.2143 19.6461 95.1904 19.5881 95.1904 19.5083C95.1904 19.4623 95.1923 19.4139 95.1973 19.3608C95.2023 19.3075 95.2092 19.2543 95.2187 19.2011H95.2757C95.2826 19.235 95.3021 19.2592 95.3303 19.2761C95.3591 19.293 95.3924 19.3003 95.43 19.3003H95.9506C95.9268 19.1503 95.886 19.0294 95.8289 18.9375C95.7819 18.8625 95.7154 18.7972 95.6295 18.744L95.7392 18.2627C95.8697 18.3619 95.9625 18.49 96.0171 18.6497C96.0667 18.7948 96.093 18.9883 96.093 19.2277V19.7235H96.0955Z" fill="#006432"/>
<path d="M97.4948 19.6172C97.4948 19.7937 97.4214 19.9679 97.274 20.1421C97.1267 20.3138 96.9818 20.4008 96.8369 20.4008C96.7541 20.4008 96.6613 20.3742 96.5615 20.3186C96.4618 20.2654 96.3094 20.1565 96.103 19.9969L96.167 19.9074C96.2761 19.9824 96.3665 20.0308 96.4355 20.055C96.4925 20.0767 96.559 20.0864 96.6305 20.0864C96.7277 20.0864 96.825 20.0574 96.9222 20.0018C97.0363 19.9364 97.153 19.8301 97.274 19.6825C97.2314 19.6898 97.1956 19.6922 97.1674 19.6922C97.0671 19.6922 96.9868 19.6583 96.9272 19.593C96.8676 19.5277 96.8394 19.4358 96.8394 19.3221C96.8394 19.1674 96.8751 19.0198 96.9441 18.8771C97.02 18.7223 97.1053 18.6449 97.2025 18.6449C97.2835 18.6449 97.3525 18.7005 97.4095 18.8142C97.4666 18.9255 97.4948 19.0609 97.4948 19.2206V19.6196V19.6172ZM97.3123 19.3028C97.2835 19.1383 97.2264 19.0536 97.1386 19.0536C97.1078 19.0536 97.0815 19.0658 97.0627 19.0923C97.0439 19.1165 97.0338 19.1456 97.0338 19.1746C97.0338 19.2108 97.0533 19.2423 97.0934 19.2665C97.1342 19.2907 97.1862 19.3028 97.2527 19.3028H97.3098H97.3123Z" fill="#006432"/>
<path d="M98.6137 19.7234H98.3879C98.307 19.7234 98.238 19.7065 98.1765 19.6751C98.1144 19.6412 98.0674 19.588 98.0291 19.5155C97.9627 19.5977 97.8774 19.6558 97.7726 19.6896C97.7036 19.7114 97.6277 19.7234 97.5443 19.7234H97.3856V19.3026H97.5443C97.6277 19.3026 97.6873 19.2978 97.7206 19.2905C97.7538 19.2809 97.799 19.2615 97.8579 19.2301C97.8272 19.1696 97.8008 19.1261 97.7795 19.0994C97.7513 19.068 97.7249 19.0511 97.6942 19.0511C97.6823 19.0511 97.6729 19.0559 97.6635 19.0632C97.6541 19.0705 97.6422 19.0849 97.6302 19.1067L97.5637 19.097C97.5637 18.9108 97.5945 18.7778 97.6585 18.698C97.7224 18.6182 97.8228 18.5795 97.9576 18.5795C98.0931 18.5795 98.2098 18.6085 98.2882 18.6641C98.3691 18.7198 98.4092 18.7972 98.4092 18.8939C98.4092 18.9471 98.3973 18.9955 98.3785 19.0438C98.3572 19.0922 98.3164 19.1575 98.2575 19.2397C98.2713 19.2591 98.2907 19.2736 98.3145 19.2857C98.3377 19.2978 98.3616 19.3026 98.3829 19.3026H98.6087V19.7234H98.6137Z" fill="#006432"/>
<path d="M100.504 19.7238C100.39 19.7238 100.298 19.7165 100.221 19.6996C100.145 19.6826 100.075 19.656 100.001 19.6197C99.9409 19.6609 99.8889 19.6899 99.8437 19.7044C99.7985 19.7189 99.7296 19.7238 99.6374 19.7238H99.3902C99.3212 19.7238 99.2692 19.7068 99.2284 19.6705C99.1883 19.6342 99.1525 19.5738 99.1218 19.4916C99.0672 19.5786 99.0026 19.6391 98.9342 19.6778C98.8747 19.7092 98.8057 19.7262 98.7222 19.7262H98.5065V19.3053H98.7222C98.8295 19.3053 98.9173 19.2763 98.9888 19.2134C99.081 19.1336 99.1262 19.0127 99.1262 18.853L99.2259 18.8676C99.2259 18.9014 99.2215 18.9377 99.219 18.9812C99.219 19.0248 99.2165 19.0707 99.2165 19.1215C99.2165 19.1723 99.2334 19.2183 99.2692 19.2521C99.3043 19.286 99.3451 19.3053 99.3902 19.3053H99.5778C99.7013 19.3053 99.7891 19.2884 99.8412 19.2521C99.9058 19.211 99.9365 19.1312 99.9365 19.0151C99.9365 18.9909 99.9434 18.9691 99.9604 18.9498C99.9698 18.9377 99.9886 18.9208 100.017 18.899L100.075 18.853C100.075 18.8724 100.079 18.899 100.079 18.9328C100.079 18.9668 100.079 18.9885 100.079 18.9982C100.079 19.0538 100.072 19.1288 100.055 19.2231C100.093 19.2424 100.133 19.257 100.181 19.2715C100.229 19.2835 100.276 19.2957 100.329 19.3029C100.329 19.269 100.317 19.2231 100.29 19.1674C100.265 19.1118 100.253 19.0756 100.253 19.0538C100.253 19.0272 100.257 19.0054 100.265 18.9909C100.265 18.9861 100.276 18.9691 100.298 18.9426L100.426 18.766C100.452 18.8313 100.473 18.8894 100.485 18.9426C100.497 18.9957 100.502 19.0611 100.502 19.1409V19.7238H100.504Z" fill="#006432"/>
<path d="M101.232 19.7235H100.398V19.3027H101.049L100.866 18.2555L100.768 18.1902C100.768 18.1297 100.778 18.0692 100.797 18.0063C100.821 17.929 100.859 17.8346 100.916 17.7258L100.985 17.7621C100.985 17.7621 100.985 17.7839 100.98 17.8104C100.98 17.8443 101.001 17.8782 101.044 17.9096C101.082 17.9387 101.141 17.9701 101.222 18.0063C101.213 18.0717 101.199 18.137 101.182 18.1998C101.165 18.2627 101.144 18.3183 101.123 18.3692L101.067 18.3474L101.234 19.3027V19.7235H101.232Z" fill="#006432"/>
<path d="M101.792 19.2736C101.792 19.3655 101.78 19.4477 101.761 19.5251C101.74 19.6001 101.699 19.7017 101.638 19.8298L101.547 19.7935C101.571 19.663 101.583 19.5541 101.583 19.4718C101.583 19.409 101.578 19.317 101.569 19.1962C101.559 19.0752 101.545 18.9543 101.53 18.8358C101.517 18.7173 101.49 18.5745 101.457 18.4101C101.445 18.3521 101.438 18.3134 101.438 18.2916C101.438 18.2602 101.454 18.2045 101.485 18.1295C101.517 18.0521 101.562 17.9603 101.618 17.8514L101.708 18.398C101.742 18.606 101.766 18.785 101.777 18.9374C101.787 19.0535 101.792 19.1671 101.792 19.2759" fill="#006432"/>
<path d="M95.8458 27.2114V23.3755H96.606V25.0806L98.1427 23.3755H99.1669L97.7482 24.8702L99.2428 27.2114H98.2594L97.2232 25.412L96.606 26.0529V27.2114H95.8458Z" fill="#006432"/>
<path d="M95.9312 32.3969L96.6725 32.3243C96.7177 32.5758 96.808 32.762 96.9435 32.883C97.079 33.0015 97.264 33.062 97.4948 33.062C97.7394 33.062 97.9245 33.0088 98.048 32.9048C98.1716 32.7983 98.2356 32.675 98.2356 32.5347C98.2356 32.4428 98.2098 32.3679 98.1572 32.3025C98.1051 32.2372 98.0123 32.184 97.8843 32.1356C97.794 32.1042 97.592 32.0486 97.2734 31.9688C96.8651 31.8648 96.5797 31.739 96.416 31.589C96.1858 31.3786 96.0691 31.1199 96.0691 30.8175C96.0691 30.6216 96.1237 30.4402 96.2328 30.2685C96.3426 30.0992 96.4994 29.9686 96.7033 29.8791C96.9077 29.7896 97.1549 29.7461 97.4446 29.7461C97.9176 29.7461 98.2738 29.8525 98.5134 30.0629C98.7536 30.2733 98.8797 30.5563 98.8916 30.907L98.1314 30.9409C98.0982 30.745 98.0292 30.6023 97.9219 30.5152C97.8153 30.4281 97.6535 30.3846 97.4396 30.3846C97.2264 30.3846 97.0457 30.4306 96.9221 30.5224C96.8412 30.5805 96.8011 30.6603 96.8011 30.7595C96.8011 30.8514 96.8387 30.9288 96.9146 30.9917C97.01 31.0739 97.2427 31.1586 97.6133 31.248C97.984 31.3375 98.2569 31.4295 98.435 31.5238C98.6131 31.6181 98.7511 31.7487 98.8509 31.9132C98.9506 32.0776 99.0008 32.2808 99.0008 32.525C99.0008 32.7451 98.9412 32.9507 98.8201 33.1418C98.6991 33.3329 98.5303 33.4756 98.3114 33.5699C98.0932 33.6642 97.8178 33.7102 97.4923 33.7102C97.0144 33.7102 96.6487 33.5989 96.3947 33.374C96.1381 33.149 95.9857 32.8225 95.9362 32.3944" fill="#006432"/>
<path d="M99.2328 40.076H98.4061L98.0762 39.2053H96.5703L96.2585 40.076H95.4513L96.919 36.2401H97.7243L99.2328 40.076ZM97.8316 38.5571L97.311 37.1326L96.803 38.5571H97.8316Z" fill="#006432"/>
<path d="M99.7107 45.2178C99.7107 46.5456 98.6532 47.6218 97.3492 47.6218C96.0452 47.6218 94.9852 46.5456 94.9852 45.2178C94.9852 43.8899 96.0427 42.8137 97.3492 42.8137C98.6557 42.8137 99.7107 43.8899 99.7107 45.2178Z" fill="#006432"/>
</g>
<defs>
<clipPath id="clip0_351_1155">
<rect width="106" height="53" fill="white"/>
</clipPath>
</defs>
</svg>
