<svg width="46" height="47" viewBox="0 0 46 47" fill="none" xmlns="http://www.w3.org/2000/svg">
<g style="mix-blend-mode:multiply">
<path d="M32.6223 45.9172L1.85723 27.9434C-0.891567 26.3398 -0.551338 23.5314 2.62724 21.6833C5.79687 19.8714 10.5961 19.6268 13.3717 21.2303L44.1458 39.2042C46.8946 40.8077 46.5454 43.6162 43.3758 45.4643C40.1703 47.3215 35.3711 47.5208 32.6223 45.9172Z" fill="#EAEAEA"/>
</g>
<path d="M6.95166 17.3619C6.65141 17.1747 6.30993 17.0657 5.95781 17.0449C5.16092 17.0449 4.61475 17.6337 4.61475 18.7118C4.65809 19.5311 4.89241 20.3284 5.29857 21.0385C5.70473 21.7486 6.27119 22.3514 6.95166 22.7976C7.89181 23.3502 8.74242 23.1781 9.08266 22.4715C9.23358 22.1523 9.30726 21.8014 9.29757 21.4478C9.249 20.6287 9.01152 19.8325 8.60415 19.123C8.19678 18.4135 7.63083 17.8104 6.95166 17.3619Z" fill="#676A68"/>
<path d="M6.05629 16.9724L6.24434 17.0992C5.9913 16.9416 5.70692 16.8426 5.41162 16.8093C5.41162 16.8093 5.41162 16.7278 5.41162 16.7097C5.63442 16.7759 5.85033 16.8639 6.05629 16.9724Z" fill="#4C4C4C"/>
<path d="M9.5394 23.0422C9.53671 23.27 9.51574 23.4972 9.47672 23.7216C9.26713 23.6435 9.06362 23.5496 8.86787 23.4408C9.09943 23.037 9.21421 22.5756 9.19916 22.109C9.20054 21.872 9.17955 21.6354 9.13647 21.4024C9.11183 21.1581 9.05771 20.9177 8.97531 20.6867C8.90913 20.4482 8.82533 20.215 8.72461 19.9891C9.2323 20.9268 9.51163 21.9734 9.5394 23.0422Z" fill="#4C4C4C"/>
<path d="M13.2644 23.169C13.164 21.2645 12.6202 19.4108 11.6772 17.7593C10.7343 16.1078 9.41895 14.7052 7.83845 13.6657C6.37899 12.8232 5.30453 12.5786 4.58823 12.9409C4.40916 13.0225 4.051 13.2218 4.051 13.2218L2.26025 14.2636L2.63632 14.9431L3.38844 16.3201C3.37481 16.495 3.37481 16.6707 3.38844 16.8455C3.59553 18.5308 4.14074 20.1554 4.99064 21.6198C5.84055 23.0842 6.97722 24.3574 8.3309 25.3614C8.39494 25.4109 8.46398 25.4534 8.53684 25.4882L9.56652 27.3001L9.79932 27.7169L11.6617 26.6388C11.6617 26.6388 11.984 26.4214 12.1452 26.3308C12.9063 25.9684 13.2644 24.9084 13.2644 23.169ZM8.78755 23.5858C8.48423 23.6679 8.16684 23.6821 7.85755 23.6273C7.54826 23.5726 7.25451 23.4502 6.9968 23.2687C6.17604 22.7316 5.49205 22.0063 5.00043 21.1515C4.5088 20.2968 4.22341 19.3367 4.16741 18.3494C4.15333 18.2503 4.15333 18.1496 4.16741 18.0505C4.17506 17.602 4.32933 17.1687 4.60613 16.8184C4.88064 16.7475 5.16648 16.7334 5.4465 16.777C5.72652 16.8206 5.99497 16.9209 6.23572 17.072C6.23572 17.072 6.23573 17.072 6.2984 17.072C6.45269 17.159 6.59945 17.2591 6.73713 17.371C7.45233 17.9765 8.05824 18.7029 8.52788 19.5181C8.60398 19.6391 8.66987 19.7664 8.72486 19.8986C9.02861 20.5636 9.19032 21.286 9.19941 22.0185C9.24226 22.5731 9.09699 23.1259 8.78755 23.5858Z" fill="url(#paint0_linear_69_4912)"/>
<path d="M6.05666 14.6894C5.35753 14.2487 4.56002 13.9933 3.73764 13.9465C1.89317 13.8831 0.612793 15.3236 0.612793 17.824C0.716607 19.7298 1.26379 21.5839 2.20978 23.2353C3.15578 24.8868 4.47383 26.2888 6.05666 27.3273C8.24138 28.6047 10.1217 28.2332 11.0081 26.5663C11.3579 25.8262 11.5298 25.0129 11.5095 24.1927C11.4005 22.2871 10.8501 20.4341 9.90294 18.7833C8.95574 17.1325 7.63818 15.7301 6.05666 14.6894ZM9.19944 22.109C9.22223 22.6332 9.07784 23.1509 8.78757 23.5857C8.48426 23.6679 8.16687 23.6821 7.85758 23.6273C7.54828 23.5726 7.25454 23.4501 6.99682 23.2687C6.17607 22.7316 5.49208 22.0063 5.00045 21.1515C4.50883 20.2968 4.22343 19.3367 4.16743 18.3494C4.13719 17.7992 4.30231 17.2562 4.63302 16.8183C4.90753 16.7474 5.19337 16.7334 5.47339 16.777C5.75341 16.8206 6.02185 16.9209 6.26261 17.072C6.43273 17.1807 6.62075 17.3076 6.79088 17.4344C7.50608 18.0398 8.11199 18.7663 8.58163 19.5815C8.65773 19.7025 8.72362 19.8298 8.77861 19.962C9.06759 20.6394 9.21104 21.3713 9.19944 22.109Z" fill="url(#paint1_linear_69_4912)"/>
<path d="M5.86843 15.4504C5.16693 15.0013 4.35269 14.7654 3.52255 14.771C3.21586 14.7688 2.91171 14.8272 2.62718 14.9431C1.51691 15.3689 0.836426 16.5466 0.836426 18.3494C0.93799 20.1054 1.44538 21.8129 2.31778 23.3344C3.19018 24.8559 4.40324 26.1491 5.85947 27.1099C7.32788 28.0158 8.67096 28.0158 9.59319 27.3454C9.92287 27.108 10.1953 26.7983 10.3901 26.4395C10.7478 25.7541 10.9207 24.9854 10.8915 24.2109C10.7934 22.454 10.2875 20.7453 9.41482 19.2232C8.5421 17.7011 7.32712 16.4086 5.86843 15.4504ZM8.7605 23.6039C8.45719 23.6861 8.1398 23.7003 7.8305 23.6455C7.52121 23.5907 7.22746 23.4683 6.96975 23.2868C6.14899 22.7498 5.46501 22.0244 4.97338 21.1697C4.48176 20.3149 4.19636 19.3549 4.14036 18.3675C4.12577 18.2684 4.12577 18.1677 4.14036 18.0686C4.14801 17.6201 4.30229 17.1869 4.57909 16.8365C4.85404 16.7653 5.1405 16.7519 5.42077 16.7971C5.70104 16.8423 5.9692 16.9451 6.20868 17.0992C6.2218 17.1016 6.23423 17.1069 6.24507 17.1147C6.25592 17.1225 6.2649 17.1327 6.27136 17.1445C6.41462 17.2261 6.55787 17.3348 6.71008 17.4344C7.42084 18.0444 8.02606 18.7701 8.50083 19.5815C8.58142 19.7084 8.61722 19.8352 8.68885 19.962C8.99099 20.628 9.15553 21.3493 9.17237 22.0819C9.18648 22.6092 9.03952 23.128 8.75154 23.5677C8.75154 23.5677 8.78736 23.6129 8.7605 23.6129V23.6039Z" fill="url(#paint2_linear_69_4912)"/>
<path d="M5.9492 16.6644C5.42472 16.3353 4.82038 16.1597 4.20324 16.157C3.97945 16.1576 3.75773 16.2006 3.54961 16.2839C2.71691 16.6009 2.20654 17.4797 2.20654 18.8205C2.28454 20.1277 2.66359 21.3984 3.31344 22.5309C3.96329 23.6635 4.86591 24.6266 5.9492 25.3433C6.3449 25.6427 6.81846 25.8184 7.31161 25.849C7.80477 25.8796 8.29601 25.7636 8.72487 25.5154C8.96868 25.3355 9.17042 25.1035 9.31582 24.836C9.58431 24.3269 9.71412 23.7547 9.69189 23.1781C9.61883 21.8709 9.24175 20.5997 8.59139 19.4678C7.94103 18.3359 7.03575 17.3754 5.9492 16.6644ZM8.78756 23.5948C8.48424 23.677 8.16685 23.6912 7.85756 23.6364C7.54827 23.5816 7.25452 23.4592 6.99681 23.2777C6.17605 22.7407 5.49206 22.0154 5.00044 21.1606C4.50881 20.3058 4.22342 19.3458 4.16742 18.3585C4.15283 18.2594 4.15283 18.1586 4.16742 18.0595C4.17507 17.611 4.32934 17.1778 4.60614 16.8274C4.8811 16.7563 5.16755 16.7428 5.44782 16.788C5.7281 16.8332 5.99625 16.9361 6.23573 17.0902C6.24885 17.0925 6.26128 17.0978 6.27213 17.1056C6.28297 17.1135 6.29196 17.1237 6.29841 17.1354C6.44167 17.217 6.58492 17.3257 6.73714 17.4254C7.4479 18.0353 8.05312 18.761 8.52789 19.5724C8.60847 19.6993 8.64428 19.8261 8.71591 19.9529C9.01805 20.6189 9.18258 21.3403 9.19942 22.0728C9.22369 22.6114 9.07958 23.1439 8.78756 23.5948Z" fill="#2C2C2C"/>
<path d="M9.53955 23.0422C9.53685 23.27 9.51589 23.4973 9.47687 23.7217C9.44909 24.0727 9.33234 24.4105 9.13785 24.7025C8.94336 24.9945 8.67772 25.2308 8.36661 25.3886C7.98144 25.5121 7.57369 25.5461 7.17373 25.4881C6.77376 25.4301 6.39187 25.2815 6.05653 25.0534C5.05532 24.386 4.22329 23.4897 3.62758 22.4368C3.03188 21.384 2.68921 20.2042 2.62725 18.9927C2.591 18.5971 2.64844 18.1984 2.79481 17.8298C2.94118 17.4611 3.17226 17.133 3.46891 16.8728C3.76152 16.6743 4.09956 16.5551 4.45071 16.5265C4.80186 16.498 5.15436 16.561 5.47454 16.7097C5.69219 16.7857 5.90209 16.8828 6.10131 16.9996L6.28934 17.1264C6.03629 16.9688 5.75194 16.8699 5.45664 16.8365C5.18969 16.7967 4.91726 16.8183 4.65975 16.8999C4.32904 17.3378 4.16392 17.8808 4.19416 18.431C4.25016 19.4183 4.53556 20.3783 5.02718 21.2331C5.5188 22.0879 6.20279 22.8132 7.02355 23.3502C7.28126 23.5317 7.57501 23.6541 7.8843 23.7089C8.1936 23.7637 8.51099 23.7495 8.8143 23.6673C8.85343 23.6271 8.88124 23.5771 8.89488 23.5224C9.12644 23.1186 9.24122 22.6572 9.22616 22.1906C9.22755 21.9536 9.20656 21.717 9.16348 21.484C9.13884 21.2397 9.08472 20.9993 9.00232 20.7683C8.93614 20.5298 8.85233 20.2966 8.75162 20.0707C9.23776 20.9863 9.50747 22.0034 9.53955 23.0422Z" fill="#9FA1A0"/>
<path d="M6.48616 24.9175C5.47448 24.2566 4.63159 23.3631 4.02628 22.3097C3.42097 21.2564 3.07039 20.0733 3.00316 18.8567C2.96691 18.4611 3.02432 18.0625 3.17069 17.6938C3.31706 17.3252 3.54814 16.9971 3.84479 16.7368C3.935 16.6709 4.0309 16.6133 4.13132 16.5647C3.87625 16.6143 3.63491 16.7194 3.42399 16.8727C3.12734 17.133 2.89623 17.4611 2.74986 17.8297C2.6035 18.1984 2.54608 18.597 2.58234 18.9926C2.64928 20.2082 2.99879 21.3906 3.60245 22.4437C4.20611 23.4968 5.04685 24.3909 6.05637 25.0534C6.39171 25.2814 6.7736 25.43 7.17356 25.4881C7.57353 25.5461 7.98128 25.5121 8.36645 25.3886H8.43807C7.75267 25.4731 7.06005 25.3059 6.48616 24.9175Z" fill="#686B6A"/>
<path d="M8.76041 23.613C8.259 24.229 7.38152 24.3106 6.36974 23.7398C5.55126 23.1968 4.86984 22.4674 4.38007 21.61C3.89029 20.7526 3.60578 19.7911 3.54932 18.8024C3.54932 17.7425 3.96119 17.063 4.61481 16.8456C4.28411 17.2834 4.11899 17.8264 4.14923 18.3766C4.20523 19.364 4.49063 20.324 4.98225 21.1787C5.47387 22.0335 6.15783 22.7589 6.97859 23.2959C7.23521 23.4761 7.52745 23.5978 7.83508 23.6525C8.14272 23.7072 8.45843 23.6937 8.76041 23.613Z" fill="#CCCECD"/>
<path d="M6.7729 17.4616C6.60278 17.3348 6.41475 17.208 6.24463 17.0992L6.36997 17.1627C6.51688 17.2436 6.6524 17.3442 6.7729 17.4616Z" fill="#0C100F"/>
<path d="M8.52757 19.6087C8.05793 18.7935 7.45202 18.067 6.73682 17.4615C7.50174 18.0145 8.11743 18.7527 8.52757 19.6087Z" fill="#0C100F"/>
<path d="M6.58499 17.6065C6.28526 17.4167 5.94387 17.3047 5.59111 17.2804C4.79423 17.2804 4.24805 17.8783 4.24805 18.9564C4.29422 19.775 4.52974 20.5712 4.93565 21.2809C5.34155 21.9905 5.9065 22.5938 6.58499 23.0422C7.52513 23.5857 8.37572 23.4227 8.71596 22.707C8.86615 22.3908 8.93982 22.043 8.93087 21.6923C8.8837 20.8729 8.6468 20.0762 8.23931 19.3665C7.83181 18.6568 7.26514 18.0539 6.58499 17.6065Z" fill="#9FA1A0"/>
<path d="M6.15511 18.748C5.96254 18.6285 5.74464 18.5571 5.5194 18.5397C5.00903 18.5397 4.62402 18.9202 4.62402 19.6087C4.65164 20.1322 4.80156 20.6417 5.06149 21.0952C5.32142 21.5488 5.68393 21.9335 6.11928 22.2178C6.71919 22.5711 7.23852 22.4624 7.48027 22.0094C7.57327 21.8051 7.61919 21.5821 7.61457 21.3572C7.58884 20.8373 7.44349 20.3308 7.19011 19.8778C6.93673 19.4248 6.58233 19.038 6.15511 18.748Z" fill="#B9BAB9"/>
<path d="M6.15473 19.8804C6.08747 19.8373 6.0104 19.8124 5.93089 19.808C5.75181 19.808 5.62646 19.9439 5.62646 20.1794C5.63978 20.3613 5.69437 20.5377 5.78599 20.6948C5.87761 20.8519 6.00379 20.9856 6.15473 21.0853C6.36067 21.2031 6.5487 21.1669 6.62928 21.0129C6.64448 20.9382 6.64448 20.8611 6.62928 20.7864C6.62411 20.6087 6.57863 20.4345 6.49635 20.2775C6.41406 20.1204 6.29718 19.9845 6.15473 19.8804Z" fill="#959795"/>
<path d="M6.51301 18.0052C4.76702 14.9521 4.63272 13.6385 2.20625 12.7779C-0.220212 11.9172 0.343881 6.14638 3.612 4.33449C6.88012 2.52261 10.39 11.2378 10.39 11.2378L6.51301 18.0052Z" fill="#313942"/>
<path d="M33.2133 28.5594C32.4131 28.737 31.5777 28.6481 30.8316 28.3057C29.7034 27.9705 17.2577 20.3697 17.2577 20.3697L12.4764 23.1509L11.7153 26.4667C11.7153 26.4667 21.7525 32.5999 22.8717 32.9351C23.6169 33.2799 24.4522 33.372 25.2534 33.1978L30.0168 30.4166L33.2133 28.5594Z" fill="#9BA1A6"/>
<path d="M24.5641 32.1107C24.0561 32.0661 23.5563 31.9534 23.0777 31.7755C22.2988 31.5218 16.0938 27.7984 10.5425 24.4645L17.213 20.569C20.2125 22.3809 29.5155 28.043 30.6437 28.3691L31.0913 28.505L25.0117 32.0472C24.8647 32.0822 24.7149 32.1034 24.5641 32.1107Z" fill="#535C5E"/>
<path d="M23.5161 23.7036C23.8205 25.9775 30.7239 28.7315 30.7239 28.7315C30.7239 28.7315 32.264 28.5775 30.9567 27.6353C29.6495 26.6932 23.5161 23.7036 23.5161 23.7036Z" fill="#535C5E"/>
<path d="M22.1015 25.1984C22.1015 25.1984 25.6024 13.6929 21.6091 9.57087C17.9649 5.81121 12.7538 4.71503 11.4197 5.168C8.25902 6.24607 6.04743 7.88581 5.7251 13.2218C10.39 15.9487 22.1015 25.1984 22.1015 25.1984Z" fill="#AFB4B8"/>
<path d="M23.9461 12.9591C23.0877 14.5651 22.4663 16.2895 22.1016 18.0776C21.9647 20.4492 21.9647 22.8268 22.1016 25.1983L17.3472 27.9796L7.49804 13.9466C7.49804 13.9466 3.74643 7.26975 6.80862 4.67876C9.20822 2.64945 13.6672 4.79654 13.6672 4.79654L24.5102 11.6545L23.9461 12.9591Z" fill="#AFB4B8"/>
<path d="M11.8676 2.70382C7.76681 0.420848 3.6839 3.70942 2.20653 5.42165C0.729158 7.13388 3.68389 10.6852 5.27766 12.0894C6.87142 13.4936 13.9359 22.399 15.7715 22.1363C17.607 21.8735 25.8176 18.748 25.2356 14.7438C24.6536 10.7395 11.8676 2.70382 11.8676 2.70382Z" fill="#AFB4B8"/>
<path d="M13.8014 2.86681L24.2772 9.74291C24.2772 9.74291 25.3338 12.3339 25.0383 12.5785C24.7428 12.8231 21.7612 14.7437 21.7612 14.7437L12.7448 7.05226C11.9117 6.10737 11.1287 5.11851 10.3989 4.08984C10.2736 3.70935 11.6077 1.87028 11.6435 1.85216C11.6793 1.83405 13.8014 2.86681 13.8014 2.86681Z" fill="#484848"/>
<path d="M24.8237 33.3156L26.516 32.3191C26.2912 32.7193 25.9462 33.0367 25.5311 33.225C25.3042 33.3054 25.0632 33.3363 24.8237 33.3156Z" fill="#AFB4B8"/>
<path d="M34.9142 24.2652C34.6006 25.0318 34.1482 25.7324 33.5801 26.3308C33.2041 26.7747 32.8459 27.1642 32.6221 27.4723L32.3714 27.8346C31.279 29.4472 30.894 30.6431 29.5778 30.5525L29.3808 30.6612L29.148 30.7971L27.2857 31.857L26.5156 32.31C26.9006 31.7664 27.2857 31.0507 27.8676 30.2444C28.0288 30.018 28.2795 29.7371 28.5481 29.42L28.6198 29.3385C29.0009 28.9133 29.3566 28.4656 29.6853 27.9977C29.6836 27.9766 29.6836 27.9554 29.6853 27.9343C29.8672 27.6527 30.0117 27.3481 30.115 27.0284C30.4463 26.0137 29.8912 23.7035 29.2823 21.0672C28.387 17.0902 27.3483 12.3521 29.0316 10.0782C29.2014 9.84744 29.4035 9.64299 29.6315 9.4712C30.5993 8.78873 31.6613 8.25451 32.7832 7.8858C32.7881 8.41868 32.821 8.9509 32.8818 9.48024C33.4369 14.2908 35.6574 21.9913 34.9142 24.2652Z" fill="#AFB4B8"/>
<path d="M34.7532 27.6716L34.4219 27.3454C34.4219 27.3454 38.0481 23.4861 37.9407 21.0038C37.8512 19.1919 36.7678 15.4776 36.1499 13.249L35.8097 12.0803C35.6754 11.5911 35.5501 11.1744 35.4337 10.8029C35.1113 9.73392 35.371 10.975 35.1113 9.22658L35.559 9.15411C35.8187 10.8754 35.559 9.61613 35.8724 10.667C35.9888 11.0566 36.1141 11.4643 36.2574 11.9535C36.338 12.2615 36.4544 12.6601 36.5887 13.1131C37.2423 15.3689 38.3794 19.1285 38.4242 20.9766C38.5137 23.7035 34.9054 27.5085 34.7532 27.6716Z" fill="#9DA2B0"/>
<path d="M32.7476 28.6772C34.1623 28.795 34.6995 27.5538 35.9978 25.76C36.8477 24.7506 37.553 23.6253 38.093 22.4171C38.9167 19.8624 35.0219 11.0838 34.9861 6.63562C34.9861 6.63562 32.1835 7.54155 31.2434 8.82798C31.2434 13.2671 34.1534 22.6436 33.3296 25.1893C32.9357 26.4123 31.5389 27.6535 31.0375 28.4054C29.7481 30.2173 29.4079 31.5762 27.9932 31.4584L32.7476 28.6772Z" fill="#AFB4B8"/>
<path d="M37.1083 24.3377L34.7893 27.5538L34.3236 28.2061C32.5151 30.2997 30.2581 31.9481 27.7247 33.0257C27.1431 33.2414 26.5439 33.4051 25.934 33.5149H25.9071C25.5668 33.577 25.2229 33.6163 24.8774 33.6327C25.1065 33.5225 25.3202 33.3824 25.5132 33.2159C25.8577 32.9326 26.1865 32.6301 26.4981 32.31L28.5127 29.4653L28.6022 29.3476L29.5513 28.0068L29.7035 27.9433L30.196 27.735H30.2676L30.581 27.5991L33.5357 26.3761L33.7148 26.3036L37.1083 24.3377Z" fill="#9BA1A6"/>
<path d="M37.0635 34.9826C36.7632 34.7953 36.4217 34.6863 36.0696 34.6655C35.2727 34.6655 34.7266 35.2543 34.7266 36.3324C34.7713 37.1513 35.0062 37.9481 35.4123 38.658C35.8183 39.3679 36.384 39.9709 37.0635 40.4182C38.0036 40.9618 38.8542 40.7987 39.1945 40.092C39.3444 39.7726 39.418 39.4219 39.4094 39.0683C39.3608 38.2493 39.1233 37.4531 38.716 36.7436C38.3086 36.0341 37.7426 35.431 37.0635 34.9826Z" fill="#676A68"/>
<path d="M36.1767 34.5748L36.3647 34.7017C36.1084 34.5426 35.8215 34.4406 35.5231 34.4027C35.5131 34.3672 35.5131 34.3295 35.5231 34.294C35.7472 34.372 35.9656 34.4658 36.1767 34.5748Z" fill="#4C4C4C"/>
<path d="M39.6507 40.6265C39.6533 40.8546 39.6323 41.0823 39.588 41.306C39.3786 41.2311 39.175 41.1403 38.9792 41.0342C39.2128 40.6276 39.3306 40.1635 39.3194 39.6934C39.3173 39.4591 39.2933 39.2255 39.2478 38.9958C39.2251 38.7512 39.1709 38.5106 39.0866 38.2801C39.019 38.0391 38.9353 37.803 38.8359 37.5735C39.3427 38.5115 39.6219 39.5579 39.6507 40.6265Z" fill="#4C4C4C"/>
<path d="M43.3757 40.7534C43.2747 38.8502 42.7305 36.9981 41.7875 35.3482C40.8446 33.6982 39.5296 32.2971 37.9498 31.2591C36.4903 30.4075 35.4159 30.172 34.6996 30.5253L34.1623 30.8152L32.3716 31.857L32.7477 32.5365L33.4998 33.9135C33.4866 34.0884 33.4866 34.2641 33.4998 34.4389C33.7057 36.1258 34.2504 37.7522 35.1003 39.2182C35.9503 40.6842 37.0875 41.9589 38.4422 42.9639L38.6482 43.0907L39.6778 44.9026L39.9107 45.3284L41.773 44.2503C41.773 44.2503 42.0954 44.0329 42.2565 43.9423C43.0176 43.5527 43.3757 42.5018 43.3757 40.7534ZM38.8989 41.1792C38.5949 41.2594 38.2772 41.2718 37.968 41.2155C37.6588 41.1592 37.3654 41.0355 37.1081 40.853C36.2887 40.3175 35.6061 39.5935 35.1159 38.7402C34.6257 37.8868 34.3419 36.9283 34.2877 35.9428C34.2779 35.8434 34.2779 35.7432 34.2877 35.6438C34.296 35.1955 34.4502 34.7625 34.7264 34.4118C35.0024 34.3406 35.2897 34.3264 35.5712 34.37C35.8527 34.4136 36.1226 34.5141 36.3649 34.6654C36.3649 34.6654 36.4097 34.6654 36.4276 34.7107C36.5838 34.7945 36.7309 34.8947 36.8664 35.0097C37.5769 35.6163 38.1822 36.339 38.6571 37.1477C38.7269 37.2708 38.7897 37.3979 38.8452 37.5282C39.1497 38.1933 39.3144 38.9152 39.3286 39.6481C39.3574 40.1926 39.2062 40.7313 38.8989 41.1792Z" fill="url(#paint3_linear_69_4912)"/>
<path d="M36.177 32.2738C35.4706 31.8419 34.6724 31.5872 33.849 31.5309C32.0045 31.4765 30.7241 32.917 30.7241 35.4174C30.8303 37.3225 31.3795 39.1753 32.327 40.8251C33.2746 42.4749 34.5936 43.8751 36.177 44.9117C38.3527 46.18 40.233 45.8176 41.1194 44.1507C41.4693 43.4106 41.6411 42.5972 41.6208 41.7771C41.5093 39.8731 40.9589 38.0219 40.0136 36.3717C39.0683 34.7215 37.7544 33.3181 36.177 32.2738ZM39.3197 39.6934C39.3412 40.2216 39.1936 40.7427 38.8989 41.1792C38.5949 41.2594 38.2772 41.2718 37.968 41.2155C37.6588 41.1592 37.3654 41.0355 37.1081 40.853C36.2887 40.3175 35.6061 39.5935 35.1159 38.7402C34.6258 37.8868 34.342 36.9283 34.2877 35.9428C34.2541 35.3937 34.4161 34.8505 34.7443 34.4118C35.0203 34.3407 35.3076 34.3265 35.5891 34.37C35.8706 34.4136 36.1406 34.5141 36.3829 34.6655L36.9022 35.0278C37.6128 35.6345 38.2181 36.3571 38.693 37.1658C38.7627 37.2889 38.8255 37.416 38.881 37.5463C39.1799 38.2218 39.3355 38.9533 39.3376 39.6934H39.3197Z" fill="url(#paint4_linear_69_4912)"/>
<path d="M35.9801 33.0438C35.2813 32.5958 34.4703 32.36 33.6432 32.3643C33.3365 32.3624 33.0324 32.4208 32.7478 32.5364C31.6375 32.9532 30.957 34.14 30.957 35.9428C31.06 37.6985 31.5679 39.4053 32.4402 40.9266C33.3125 42.4479 34.5248 43.7413 35.9801 44.7032C37.4485 45.6092 38.7916 45.6092 39.7138 44.9297C40.0456 44.6948 40.3185 44.3845 40.5107 44.0238C40.8676 43.3381 41.0405 42.5696 41.0121 41.7952C40.9138 40.0386 40.4067 38.3303 39.5323 36.8095C38.6579 35.2887 37.4407 33.9984 35.9801 33.0438ZM38.8721 41.1972C38.5695 41.2807 38.2524 41.2964 37.9432 41.2432C37.6339 41.19 37.3398 41.0692 37.0814 40.8892C36.2623 40.3512 35.5801 39.6254 35.09 38.7707C34.6 37.916 34.3159 36.9565 34.2609 35.97C34.2512 35.8706 34.2512 35.7704 34.2609 35.671C34.2651 35.2219 34.4198 34.7875 34.6997 34.4389C34.9742 34.368 35.26 34.354 35.5401 34.3975C35.8201 34.4411 36.0885 34.5415 36.3293 34.6926C36.3293 34.6926 36.374 34.6926 36.3919 34.7379C36.4098 34.7832 36.6874 34.9281 36.8307 35.0369C37.5413 35.6435 38.1465 36.3661 38.6214 37.1749C38.702 37.3017 38.7378 37.4285 38.8095 37.5554C39.114 38.2205 39.2787 38.9424 39.293 39.6753C39.3144 40.2034 39.1668 40.7245 38.8721 41.161C38.8721 41.161 38.899 41.1972 38.8721 41.1972Z" fill="url(#paint5_linear_69_4912)"/>
<path d="M36.0605 34.2578C35.536 33.9287 34.9317 33.7531 34.3146 33.7504C34.0908 33.751 33.8691 33.794 33.6609 33.8773C32.8372 34.1944 32.3179 35.0731 32.3179 36.4139C32.3951 37.7201 32.774 38.9897 33.4239 40.1209C34.0739 41.2521 34.9769 42.2134 36.0605 42.9276C36.4542 43.2314 36.9283 43.4099 37.4225 43.4406C37.9167 43.4712 38.4088 43.3526 38.8362 43.0998C39.0817 42.9254 39.2839 42.696 39.4272 42.4294C39.6956 41.9203 39.8254 41.3481 39.8032 40.7715C39.7301 39.4643 39.3531 38.1931 38.7027 37.0612C38.0524 35.9293 37.1471 34.9688 36.0605 34.2578ZM38.8989 41.1792C38.5962 41.2626 38.2792 41.2783 37.9699 41.2251C37.6606 41.1719 37.3665 41.0511 37.1081 40.8711C36.289 40.3331 35.6068 39.6073 35.1168 38.7526C34.6267 37.8979 34.3427 36.9384 34.2877 35.9519C34.2779 35.8525 34.2779 35.7523 34.2877 35.6529C34.2919 35.2038 34.4466 34.7694 34.7264 34.4208C35.0009 34.3499 35.2868 34.3358 35.5668 34.3794C35.8468 34.423 36.1153 34.5234 36.356 34.6745C36.356 34.6745 36.4008 34.6745 36.4187 34.7198C36.4366 34.7651 36.7142 34.91 36.8574 35.0187C37.568 35.6254 38.1733 36.348 38.6482 37.1568C38.7288 37.2836 38.7646 37.4104 38.8362 37.5373C39.1408 38.2024 39.3054 38.9243 39.3197 39.6572C39.3491 40.1976 39.2011 40.7326 38.8989 41.1792Z" fill="#2C2C2C"/>
<path d="M39.6508 40.6265C39.6534 40.8546 39.6324 41.0823 39.5882 41.306C39.5619 41.6586 39.4458 41.9982 39.2513 42.292C39.0567 42.5857 38.7903 42.8234 38.4779 42.982C38.094 43.1041 37.6879 43.1373 37.2896 43.0793C36.8913 43.0213 36.511 42.8735 36.1768 42.6468C35.1639 41.985 34.3203 41.09 33.7149 40.035C33.1095 38.98 32.7596 37.795 32.6938 36.577C32.6582 36.1814 32.716 35.783 32.8624 35.4145C33.0087 35.0459 33.2393 34.7178 33.5354 34.457C33.8279 34.2587 34.1654 34.1389 34.5163 34.1088C34.8671 34.0787 35.2198 34.1393 35.5411 34.2849C35.7596 34.3696 35.972 34.4695 36.1768 34.5839L36.3648 34.7107C36.1085 34.5516 35.8215 34.4497 35.5232 34.4118C35.2563 34.3679 34.983 34.3896 34.7263 34.4752C34.3981 34.9139 34.236 35.457 34.2696 36.0062C34.3239 36.9917 34.6077 37.9502 35.0978 38.8035C35.588 39.6569 36.2707 40.3809 37.0901 40.9164C37.3473 41.0989 37.6408 41.2226 37.95 41.2789C38.2592 41.3352 38.5768 41.3228 38.8808 41.2425C38.9199 41.2023 38.9478 41.1523 38.9614 41.0976C39.195 40.6911 39.3128 40.227 39.3016 39.7568C39.2995 39.5225 39.2755 39.289 39.23 39.0593C39.2073 38.8146 39.1531 38.574 39.0689 38.3435C39.0012 38.1025 38.9175 37.8664 38.8182 37.6369C39.3217 38.5544 39.6068 39.578 39.6508 40.6265Z" fill="#9FA1A0"/>
<path d="M36.5976 42.5109C35.5858 41.8481 34.7429 40.9528 34.1376 39.8981C33.5324 38.8433 33.1819 37.6588 33.1146 36.4411C33.0783 36.0455 33.1358 35.6468 33.2821 35.2782C33.4285 34.9095 33.6596 34.5815 33.9562 34.3212C34.0462 34.25 34.1457 34.192 34.2517 34.149C33.9922 34.1927 33.7466 34.2983 33.5354 34.4571C33.2393 34.7178 33.0087 35.0459 32.8624 35.4145C32.716 35.783 32.6582 36.1814 32.6938 36.577C32.7596 37.7951 33.1095 38.9801 33.7149 40.035C34.3203 41.09 35.1639 41.985 36.1768 42.6468C36.511 42.8735 36.8913 43.0213 37.2896 43.0793C37.6879 43.1373 38.094 43.1041 38.4779 42.982H38.5495C37.8644 43.0625 37.1731 42.8957 36.5976 42.5109Z" fill="#686B6A"/>
<path d="M38.8722 41.2064C38.3708 41.8133 37.4933 41.9039 36.4905 41.3332C35.6692 40.7903 34.9853 40.0599 34.4939 39.2007C34.0025 38.3416 33.7172 37.3778 33.6611 36.3867C33.6611 35.3268 34.073 34.6564 34.7266 34.439C34.3984 34.8777 34.2364 35.4208 34.27 35.97C34.3242 36.9555 34.608 37.914 35.0982 38.7673C35.5884 39.6207 36.271 40.3447 37.0904 40.8802C37.3466 41.0614 37.6385 41.1843 37.946 41.2406C38.2536 41.2969 38.5696 41.2852 38.8722 41.2064Z" fill="#CCCECD"/>
<path d="M36.8841 35.055L36.3647 34.6926L36.4901 34.756C36.6328 34.8394 36.765 34.9398 36.8841 35.055Z" fill="#0C100F"/>
<path d="M38.6482 37.193C38.1733 36.3843 37.568 35.6616 36.8574 35.055C37.6215 35.6052 38.2371 36.3402 38.6482 37.193Z" fill="#0C100F"/>
<path d="M36.7053 35.1909C36.4013 35.0045 36.0572 34.8957 35.7024 34.8738C34.9056 34.8738 34.3594 35.4717 34.3594 36.5407C34.4044 37.3607 34.6404 38.1582 35.0481 38.8682C35.4558 39.5783 36.0236 40.1808 36.7053 40.6265C37.6006 41.1791 38.4512 41.0161 38.8273 40.3004C38.9782 39.9812 39.0519 39.6303 39.0422 39.2767C38.9953 38.4582 38.7595 37.6623 38.3537 36.9527C37.9478 36.2432 37.3832 35.6398 36.7053 35.1909Z" fill="#9FA1A0"/>
<path d="M36.2665 36.3867C36.0745 36.2659 35.8562 36.1944 35.6307 36.1783C35.1204 36.1783 34.7354 36.5589 34.7354 37.2474C34.7644 37.7706 34.9149 38.2795 35.1747 38.7328C35.4345 39.1861 35.7963 39.5711 36.2306 39.8565C36.8305 40.2098 37.3498 40.1011 37.5916 39.6481C37.6878 39.4449 37.7339 39.221 37.7259 38.9958C37.7009 38.4758 37.5558 37.969 37.3024 37.5159C37.049 37.0628 36.6942 36.6761 36.2665 36.3867Z" fill="#B9BAB9"/>
<path d="M36.2664 37.4648C36.1986 37.4241 36.1214 37.4022 36.0426 37.4014C35.8635 37.4014 35.7471 37.5282 35.7471 37.7728C35.7587 37.9541 35.8116 38.1302 35.9017 38.2874C35.9918 38.4446 36.1166 38.5785 36.2664 38.6787C36.4723 38.7965 36.6604 38.7603 36.741 38.5972C36.7798 38.5284 36.7984 38.4499 36.7947 38.3707C36.7814 38.1888 36.7268 38.0124 36.6351 37.8553C36.5435 37.6982 36.4174 37.5646 36.2664 37.4648Z" fill="#959795"/>
<path d="M36.0693 38.878C36.1588 38.7875 36.1946 38.7059 36.1767 38.6335L35.4604 35.671C35.4604 35.7435 34.565 31.8842 34.5113 31.9748C34.1615 32.1677 33.7604 32.2438 33.3652 32.1922C33.5981 33.4664 33.897 34.7274 34.2606 35.97L34.9769 38.9233C34.9769 39.0139 35.0844 39.0774 35.2276 39.1045C35.3758 39.1289 35.5273 39.1213 35.6724 39.0823C35.8174 39.0432 35.9527 38.9736 36.0693 38.878Z" fill="url(#paint6_linear_69_4912)"/>
<path d="M30.679 29.0214C31.9075 27.605 33.5857 26.6663 35.4246 26.367C35.5438 26.3585 35.6635 26.3585 35.7827 26.367C39.006 26.1768 44.244 31.0598 44.8528 35.0278C44.8528 35.3449 43.5725 36.4049 42.31 36.5136C41.1281 36.0425 39.5075 32.3915 37.8331 31.1323C37.1425 30.9119 36.4017 30.9119 35.7111 31.1323C34.4665 31.7846 33.983 32.165 33.598 32.3553C33.213 32.5455 31.5834 32.0292 31.5834 32.0292C31.6254 31.4158 31.7305 30.8086 31.8968 30.2173C31.0641 29.9093 30.2314 29.6646 30.679 29.0214Z" fill="#BEC3C7"/>
<path d="M42.3282 36.4773C41.144 36.212 40.0872 35.5397 39.3377 34.5749C38.3707 33.4605 34.3594 31.9567 33.07 32.5999C31.7807 33.2431 31.342 33.6327 30.9659 33.8229C30.5899 34.0132 28.9424 33.4968 28.9424 33.4968C28.9424 33.4968 29.202 28.0611 33.1865 27.8528C36.4814 27.6263 41.7194 32.5093 42.3282 36.4773Z" fill="#AFB4B8"/>
<path d="M35.9263 26.8562C36.3561 26.8562 36.5351 27.2277 36.1591 27.3726C35.6583 27.4744 35.1475 27.5169 34.6369 27.4995C34.0258 27.5438 33.4234 27.6718 32.8462 27.8799C33.395 27.4891 33.9986 27.1837 34.6369 26.974C35.0544 26.8469 35.4931 26.8069 35.9263 26.8562Z" fill="#232323"/>
<path d="M33.2578 26.7566L33.3921 27.6625C33.5354 27.6625 34.2875 27.4814 34.7531 27.4723H35.6037L35.3798 25.7872C34.5961 25.9006 33.8602 26.2367 33.2578 26.7566Z" fill="#959795"/>
<path d="M24.7607 33.6689C24.5263 33.6645 24.2927 33.6402 24.0623 33.5964C22.933 33.3753 21.8585 32.9287 20.9017 32.2828C19.2631 31.3768 12.7359 27.3997 12.6553 27.3454L12.9776 26.7928C13.0582 26.8471 19.5855 30.788 21.2151 31.7211C22.1135 32.3327 23.1244 32.7548 24.1877 32.9622C24.7431 33.1481 25.3394 33.1702 25.9068 33.0257C27.1661 31.2315 28.2374 29.3096 29.1033 27.291C29.3044 25.6159 29.2742 23.9207 29.0138 22.254C28.8884 21.4568 28.5661 19.1557 27.9124 16.0392C27.3036 13.104 28.6735 11.736 28.5661 10.1778L29.345 9.56177C29.4525 11.0928 27.9304 13.0043 28.5303 15.9034C29.0854 18.5578 30.0524 21.5745 30.1957 22.4624C30.4929 23.9523 30.5982 25.4748 30.5091 26.9921C30.2763 28.1426 26.4709 32.9804 26.2202 33.2703L26.1128 33.3518C25.6923 33.5617 25.2296 33.6702 24.7607 33.6689Z" fill="#AFB4B8"/>
<path d="M30.3213 27.9705C30.3213 28.0974 30.3213 28.2695 30.3213 28.4507C30.3048 28.9649 30.1764 29.4691 29.9453 29.9274C29.8061 30.122 29.6471 30.3011 29.4707 30.4619L29.1573 30.7699C28.1008 31.7845 26.3458 33.2522 25.9877 33.4877C25.925 33.4877 25.9071 33.533 25.934 33.4877C26.029 33.3815 26.1307 33.2817 26.2384 33.1888C26.6501 32.7842 27.0082 32.3275 27.3039 31.8298C27.7756 31.0643 28.1916 30.2649 28.5485 29.4381C28.9066 28.6319 29.1125 28.0339 29.1125 28.0339C29.2199 28.0712 29.3365 28.0712 29.4438 28.0339L29.5513 27.9887L29.7035 27.9343L30.2049 27.7169H30.2765C30.2765 27.7169 30.3213 27.7984 30.3213 27.9705Z" fill="#9BA1A6"/>
<path d="M41.6386 24.3467C40.5373 26.7113 36.2664 27.2095 34.9054 27.5266H34.789C33.9891 27.6668 33.182 27.7606 32.3715 27.8074C31.7179 27.8618 31.0463 27.8981 30.4912 27.9343H30.3211H29.6854H29.5511H29.1123L29.3272 20.9948L29.5421 14.3452L29.5869 12.9681L30.3927 12.1165L31.6104 10.812L32.9266 9.40777L35.2904 6.89832C37.0275 9.04652 38.5286 11.3794 39.7673 13.8559C40.4461 15.4125 41.0204 17.0136 41.4864 18.6484C41.5849 19.0198 41.6744 19.3731 41.7461 19.7083C42.1758 21.8916 42.0863 23.3774 41.6386 24.3467Z" fill="#BEC3C7"/>
<path d="M29.5422 14.4357C30.169 17.4435 31.5299 23.7216 31.333 24.999C31.1686 25.8673 30.9381 26.7215 30.6435 27.5538C30.6435 27.6897 30.554 27.8256 30.5092 27.9615C30.4645 28.0974 30.3928 28.2876 30.3301 28.4507C30.0705 29.1301 29.7929 29.8277 29.4795 30.4619L29.3989 30.634C29.0147 31.5351 28.4508 32.3462 27.7425 33.0166C27.1609 33.2324 26.5616 33.3961 25.9517 33.5058C25.8891 33.5058 25.8712 33.5511 25.898 33.5058C25.5577 33.5679 25.2138 33.6073 24.8683 33.6236C25.0974 33.5135 25.3111 33.3734 25.5041 33.2069C25.28 33.286 25.0422 33.3169 24.8057 33.2975L26.4979 32.3009C26.8829 31.7573 27.268 31.0417 27.85 30.2354C28.0111 30.0089 28.2618 29.728 28.5304 29.411C28.8886 28.6047 29.0945 28.0068 29.0945 28.0068L29.3094 21.0672C28.414 17.0902 27.3754 12.3521 29.0587 10.0782C29.2285 9.84743 29.4306 9.64298 29.6586 9.47119L31.5926 10.8845L32.3626 11.4552C31.6871 11.6622 31.0235 11.9072 30.3749 12.189C29.9642 12.3383 29.5778 12.549 29.2288 12.8141C29.3059 13.3597 29.4105 13.9009 29.5422 14.4357Z" fill="#AFB4B8"/>
<path d="M41.7106 19.7989C41.6389 19.4607 41.5494 19.1074 41.442 18.739C40.9781 17.1047 40.4068 15.5037 39.7318 13.9466C39.1114 12.5724 38.3618 11.2618 37.4934 10.0329L36.795 9.19037C36.3294 10.7848 30.5273 12.8141 30.5273 12.8141C30.5273 12.8141 32.8016 21.3391 32.9448 23.6854C37.0815 24.3287 38.7916 23.3955 40.2242 22.6708C40.9784 22.1441 41.5388 21.3796 41.818 20.4965C41.8001 20.2791 41.7643 20.0466 41.7106 19.7989Z" fill="#C9CDD0"/>
<path d="M37.9498 14.2455C36.3113 13.1674 34.9324 15.2964 34.9324 15.2964C34.6724 16.0148 34.6981 16.8073 35.004 17.5069C35.5144 18.7843 36.4187 20.3787 37.9587 19.9076C40.5016 19.1738 37.9498 14.2455 37.9498 14.2455Z" fill="#DBDCE2"/>
<path d="M36.508 14.019C35.8664 14.2727 35.3167 14.7183 34.9321 15.2964C34.7476 15.804 34.7134 16.3549 34.8336 16.8818C34.9603 17.0177 35.1129 17.1263 35.2822 17.201C35.4514 17.2758 35.6339 17.3151 35.8185 17.3167C36.2471 17.2865 36.6463 17.0854 36.9283 16.7575C37.2104 16.4296 37.3523 16.0018 37.3227 15.5682C37.3277 15.2613 37.2556 14.9581 37.1131 14.6872C36.9706 14.4162 36.7623 14.1863 36.508 14.019Z" fill="#EDEDED"/>
<path d="M7.55193 14.5535C6.38794 16.5285 3.15564 18.739 6.15514 21.0944C9.15465 23.4499 10.0679 22.852 15.0641 25.5335L13.345 26.1315L17.7413 27.0374C17.7413 27.0374 14.8403 25.6332 11.7423 20.3787C8.64428 15.1243 7.55193 14.5535 7.55193 14.5535Z" fill="#313942"/>
<path d="M2.26901 8.30255C1.63329 11.2287 9.82596 15.3689 10.8198 23.1419C11.2138 26.1677 12.6554 27.3183 12.6554 27.3183L17.7411 27.0193L9.32457 14.771L2.26901 8.30255Z" fill="#BEC3C7"/>
<path d="M17.7412 27.0283C16.0758 25.7691 12.369 25.452 11.7422 25.6422C15.261 27.6534 22.6926 33.4152 25.0475 32.0472L27.3934 30.6702L20.0244 27.7621L17.7412 27.0283Z" fill="#535C5E"/>
<path d="M16.6309 13.9465C17.7053 15.2239 18.6902 24.99 17.7411 27.0283C18.923 28.6681 25.0653 26.6207 24.2326 24.5823C23.3999 22.5439 25.4413 16.8093 25.4413 16.8093L16.6309 13.9465Z" fill="#404B4D"/>
<path d="M8.49219 11.1653C12.0737 13.8831 16.3088 16.1027 16.6312 18.0051C16.9535 19.9076 17.7414 27.0646 17.7414 27.0646C18.7405 26.6815 19.5713 25.9495 20.0836 25.0008C20.596 24.0521 20.756 22.9493 20.535 21.8916C19.7829 17.987 21.1438 16.0936 16.8013 14.3814C12.4587 12.6691 8.49219 11.1653 8.49219 11.1653Z" fill="#404B4D"/>
<path d="M4.24773 7.65934C6.29813 10.4315 16.595 16.2024 18.726 16.8909C20.8569 17.5794 22.6387 19.1738 24.8414 17.3801C25.3784 17.0013 25.8003 16.4784 26.0597 15.8702C26.3191 15.2621 26.4057 14.5927 26.3098 13.9375C26.1834 13.145 25.942 12.3757 25.5935 11.6545C24.7787 9.84266 21.3852 7.87676 21.3852 7.87676L11.6435 1.88849C10.42 1.8693 9.20425 2.08764 8.06203 2.5317C5.01776 3.61884 2.77036 5.65721 4.24773 7.65934Z" fill="#535C5E"/>
<path d="M25.0117 12.6148C24.761 13.1765 19.7917 16.1933 18.8963 16.1842C18.0815 15.6769 4.93743 6.40905 5.4657 5.45781C5.99397 4.50658 11.0081 1.74348 11.5811 1.88843C12.1631 2.55883 25.0117 12.6148 25.0117 12.6148Z" fill="#535C5E"/>
<path d="M4.24773 7.65934C6.29813 10.4315 16.595 16.2024 18.726 16.8909C20.8569 17.5794 22.6387 19.1738 24.8414 17.3801C25.3784 17.0013 25.8003 16.4784 26.0597 15.8702C26.3191 15.2621 26.4057 14.5927 26.3098 13.9375C25.4405 14.8998 24.2584 15.5139 22.979 15.6679C21.2489 15.1976 19.6169 14.415 18.1619 13.3577C16.6934 12.2615 7.68596 6.47256 7.68596 6.47256C7.68596 6.47256 6.55779 5.26765 6.67418 4.79656C6.79058 4.32547 8.46495 2.87597 11.6435 1.88849C10.42 1.8693 9.20425 2.08764 8.06203 2.5317C5.01776 3.61884 2.77036 5.65721 4.24773 7.65934Z" fill="#4B5557"/>
<path d="M35.8815 22.3899L33.4102 22.698C33.2884 22.711 33.1663 22.6758 33.0695 22.5998C32.9727 22.5238 32.9087 22.4129 32.8909 22.2903C32.8778 22.166 32.9123 22.0413 32.9873 21.9419C33.0622 21.8425 33.1719 21.7759 33.2938 21.7558L35.7651 21.4478C35.8873 21.4324 36.0106 21.4666 36.108 21.543C36.2053 21.6194 36.2687 21.7318 36.2844 21.8554C36.2974 21.9797 36.263 22.1044 36.188 22.2038C36.1131 22.3032 36.0034 22.3698 35.8815 22.3899Z" fill="#FFB317"/>
<path d="M41.7104 19.7989L41.1731 20.3425C41.1372 20.3856 41.0908 20.4185 41.0385 20.4381C40.9861 20.4576 40.9297 20.4631 40.8747 20.454C40.8196 20.4449 40.7679 20.4215 40.7244 20.386C40.681 20.3506 40.6475 20.3044 40.627 20.2519C40.5735 20.1583 40.5457 20.052 40.5464 19.9439C40.5453 19.7767 40.606 19.6151 40.7165 19.4909L41.4418 18.739C41.5492 19.1134 41.6387 19.4667 41.7104 19.7989Z" fill="#FFB317"/>
<path d="M40.8777 0.194353C40.8135 0.157847 40.741 0.138672 40.6673 0.138672C40.5936 0.138672 40.5212 0.157847 40.4569 0.194353L40.251 0.348376C40.3129 0.309929 40.3842 0.28957 40.4569 0.28957C40.5296 0.28957 40.6009 0.309929 40.6629 0.348376C40.8272 0.426974 40.9682 0.547832 41.0719 0.698859C41.1756 0.849885 41.2384 1.0258 41.2538 1.20903C41.2631 1.27329 41.2556 1.33887 41.232 1.39927C41.2085 1.45968 41.1697 1.51277 41.1195 1.55327L41.3254 1.39927C41.3753 1.35809 41.4144 1.30518 41.4394 1.24517C41.4644 1.18515 41.4744 1.11987 41.4687 1.05501C41.4491 0.873038 41.3847 0.698931 41.2814 0.548596C41.1782 0.398262 41.0394 0.276477 40.8777 0.194353Z" fill="url(#paint7_linear_69_4912)"/>
<path d="M40.6629 0.357406C40.6235 0.329354 40.5788 0.309831 40.5316 0.300094C40.4844 0.290357 40.4358 0.290603 40.3887 0.300813C40.3416 0.311023 40.2971 0.330979 40.258 0.359425C40.2189 0.387871 40.186 0.4242 40.1615 0.466115L40.0898 0.592933C40.1127 0.55417 40.1431 0.520485 40.1792 0.4939C40.2153 0.467316 40.2563 0.4484 40.2998 0.438247C40.3432 0.428094 40.3883 0.426915 40.4322 0.434818C40.4762 0.442722 40.5181 0.459529 40.5554 0.484224C40.7039 0.560884 40.8308 0.674081 40.9247 0.813391C41.0186 0.952701 41.0763 1.11366 41.0927 1.28146C41.106 1.36171 41.0884 1.44408 41.0434 1.51154C40.9984 1.57899 40.9295 1.62636 40.8509 1.64383H40.9852C41.0727 1.62626 41.1498 1.57464 41.2001 1.50009C41.2503 1.42554 41.2696 1.33402 41.2538 1.24521C41.243 1.05723 41.1824 0.875658 41.0785 0.719474C40.9745 0.56329 40.831 0.43825 40.6629 0.357406Z" fill="url(#paint8_linear_69_4912)"/>
<path d="M40.5551 0.484243C40.4983 0.449935 40.4333 0.431824 40.3671 0.431824C40.3009 0.431824 40.2359 0.449935 40.1791 0.484243L37.7705 2.25084C37.8293 2.21751 37.8956 2.2 37.963 2.2C38.0304 2.2 38.0967 2.21751 38.1555 2.25084C38.3043 2.32464 38.4319 2.43588 38.5259 2.5739C38.62 2.71191 38.6774 2.87207 38.6927 3.03901C38.6992 3.09821 38.6912 3.15813 38.6693 3.21343C38.6474 3.26874 38.6124 3.31773 38.5674 3.35609L40.967 1.58949C41.012 1.55114 41.047 1.50214 41.0689 1.44683C41.0908 1.39153 41.0988 1.33161 41.0923 1.27241C41.0746 1.1062 41.0162 0.947101 40.9224 0.809484C40.8286 0.671867 40.7023 0.560084 40.5551 0.484243Z" fill="url(#paint9_linear_69_4912)"/>
<path d="M38.5676 3.36514L39.2212 2.88499C39.2933 2.80641 39.3319 2.70228 39.3286 2.59511C39.3139 2.42565 39.2558 2.26298 39.1601 2.12317C39.0643 1.98336 38.9341 1.87125 38.7825 1.79787C38.7263 1.76157 38.6611 1.74227 38.5944 1.74227C38.5278 1.74227 38.4625 1.76157 38.4064 1.79787L38.5765 1.66199L37.7886 2.23271C37.8474 2.19938 37.9137 2.18189 37.9811 2.18189C38.0485 2.18189 38.1148 2.19938 38.1736 2.23271C38.3224 2.3065 38.4499 2.41775 38.544 2.55576C38.6381 2.69378 38.6955 2.85396 38.7108 3.0209C38.7201 3.08604 38.7116 3.15248 38.6864 3.21313C38.6612 3.27378 38.6201 3.32632 38.5676 3.36514Z" fill="#C5C7C8"/>
<path d="M38.1557 2.25986L37.9766 2.20551H37.708C37.7883 2.21498 37.8667 2.23635 37.9408 2.26893C38.1321 2.36638 38.2958 2.51149 38.4164 2.69057C38.537 2.86966 38.6106 3.07685 38.6302 3.29265C38.6439 3.34919 38.6439 3.40823 38.6302 3.46478L38.7019 3.20205C38.707 3.1569 38.707 3.11131 38.7019 3.06616C38.6887 2.89511 38.6313 2.73057 38.5354 2.58905C38.4396 2.44754 38.3086 2.334 38.1557 2.25986Z" fill="url(#paint10_linear_69_4912)"/>
<path d="M37.941 2.25085C37.8667 2.20526 37.7816 2.18115 37.6947 2.18115C37.6079 2.18115 37.5227 2.20526 37.4485 2.25085L37.0098 2.57698C37.084 2.53139 37.1692 2.50728 37.256 2.50728C37.3428 2.50728 37.428 2.53139 37.5022 2.57698C37.6952 2.67231 37.8602 2.81684 37.9811 2.99636C38.102 3.17587 38.1746 3.38416 38.1917 3.6007C38.2013 3.67558 38.1915 3.75173 38.1633 3.82162C38.135 3.89152 38.0893 3.95275 38.0305 3.99931L38.4692 3.68223C38.5281 3.63367 38.5737 3.57079 38.6019 3.49948C38.6301 3.42816 38.6399 3.35077 38.6304 3.27457C38.6107 3.05877 38.5372 2.85156 38.4165 2.67247C38.2959 2.49338 38.1323 2.3483 37.941 2.25085Z" fill="url(#paint11_linear_69_4912)"/>
<path d="M38.1917 3.60072C38.1917 3.99934 37.9141 4.18054 37.5381 4.00841C37.3462 3.91165 37.1821 3.76674 37.0614 3.58751C36.9407 3.40828 36.8675 3.20073 36.8486 2.98469C36.8486 2.59514 37.1262 2.40488 37.5023 2.57701C37.6952 2.67233 37.8602 2.81687 37.9811 2.99639C38.102 3.1759 38.1746 3.38419 38.1917 3.60072Z" fill="#394344"/>
<path d="M34.6726 6.42725L33.6519 5.34918L36.9468 2.85784C36.9936 2.80962 37.0528 2.77559 37.1176 2.75958C37.1825 2.74357 37.2505 2.74625 37.3139 2.76727C37.6452 2.82163 37.887 3.23835 38.0034 3.55543C38.034 3.61245 38.05 3.67628 38.05 3.74114C38.05 3.806 38.034 3.86986 38.0034 3.92687L34.6726 6.42725Z" fill="#C5C7C8"/>
<path d="M34.7083 6.04672C34.8157 6.37286 34.6366 6.58122 34.3054 6.5178C33.9741 6.45439 33.7323 6.04671 33.6249 5.72057C33.5174 5.39443 33.6875 5.19514 34.0188 5.25856C34.3501 5.32197 34.5919 5.72964 34.7083 6.04672Z" fill="#C5C7C8"/>
<path d="M27.6977 11.7995C25.2086 9.9423 29.3094 7.75898 30.16 7.26977C31.0106 6.78056 34.028 8.75552 33.3744 9.14507C32.7208 9.53463 28.7006 12.5333 27.6977 11.7995Z" fill="#AFB4B8"/>
<path d="M26.9633 10.7757C26.7346 10.115 26.5931 9.42652 26.5425 8.72828C26.5425 8.01259 37.5914 3.24734 37.6541 3.58254C37.7122 4.48752 37.7122 5.39537 37.6541 6.30036C37.6451 6.49061 28.8615 11.1109 26.9633 10.7757Z" fill="#AFB4B8"/>
<path d="M37.4481 3.42851C34.3322 2.62222 30.8134 4.77837 29.6136 5.53937C28.4138 6.30036 24.9397 8.47461 27.402 9.68857C28.36 10.1597 31.9326 7.53243 33.0249 6.7805C34.2785 6.07387 38.6658 3.77276 37.4481 3.42851Z" fill="#AFB4B8"/>
<path d="M37.6543 3.58258C38.0166 4.17742 38.2129 4.86042 38.2224 5.55908C38.2319 6.25773 38.0541 6.94596 37.708 7.55061C36.9624 8.86258 35.9527 10.0014 34.7443 10.8935C33.5266 11.7995 28.6379 12.0894 27.7246 11.7995C28.7901 9.34435 37.6543 3.58258 37.6543 3.58258Z" fill="#AFB4B8"/>
<path d="M28.5931 9.20847L27.5903 9.52556C28.6569 10.0717 29.8716 10.2468 31.0465 10.0238C33.1471 9.72424 35.1048 8.77497 36.6515 7.30599C37.5469 6.32757 38.2363 4.87808 37.9677 4.23486L37.6991 3.58258L28.5931 9.20847Z" fill="#CFD3D6"/>
<path d="M31.163 5.27672C31.8972 5.11365 33.7865 5.04117 33.2403 5.53038C32.6941 6.01959 30.6258 7.51438 30.205 7.16106C29.7841 6.80775 29.6319 6.71715 29.6498 6.42725C29.6677 6.13735 31.163 5.27672 31.163 5.27672Z" fill="#FFF0FF"/>
<path d="M30.3839 7.30595C30.2972 7.31224 30.2113 7.2865 30.1421 7.23349L29.963 7.07947C29.6496 6.81674 29.5243 6.71709 29.5422 6.42719C29.5601 6.13729 30.6525 5.45783 31.1091 5.18605C31.5747 5.0864 33.1953 4.92332 33.3744 5.29476C33.3744 5.35817 33.4192 5.47595 33.267 5.61184C33.1147 5.74774 31.1718 7.30595 30.3839 7.30595ZM31.1986 5.37629C30.6561 5.63859 30.1648 5.99765 29.7481 6.43625C29.7481 6.61744 29.7481 6.66275 30.0884 6.92547L30.2674 7.07947C30.5808 7.36031 32.488 6.06482 33.1685 5.44878C33.2311 5.39442 33.2311 5.36725 33.2311 5.36725C32.563 5.20329 31.8654 5.20639 31.1986 5.37629Z" fill="#C5C7C8"/>
<path d="M25.6382 11.6635L23.1401 11.4824L26.7216 9.67047C26.7831 9.6653 26.8448 9.67585 26.9011 9.70118C26.9575 9.72652 27.0066 9.76582 27.044 9.81542C27.1637 9.92873 27.2505 10.0731 27.2947 10.2329C27.3389 10.3926 27.3389 10.5616 27.2947 10.7214C27.279 10.7806 27.2498 10.8353 27.2094 10.8809C27.1689 10.9266 27.1184 10.9619 27.0619 10.9841L25.6382 11.6635Z" fill="#C5C7C8"/>
<path d="M25.3787 10.3137C25.1638 10.1688 24.9848 10.1959 24.9042 10.3681L24.752 10.6398C24.8236 10.513 24.9579 10.4949 25.128 10.6398C25.2569 10.7447 25.363 10.8752 25.44 11.0232C25.517 11.1713 25.5632 11.3337 25.5757 11.5005C25.5757 11.736 25.4772 11.8538 25.316 11.8357L25.6294 11.881C25.8264 11.881 25.9607 11.7542 25.9518 11.4552C25.9422 11.2346 25.8861 11.0186 25.7872 10.8218C25.6884 10.6249 25.5491 10.4517 25.3787 10.3137Z" fill="url(#paint12_linear_69_4912)"/>
<path d="M25.9068 10.051C25.8572 10.0075 25.7972 9.97801 25.7328 9.96529C25.6684 9.95258 25.6018 9.95714 25.5397 9.97851L25.0024 10.2503C25.0637 10.2268 25.13 10.2202 25.1945 10.2314C25.2591 10.2425 25.3195 10.271 25.3695 10.3137C25.5356 10.4476 25.6723 10.6151 25.7709 10.8054C25.8696 10.9956 25.9281 11.2046 25.9426 11.419C25.957 11.4954 25.9494 11.5744 25.9209 11.6466C25.8923 11.7189 25.8439 11.7813 25.7814 11.8266L26.3097 11.5548C26.4261 11.5005 26.4888 11.3646 26.4798 11.1472C26.4663 10.9339 26.4082 10.7259 26.3094 10.5369C26.2106 10.348 26.0734 10.1824 25.9068 10.051Z" fill="url(#paint13_linear_69_4912)"/>
<path d="M25.1281 10.6036C25.0887 10.571 25.0418 10.5489 24.9917 10.5395C24.9417 10.53 24.8901 10.5333 24.8416 10.5492L21.9048 12.0259C21.9517 12.0099 22.002 12.0065 22.0506 12.016C22.0993 12.0256 22.1447 12.0477 22.1823 12.0803C22.3121 12.1822 22.4191 12.3108 22.4963 12.4576C22.5735 12.6043 22.619 12.766 22.63 12.9318C22.63 13.0949 22.63 13.2127 22.4957 13.2489L25.4415 11.7813C25.4895 11.7451 25.5272 11.6967 25.5507 11.641C25.5743 11.5854 25.583 11.5244 25.5758 11.4642C25.5633 11.2974 25.5172 11.135 25.4402 10.9869C25.3632 10.8389 25.257 10.7084 25.1281 10.6036Z" fill="url(#paint14_linear_69_4912)"/>
<path d="M22.182 12.0803C22.1242 12.032 22.0511 12.0063 21.9761 12.0078H21.8149C21.9001 12.0027 21.9839 12.0321 22.0477 12.0894C22.1861 12.1988 22.3011 12.3355 22.3858 12.4913C22.4704 12.647 22.5229 12.8184 22.5402 12.9953C22.5489 13.1014 22.5204 13.2073 22.4596 13.2943L22.5581 13.1765C22.6117 13.0967 22.637 13.0009 22.6297 12.9047C22.6151 12.7435 22.5678 12.5872 22.4908 12.4453C22.4137 12.3035 22.3087 12.1792 22.182 12.0803Z" fill="url(#paint15_linear_69_4912)"/>
<path d="M22.048 12.0984C22.0071 12.0619 21.9575 12.0369 21.9041 12.0258C21.8507 12.0147 21.7954 12.0178 21.7436 12.035L21.4839 12.1708C21.5345 12.1495 21.59 12.1433 21.644 12.1529C21.6979 12.1626 21.748 12.1876 21.7883 12.2252C21.9254 12.3351 22.039 12.4721 22.1221 12.6279C22.2053 12.7836 22.2562 12.9548 22.2718 13.1311C22.2718 13.3123 22.2271 13.4301 22.1375 13.4754L22.3972 13.3486C22.4867 13.3033 22.5404 13.1764 22.5404 12.9953C22.522 12.82 22.4689 12.6503 22.3843 12.4962C22.2997 12.3421 22.1853 12.2068 22.048 12.0984Z" fill="url(#paint16_linear_69_4912)"/>
<path d="M22.2715 13.1583C22.2715 13.4935 22.0835 13.6204 21.8238 13.4482C21.6867 13.3383 21.5731 13.2013 21.49 13.0456C21.4069 12.8898 21.356 12.7186 21.3403 12.5423C21.3403 12.2071 21.5284 12.0712 21.788 12.2524C21.9251 12.3623 22.0387 12.4993 22.1218 12.6551C22.205 12.8108 22.2559 12.982 22.2715 13.1583Z" fill="#394344"/>
<path d="M30.6616 1.8975C32.9895 0.457052 35.8458 -2.29701 37.3948 3.70938C35.8458 8.61959 28.5932 9.20846 28.5932 9.20846C28.5932 9.20846 27.277 4.00835 30.6616 1.8975Z" fill="#313942"/>
<defs>
<linearGradient id="paint0_linear_69_4912" x1="12.1721" y1="26.4032" x2="4.36289" y2="13.0384" gradientUnits="userSpaceOnUse">
<stop stop-color="#181818"/>
<stop offset="0.27" stop-color="#262626"/>
<stop offset="0.77" stop-color="#2E2E2E"/>
</linearGradient>
<linearGradient id="paint1_linear_69_4912" x1="3.3616" y1="25.7419" x2="8.86538" y2="16.3217" gradientUnits="userSpaceOnUse">
<stop stop-color="#141414"/>
<stop offset="0.44" stop-color="#1E1E1E"/>
<stop offset="0.78" stop-color="#202020"/>
<stop offset="0.98" stop-color="#292929"/>
<stop offset="1" stop-color="#2A2A2A"/>
</linearGradient>
<linearGradient id="paint2_linear_69_4912" x1="3.37034" y1="25.6513" x2="8.44591" y2="16.9515" gradientUnits="userSpaceOnUse">
<stop stop-color="#161616"/>
<stop offset="0.3" stop-color="#1A1A1A"/>
<stop offset="0.79" stop-color="#1E1E1E"/>
<stop offset="0.8" stop-color="#1E1E1E"/>
</linearGradient>
<linearGradient id="paint3_linear_69_4912" x1="42.2923" y1="43.9966" x2="34.4832" y2="30.6318" gradientUnits="userSpaceOnUse">
<stop stop-color="#181818"/>
<stop offset="0.27" stop-color="#262626"/>
<stop offset="0.77" stop-color="#2E2E2E"/>
</linearGradient>
<linearGradient id="paint4_linear_69_4912" x1="33.4729" y1="43.3353" x2="38.9767" y2="33.9151" gradientUnits="userSpaceOnUse">
<stop stop-color="#141414"/>
<stop offset="0.44" stop-color="#1E1E1E"/>
<stop offset="0.78" stop-color="#202020"/>
<stop offset="0.98" stop-color="#292929"/>
<stop offset="1" stop-color="#2A2A2A"/>
</linearGradient>
<linearGradient id="paint5_linear_69_4912" x1="33.482" y1="43.2356" x2="38.5575" y2="34.5449" gradientUnits="userSpaceOnUse">
<stop stop-color="#161616"/>
<stop offset="0.3" stop-color="#1A1A1A"/>
<stop offset="0.79" stop-color="#1E1E1E"/>
<stop offset="0.8" stop-color="#1E1E1E"/>
</linearGradient>
<linearGradient id="paint6_linear_69_4912" x1="15.4793" y1="33.5901" x2="17.0569" y2="33.1095" gradientUnits="userSpaceOnUse">
<stop offset="0.05" stop-color="#7D7D7D"/>
<stop offset="0.95" stop-color="#8E8E8E"/>
</linearGradient>
<linearGradient id="paint7_linear_69_4912" x1="41.3254" y1="1.44455" x2="40.5691" y2="0.138582" gradientUnits="userSpaceOnUse">
<stop offset="0.05" stop-color="#424E50"/>
<stop offset="0.95" stop-color="#545F61"/>
</linearGradient>
<linearGradient id="paint8_linear_69_4912" x1="41.1106" y1="1.57135" x2="40.3634" y2="0.292503" gradientUnits="userSpaceOnUse">
<stop offset="0.05" stop-color="#364041"/>
<stop offset="0.95" stop-color="#475152"/>
</linearGradient>
<linearGradient id="paint9_linear_69_4912" x1="39.9373" y1="2.56792" x2="39.0989" y2="1.11783" gradientUnits="userSpaceOnUse">
<stop offset="0.05" stop-color="#424E50"/>
<stop offset="0.95" stop-color="#545F61"/>
</linearGradient>
<linearGradient id="paint10_linear_69_4912" x1="38.7019" y1="3.40136" x2="37.9183" y2="2.06854" gradientUnits="userSpaceOnUse">
<stop offset="0.05" stop-color="#364041"/>
<stop offset="0.95" stop-color="#475152"/>
</linearGradient>
<linearGradient id="paint11_linear_69_4912" x1="38.3886" y1="3.80001" x2="37.4774" y2="2.24199" gradientUnits="userSpaceOnUse">
<stop offset="0.05" stop-color="#424E50"/>
<stop offset="0.95" stop-color="#545F61"/>
</linearGradient>
<linearGradient id="paint12_linear_69_4912" x1="25.8354" y1="11.7995" x2="24.9515" y2="10.2865" gradientUnits="userSpaceOnUse">
<stop offset="0.05" stop-color="#364041"/>
<stop offset="0.95" stop-color="#475152"/>
</linearGradient>
<linearGradient id="paint13_linear_69_4912" x1="26.2828" y1="11.582" x2="25.3807" y2="10.033" gradientUnits="userSpaceOnUse">
<stop offset="0.05" stop-color="#424E50"/>
<stop offset="0.95" stop-color="#545F61"/>
</linearGradient>
<linearGradient id="paint14_linear_69_4912" x1="24.1969" y1="12.5061" x2="23.3951" y2="11.1463" gradientUnits="userSpaceOnUse">
<stop offset="0.05" stop-color="#424E50"/>
<stop offset="0.95" stop-color="#545F61"/>
</linearGradient>
<linearGradient id="paint15_linear_69_4912" x1="22.6566" y1="13.2037" x2="21.9276" y2="11.9518" gradientUnits="userSpaceOnUse">
<stop offset="0.05" stop-color="#364041"/>
<stop offset="0.95" stop-color="#475152"/>
</linearGradient>
<linearGradient id="paint16_linear_69_4912" x1="22.4509" y1="13.3395" x2="21.6946" y2="12.0426" gradientUnits="userSpaceOnUse">
<stop offset="0.05" stop-color="#424E50"/>
<stop offset="0.95" stop-color="#545F61"/>
</linearGradient>
</defs>
</svg>
