<svg width="45" height="214" viewBox="0 0 45 214" fill="none" xmlns="http://www.w3.org/2000/svg">
<path d="M26.1333 30.1148L22.7554 32.4736L19.3775 30.1148H21.9226C21.9226 30.1148 21.1368 28.3165 22.0239 28.1178C22.0239 28.1178 20.9861 26.4638 21.7546 26.256C21.7546 26.256 20.613 24.9546 21.8559 24.3581C21.8559 24.3581 20.9663 22.9032 21.9128 22.4603C21.9128 22.4603 20.8181 20.7615 21.9128 20.4632C21.9128 20.4632 20.9762 18.8095 21.9696 18.5654V13.9654C21.9696 13.9654 20.6772 13.1974 21.08 17.3633L20.7711 17.6616L20.8749 18.8637C20.8749 18.8637 19.7308 18.3032 20.1534 17.5079L19.3676 17.8062C19.3676 17.8062 19.0587 17.2097 19.3676 16.0079C19.3676 16.0079 19.2168 15.7096 18.9178 16.4056C18.9178 16.4056 17.3833 15.2035 18.992 13.604V13.2516C18.992 13.2516 18.263 12.3931 19.6765 11.7512C19.6765 11.7512 20.566 10.4952 18.9178 10.4499C18.9178 10.4499 18.5151 11.9502 18.0011 11.9502C18.0011 11.9502 17.9443 13.0528 17.3932 13.0528C17.3932 13.0528 17.4673 14.1823 16.6717 14.4534C16.6717 14.4534 16.8768 15.2577 16.4937 15.3572C16.4937 15.3572 16.4196 16.053 16.6717 16.1885C16.6717 16.1885 14.8382 14.7426 15.8093 12.3387L16.9534 10.0703C16.9534 10.0703 17.2622 9.40174 16.091 9.60049L16.0168 10.3685C16.0168 10.3685 15.6882 10.8658 15.53 10.2421C15.53 10.2421 14.7714 9.67279 14.8456 11.417L14.9765 12.3931C14.9765 12.3931 14.6973 12.917 14.4626 12.0676C14.4626 12.0676 13.2172 12.0948 14.4626 14.4083C14.4626 14.4083 12.1422 12.7092 13.6026 10.2602L16.5506 7.21473C16.5506 7.21473 16.4196 5.94039 14.3044 6.91648C14.3044 6.91648 13.6941 7.24169 13.1331 7.84726C13.1331 7.84726 14.1734 5.00052 17.0003 4.57579H19.0118C19.0118 4.57579 19.7036 2.97619 16.7927 3.74436C16.7927 3.74436 16.306 1.57542 19.2465 2.09957L21.211 3.74436L21.3889 3.77147V1.70195L22.5676 0.5L23.9612 1.67484V3.78051L25.9751 2.08151C25.9751 2.08151 28.718 1.38564 28.8193 3.62688C28.8193 3.62688 25.8442 2.931 26.2939 4.5577H28.8193C28.8193 4.5577 31.7673 4.82882 32.4888 7.65757C32.4888 7.65757 30.4477 5.68736 28.8193 6.92555L32.3109 10.3957C32.3109 10.3957 33.6576 12.5014 31.5152 14.3088C31.5152 14.3088 32.4517 12.3659 31.3373 11.9412C31.3373 11.9412 31.1026 11.8689 30.8233 12.3659C30.8233 12.3659 31.1322 10.6217 30.5416 10.224C30.5416 10.224 29.998 9.998 29.6817 10.4952C29.6817 10.4952 29.7558 9.32038 28.5401 9.66372C28.5401 9.66372 28.4091 10.3325 29.7089 12.1039C29.7089 12.1039 30.8233 14.8058 29.0911 16.1525C29.0911 16.1525 29.269 14.4083 28.2584 13.9113C28.2584 13.9113 28.6982 12.9082 27.6406 12.61C27.6406 12.61 27.9767 12.1399 27.05 11.7061C27.05 11.7061 26.6398 11.5343 26.714 10.7754C26.714 10.7754 25.6465 9.90781 25.6761 11.4079C25.6761 11.4079 27.2008 12.5377 26.4323 13.1793C26.4323 13.1793 28.0335 14.5801 27.0228 15.4837C27.0228 15.4837 27.2576 16.785 26.4323 16.2519C26.4323 16.2519 25.9455 15.4567 26.0493 17.0563C26.0493 17.0563 26.5632 18.0863 25.5056 17.6525C25.5056 17.6525 25.4043 18.5563 24.7495 18.8997V17.6525H24.4406V14.8511C24.4406 14.8511 24.5419 13.9473 23.5412 14.0468V18.3936C23.5412 18.3936 24.4406 18.8183 23.5683 20.436C23.5683 20.436 24.6086 20.6348 23.598 22.3792C23.598 22.3792 24.5345 22.5779 23.6721 24.2768C23.6721 24.2768 24.8879 24.3493 23.85 26.3464C23.85 26.3464 24.7495 26.3464 23.5683 28.1178C23.5683 28.1178 24.6087 28.0183 23.6721 30.0156L26.1333 30.133V30.1148Z" fill="black"/>
<path d="M33.7297 40.1201L32.561 41.024C30.5965 41.8283 28.5826 39.9484 28.5826 39.9484C27.8635 39.3791 29.0693 39.0448 29.0693 39.0448C30.8757 38.412 29.4079 37.3729 29.4079 37.3729C27.6485 37.0747 28.1897 38.376 28.1897 38.376C28.6023 39.3521 27.6386 39.2075 27.6386 39.2075L24.3348 36.189C26.3734 34.3002 30.4655 30.7124 33.6754 29.1851C33.6754 29.1851 36.6233 27.1155 45.0002 26.7812C45.0002 26.7812 38.2517 23.835 31.0066 28.5526C31.0066 28.5526 25.2887 32.0681 23.0153 34.6708L22.9214 34.7521L22.8374 34.6708C20.5541 32.0681 14.8435 28.5526 14.8435 28.5526C7.60834 23.835 0.852539 26.7812 0.852539 26.7812C9.22937 27.1067 12.1773 29.1851 12.1773 29.1851C15.3872 30.7305 19.4866 34.3002 21.5178 36.189L18.2141 39.2075C18.2141 39.2075 17.2479 39.334 17.6705 38.376C17.6705 38.376 18.2141 37.0747 16.4547 37.3729C16.4547 37.3729 15.0017 38.4032 16.7908 39.0448C16.7908 39.0448 18.0065 39.37 17.2775 39.9484C17.2775 39.9484 15.2661 41.8192 13.2893 41.024L12.1205 40.1201C12.1205 40.1201 10.4179 39.5236 10.1535 41.2227C10.1535 41.2227 11.5497 44.666 16.1359 43.021C16.1359 43.021 17.8953 42.4517 19.1877 40.9517L19.8425 41.521C19.8425 41.521 19.7659 42.8223 20.8803 42.8946C20.8803 42.8946 21.6389 42.7681 21.6019 41.8192C21.6019 41.8192 21.3943 41.0872 20.2823 41.0149L19.7387 40.5449C19.7387 40.5449 21.8267 38.6833 22.9016 37.5266C23.979 38.6833 26.0745 40.5449 26.0745 40.5449L25.5234 41.0149C24.409 41.0872 24.2039 41.8192 24.2039 41.8192C24.1742 42.75 24.923 42.8946 24.923 42.8946C26.0374 42.8223 25.9632 41.521 25.9632 41.521L26.6181 40.9517C27.8907 42.4517 29.6698 43.021 29.6698 43.021C34.2734 44.666 35.6498 41.2227 35.6498 41.2227C35.3977 39.5236 33.7124 40.1201 33.7124 40.1201" fill="black"/>
<path d="M10.4949 56.2416H9.70912C9.56827 56.2416 9.43727 56.2144 9.31619 56.1512C9.08145 56.0429 8.89365 55.8348 8.72562 55.5366C8.51064 55.13 8.3698 54.5698 8.30555 53.8647C8.03374 54.1901 7.81877 54.4161 7.66803 54.5516C7.45305 54.7504 7.26524 54.8499 7.11698 54.8499C7.04037 54.8499 6.94896 54.8408 6.8254 54.8136L6.09645 54.6781C5.78758 54.6149 5.58989 54.5698 5.52564 54.5426C5.45151 54.5156 5.42188 54.4703 5.42188 54.398C5.42188 54.2985 5.5627 53.9642 5.83452 53.413C6.10633 52.8616 6.31144 52.5183 6.43252 52.3918C6.5363 52.2833 6.70434 52.1568 6.96627 51.985C7.117 51.8857 7.33197 51.759 7.61366 51.5966L7.92997 51.4157C7.92256 51.3615 7.91267 51.3074 7.90279 51.253C7.90279 51.1988 7.90279 51.1447 7.90279 51.0993C7.90279 50.9547 7.93983 50.7741 8.00655 50.5482C8.0708 50.3222 8.20176 50.0512 8.37968 49.7257L8.95049 53.3226C9.04439 53.8828 9.16547 54.2715 9.30631 54.4703C9.40021 54.5967 9.53117 54.669 9.6992 54.669H10.485V56.2416H10.4949ZM9.11851 48.1533L8.46368 49.2287L7.61366 48.7677L7.13428 49.6806L6.02233 49.0932L6.64008 48.081L7.51978 48.5057L8.04361 47.6201L9.11112 48.1533H9.11851ZM8.1746 52.9792L8.05349 52.2833C7.92253 52.3374 7.82864 52.3918 7.75204 52.4188C7.53706 52.5273 7.35913 52.6357 7.22817 52.7352C7.13427 52.8075 7.05027 52.8798 6.98603 52.952C6.90201 53.0334 6.86496 53.0966 6.86496 53.1417C6.86496 53.1961 6.93907 53.2412 7.07003 53.2684C7.21088 53.2954 7.34928 53.3135 7.48271 53.3135C7.56673 53.3135 7.65814 53.2863 7.75204 53.2412C7.84594 53.1961 7.98678 53.1057 8.15481 52.9792" fill="black"/>
<path d="M13.8128 56.2418H10.0791V54.6692H13.2247C13.1778 54.4072 13.1012 54.1903 12.9801 54.0097C12.9233 53.9102 12.7849 53.7384 12.56 53.4946L13.037 52.1207C13.3359 52.4462 13.541 52.7895 13.6448 53.151C13.7585 53.5034 13.8128 54.0367 13.8128 54.7415V56.2509V56.2418ZM13.719 57.254L13.0641 58.4288L12.2141 57.9679L11.7347 58.8807L10.6227 58.2933L11.2405 57.1726L12.1202 57.5973L12.6243 56.6665L13.7115 57.254H13.719Z" fill="black"/>
<path d="M18.009 56.2415H15.3033C15.0413 56.2415 14.8362 56.1873 14.7053 56.0787C14.5372 55.9523 14.4434 55.7354 14.4434 55.4372C14.4434 55.2654 14.4507 55.0847 14.4705 54.886C14.4903 54.687 14.5175 54.4882 14.5546 54.2895H14.7794C14.8066 54.4159 14.8832 54.5064 14.9944 54.5696C15.108 54.6328 15.239 54.66 15.3873 54.66H17.4382C17.3443 54.0996 17.1837 53.6479 16.9588 53.3043C16.7735 53.0242 16.5116 52.7803 16.1731 52.5813L16.6055 50.783C17.1195 51.1536 17.4852 51.6324 17.7002 52.2289C17.8954 52.7713 17.9992 53.4942 17.9992 54.3887V56.2415H18.009Z" fill="black"/>
<path d="M23.5223 55.8445C23.5223 56.5043 23.2332 57.1549 22.6525 57.8058C22.0718 58.4474 21.501 58.7726 20.9302 58.7726C20.604 58.7726 20.2383 58.6734 19.8454 58.4656C19.4525 58.2666 18.852 57.86 18.0391 57.2635L18.2911 56.9292C18.7211 57.2093 19.0769 57.3899 19.3487 57.4804C19.5736 57.5617 19.8355 57.5978 20.1172 57.5978C20.5002 57.5978 20.8832 57.4894 21.2662 57.2816C21.716 57.0375 22.1756 56.64 22.6525 56.0886C22.4845 56.1158 22.3436 56.1249 22.2324 56.1249C21.8371 56.1249 21.5208 55.9982 21.286 55.7543C21.0513 55.5103 20.9401 55.1669 20.9401 54.7422C20.9401 54.1638 21.0809 53.6124 21.3527 53.0792C21.6517 52.5008 21.9878 52.2116 22.3708 52.2116C22.6896 52.2116 22.9614 52.4194 23.1863 52.8444C23.4111 53.26 23.5223 53.7661 23.5223 54.3626V55.8536V55.8445ZM22.8033 54.6699C22.6896 54.0553 22.4647 53.7389 22.1188 53.7389C21.9977 53.7389 21.8939 53.7842 21.8198 53.8835C21.7457 53.9739 21.7061 54.0825 21.7061 54.1908C21.7061 54.3263 21.7827 54.444 21.9409 54.5341C22.1015 54.6246 22.3066 54.6699 22.5685 54.6699H22.7934H22.8033Z" fill="black"/>
<path d="M27.9301 56.2415H27.0405C26.7217 56.2415 26.4499 56.1783 26.2077 56.0609C25.9631 55.9342 25.7778 55.7354 25.6271 55.4644C25.3652 55.7717 25.0291 55.9886 24.6164 56.115C24.3446 56.1964 24.0456 56.2415 23.7169 56.2415H23.0918V54.6691H23.7169C24.0456 54.6691 24.2804 54.651 24.4113 54.6238C24.5423 54.5878 24.7202 54.5155 24.9525 54.3981C24.8314 54.1721 24.7276 54.0094 24.6436 53.9099C24.5324 53.7925 24.4286 53.7293 24.3075 53.7293C24.2606 53.7293 24.2235 53.7472 24.1865 53.7744C24.1494 53.8016 24.1025 53.8557 24.0555 53.9371L23.7936 53.9008C23.7936 53.2051 23.9146 52.7081 24.1667 52.4098C24.4187 52.1116 24.8141 51.967 25.3454 51.967C25.8791 51.967 26.3387 52.0753 26.6476 52.2834C26.9664 52.4912 27.1245 52.7804 27.1245 53.1418C27.1245 53.3406 27.0776 53.5215 27.0034 53.7021C26.9194 53.8829 26.7588 54.1268 26.5265 54.4341C26.5809 54.5064 26.6575 54.5606 26.7514 54.6059C26.8428 54.651 26.9367 54.6691 27.0207 54.6691H27.9103V56.2415H27.9301Z" fill="black"/>
<path d="M35.3781 56.2423C34.9284 56.2423 34.5651 56.2151 34.2637 56.1519C33.9647 56.0887 33.6854 55.9892 33.3938 55.8537C33.1591 56.0073 32.954 56.1156 32.7761 56.17C32.5982 56.2242 32.3264 56.2423 31.9631 56.2423H30.9895C30.7177 56.2423 30.5126 56.1791 30.352 56.0433C30.1938 55.9078 30.053 55.6819 29.9319 55.3748C29.7169 55.7 29.4624 55.9259 29.1931 56.0705C28.9583 56.1879 28.6865 56.2514 28.3579 56.2514H27.5078V54.6788H28.3579C28.7804 54.6788 29.1264 54.5705 29.4081 54.3354C29.7713 54.0372 29.9492 53.5853 29.9492 52.9888L30.3421 53.0432C30.3421 53.1696 30.3248 53.3052 30.3149 53.4679C30.3149 53.6306 30.305 53.8022 30.305 53.9921C30.305 54.1818 30.3718 54.3536 30.5126 54.48C30.651 54.6065 30.8116 54.6788 30.9895 54.6788H31.7284C32.2152 54.6788 32.5611 54.6156 32.7662 54.48C33.0207 54.3264 33.1418 54.0281 33.1418 53.5943C33.1418 53.5039 33.169 53.4226 33.2357 53.3503C33.2728 53.3052 33.3469 53.2419 33.4606 53.1606L33.6854 52.9888C33.6854 53.0611 33.7027 53.1606 33.7027 53.287C33.7027 53.4137 33.7027 53.4949 33.7027 53.5311C33.7027 53.7389 33.6756 54.0191 33.6088 54.3715C33.7596 54.4438 33.9177 54.4982 34.1055 54.5523C34.2933 54.5974 34.4811 54.6428 34.6862 54.6697C34.6862 54.5433 34.6393 54.3715 34.5355 54.1636C34.4342 53.9558 34.3872 53.8203 34.3872 53.7389C34.3872 53.6394 34.4045 53.5583 34.4342 53.5039C34.4342 53.486 34.4786 53.4226 34.5651 53.3233L35.0692 52.6636C35.173 52.9074 35.257 53.1245 35.3039 53.3233C35.3509 53.5221 35.3682 53.7661 35.3682 54.0644V56.2423H35.3781Z" fill="black"/>
<path d="M38.245 56.2419H34.9585V54.6696H37.5235L36.8044 50.7565L36.4189 50.5124C36.4189 50.2865 36.456 50.0605 36.5326 49.8255C36.6265 49.5363 36.7747 49.1839 36.9996 48.7773L37.2714 48.9129C37.2714 48.9129 37.2714 48.9942 37.2516 49.0935C37.2516 49.2202 37.3356 49.3466 37.5062 49.464C37.6544 49.5726 37.8892 49.69 38.2079 49.8255C38.1709 50.0696 38.114 50.3137 38.0473 50.5485C37.983 50.7835 37.899 50.9913 37.815 51.1812L37.5976 51.0999L38.2549 54.6696V56.2419H38.245Z" fill="black"/>
<path d="M40.4513 54.5606C40.4513 54.9039 40.4043 55.2112 40.3302 55.5004C40.2462 55.7805 40.0856 56.1601 39.8434 56.639L39.4876 56.5035C39.5815 56.0155 39.6284 55.6087 39.6284 55.3014C39.6284 55.0666 39.6086 54.7231 39.5716 54.2714C39.5345 53.8195 39.4777 53.3676 39.4208 52.9247C39.3665 52.4819 39.2627 51.9486 39.1317 51.3342C39.0848 51.1173 39.0576 50.9727 39.0576 50.8914C39.0576 50.774 39.1219 50.5659 39.2429 50.2858C39.3665 49.9966 39.5444 49.6533 39.7668 49.2467L40.1226 51.2891C40.2536 52.0662 40.3475 52.735 40.3945 53.3043C40.4315 53.7381 40.4513 54.1628 40.4513 54.5694" fill="black"/>
<path d="M20 85.4584V74.5H22.2897V79.3712L26.9183 74.5H30.0034L25.73 78.7701L30.232 85.4584H27.2697L24.1487 80.3178L22.2897 82.1487V85.4584H20Z" fill="black"/>
<path d="M20 114.441L22.0468 114.251C22.1715 114.91 22.4209 115.397 22.7949 115.714C23.169 116.024 23.6798 116.183 24.3171 116.183C24.9924 116.183 25.5033 116.043 25.8444 115.771C26.1855 115.492 26.3622 115.169 26.3622 114.802C26.3622 114.562 26.2912 114.365 26.1457 114.194C26.002 114.023 25.7457 113.884 25.3924 113.757C25.1431 113.675 24.5855 113.529 23.7058 113.32C22.5785 113.048 21.7905 112.719 21.3386 112.326C20.7031 111.775 20.381 111.097 20.381 110.306C20.381 109.793 20.5316 109.318 20.8329 108.868C21.136 108.425 21.5689 108.083 22.1317 107.848C22.6962 107.614 23.3785 107.5 24.1785 107.5C25.4842 107.5 26.4678 107.779 27.1293 108.33C27.7925 108.881 28.1406 109.622 28.1735 110.54L26.0747 110.629C25.9829 110.116 25.7924 109.742 25.4963 109.514C25.2019 109.286 24.7552 109.172 24.1647 109.172C23.5759 109.172 23.0772 109.292 22.736 109.533C22.5126 109.685 22.4018 109.894 22.4018 110.154C22.4018 110.394 22.5057 110.597 22.7153 110.762C22.9785 110.977 23.6209 111.199 24.6443 111.433C25.6678 111.667 26.421 111.908 26.9128 112.155C27.4046 112.402 27.7856 112.744 28.0609 113.175C28.3363 113.605 28.4748 114.137 28.4748 114.777C28.4748 115.353 28.3103 115.891 27.9761 116.392C27.6419 116.892 27.176 117.266 26.5717 117.513C25.9691 117.76 25.2089 117.88 24.3101 117.88C22.9906 117.88 21.981 117.589 21.2797 117C20.5714 116.411 20.1506 115.556 20.0138 114.435" fill="black"/>
<path d="M30.2955 151.329H27.6076L26.5349 148.644H21.6383L20.6247 151.329H18L22.7722 139.5H25.3908L30.2955 151.329ZM25.7395 146.645L24.0468 142.252L22.3949 146.645H25.7395Z" fill="black"/>
<path d="M31.7769 206.6C31.7769 210.521 28.47 213.699 24.3923 213.699C20.3147 213.699 17 210.521 17 206.6C17 202.678 20.3068 199.5 24.3923 199.5C28.4778 199.5 31.7769 202.678 31.7769 206.6Z" fill="black"/>
</svg>
