<svg width="235" height="117" viewBox="0 0 235 117" fill="none" xmlns="http://www.w3.org/2000/svg">
<path d="M215.403 2.34312H19.2399C9.49427 2.34312 1.5937 10.2782 1.5937 20.0664V96.8244C1.5937 106.613 9.49427 114.548 19.2399 114.548H215.403C225.149 114.548 233.049 106.613 233.049 96.8244V20.0664C233.049 10.2782 225.149 2.34312 215.403 2.34312ZM19.2399 5.34187H198.098V59.3455H4.5794V20.0664C4.5794 11.9465 11.1553 5.34715 19.2346 5.34715M4.5794 96.8244V62.3442H198.098V111.549H19.2399C11.1553 111.549 4.58466 104.944 4.58466 96.8244M230.064 96.8244C230.064 104.944 223.487 111.549 215.403 111.549H201.085V5.34187H215.403C223.487 5.34187 230.064 11.9465 230.064 20.0611V96.8244Z" fill="black"/>
<path d="M201 5H215C223.284 5 230 11.7157 230 20V97C230 105.284 223.284 112 215 112H201V5Z" fill="#367CA5"/>
<path d="M217.191 28.6346L215.294 30.0126L213.397 28.6346H214.827C214.827 28.6346 214.385 27.584 214.883 27.4679C214.883 27.4679 214.301 26.5017 214.732 26.3803C214.732 26.3803 214.091 25.62 214.789 25.2716C214.789 25.2716 214.289 24.4216 214.821 24.1629C214.821 24.1629 214.206 23.1704 214.821 22.9962C214.821 22.9962 214.295 22.0301 214.853 21.8875V19.2002C214.853 19.2002 214.127 18.7515 214.353 21.1853L214.18 21.3595L214.238 22.0617C214.238 22.0617 213.596 21.7343 213.833 21.2697L213.392 21.444C213.392 21.444 213.218 21.0955 213.392 20.3934C213.392 20.3934 213.307 20.2192 213.139 20.6258C213.139 20.6258 212.277 19.9235 213.181 18.9891V18.7832C213.181 18.7832 212.771 18.2817 213.565 17.9067C213.565 17.9067 214.065 17.173 213.139 17.1465C213.139 17.1465 212.913 18.023 212.624 18.023C212.624 18.023 212.592 18.6671 212.283 18.6671C212.283 18.6671 212.324 19.3269 211.877 19.4853C211.877 19.4853 211.993 19.9552 211.777 20.0133C211.777 20.0133 211.736 20.4197 211.877 20.4989C211.877 20.4989 210.848 19.6542 211.393 18.2499L212.036 16.9247C212.036 16.9247 212.209 16.5342 211.551 16.6503L211.51 17.099C211.51 17.099 211.325 17.3894 211.236 17.0251C211.236 17.0251 210.81 16.6925 210.852 17.7114L210.925 18.2817C210.925 18.2817 210.769 18.5878 210.637 18.0915C210.637 18.0915 209.937 18.1074 210.637 19.4589C210.637 19.4589 209.334 18.4664 210.154 17.0357L211.809 15.2565C211.809 15.2565 211.736 14.5121 210.548 15.0823C210.548 15.0823 210.205 15.2723 209.89 15.626C209.89 15.626 210.474 13.963 212.062 13.7149H213.192C213.192 13.7149 213.58 12.7804 211.945 13.2292C211.945 13.2292 211.672 11.9621 213.324 12.2683L214.427 13.2292L214.527 13.245V12.036L215.189 11.3338L215.971 12.0202V13.2503L217.103 12.2577C217.103 12.2577 218.643 11.8512 218.7 13.1605C218.7 13.1605 217.029 12.754 217.282 13.7043H218.7C218.7 13.7043 220.356 13.8627 220.761 15.5152C220.761 15.5152 219.615 14.3642 218.7 15.0876L220.661 17.1148C220.661 17.1148 221.417 18.3449 220.214 19.4008C220.214 19.4008 220.74 18.2658 220.114 18.0177C220.114 18.0177 219.982 17.9754 219.825 18.2658C219.825 18.2658 219.999 17.2468 219.667 17.0145C219.667 17.0145 219.362 16.8825 219.184 17.173C219.184 17.173 219.226 16.4866 218.543 16.6872C218.543 16.6872 218.47 17.0779 219.2 18.1127C219.2 18.1127 219.825 19.6912 218.853 20.4779C218.853 20.4779 218.953 19.4589 218.385 19.1686C218.385 19.1686 218.632 18.5826 218.038 18.4084C218.038 18.4084 218.227 18.1338 217.706 17.8804C217.706 17.8804 217.476 17.78 217.518 17.3366C217.518 17.3366 216.918 16.8298 216.935 17.7061C216.935 17.7061 217.791 18.3661 217.359 18.741C217.359 18.741 218.259 19.5593 217.691 20.0872C217.691 20.0872 217.823 20.8474 217.359 20.536C217.359 20.536 217.086 20.0714 217.144 21.0059C217.144 21.0059 217.433 21.6076 216.839 21.3542C216.839 21.3542 216.782 21.8822 216.414 22.0828V21.3542H216.241V19.7176C216.241 19.7176 216.298 19.1896 215.736 19.2478V21.7871C215.736 21.7871 216.241 22.0353 215.751 22.9803C215.751 22.9803 216.335 23.0964 215.767 24.1155C215.767 24.1155 216.293 24.2316 215.809 25.224C215.809 25.224 216.492 25.2664 215.909 26.4331C215.909 26.4331 216.414 26.4331 215.751 27.4679C215.751 27.4679 216.335 27.4098 215.809 28.5766L217.191 28.6452V28.6346Z" fill="white"/>
<path d="M221.457 34.4796L220.801 35.0076C219.697 35.4775 218.566 34.3792 218.566 34.3792C218.162 34.0466 218.84 33.8514 218.84 33.8514C219.854 33.4817 219.03 32.8747 219.03 32.8747C218.042 32.7004 218.346 33.4607 218.346 33.4607C218.577 34.0309 218.036 33.9464 218.036 33.9464L216.181 32.183C217.326 31.0796 219.624 28.9836 221.427 28.0914C221.427 28.0914 223.082 26.8824 227.787 26.6871C227.787 26.6871 223.997 24.9659 219.928 27.7219C219.928 27.7219 216.716 29.7756 215.44 31.2961L215.387 31.3436L215.34 31.2961C214.057 29.7756 210.85 27.7219 210.85 27.7219C206.786 24.9659 202.992 26.6871 202.992 26.6871C207.697 26.8772 209.353 28.0914 209.353 28.0914C211.155 28.9942 213.458 31.0796 214.599 32.183L212.743 33.9464C212.743 33.9464 212.2 34.0203 212.438 33.4607C212.438 33.4607 212.743 32.7004 211.755 32.8747C211.755 32.8747 210.939 33.4765 211.944 33.8514C211.944 33.8514 212.626 34.0413 212.217 34.3792C212.217 34.3792 211.087 35.4722 209.977 35.0076L209.321 34.4796C209.321 34.4796 208.364 34.1311 208.216 35.1237C208.216 35.1237 209 37.1352 211.576 36.1743C211.576 36.1743 212.564 35.8417 213.29 34.9653L213.658 35.2979C213.658 35.2979 213.615 36.0582 214.24 36.1004C214.24 36.1004 214.667 36.0265 214.646 35.4722C214.646 35.4722 214.529 35.0445 213.905 35.0023L213.599 34.7277C213.599 34.7277 214.772 33.6402 215.376 32.9644C215.981 33.6402 217.158 34.7277 217.158 34.7277L216.848 35.0023C216.222 35.0445 216.107 35.4722 216.107 35.4722C216.09 36.0159 216.511 36.1004 216.511 36.1004C217.137 36.0582 217.095 35.2979 217.095 35.2979L217.463 34.9653C218.178 35.8417 219.177 36.1743 219.177 36.1743C221.762 37.1352 222.536 35.1237 222.536 35.1237C222.394 34.1311 221.447 34.4796 221.447 34.4796" fill="white"/>
<path d="M208.407 43.8976H207.966C207.887 43.8976 207.813 43.8817 207.745 43.8448C207.614 43.7815 207.508 43.66 207.414 43.4857C207.293 43.2482 207.214 42.9209 207.178 42.509C207.025 42.6992 206.904 42.8312 206.82 42.9103C206.699 43.0265 206.594 43.0846 206.51 43.0846C206.467 43.0846 206.416 43.0793 206.347 43.0634L205.937 42.9842C205.764 42.9473 205.653 42.9209 205.617 42.905C205.575 42.8893 205.558 42.8628 205.558 42.8206C205.558 42.7625 205.637 42.5672 205.79 42.2452C205.943 41.9231 206.058 41.7225 206.126 41.6486C206.184 41.5852 206.279 41.5113 206.426 41.4109C206.51 41.353 206.631 41.2789 206.789 41.184L206.967 41.0784C206.963 41.0467 206.957 41.0151 206.952 40.9833C206.952 40.9517 206.952 40.92 206.952 40.8935C206.952 40.8091 206.972 40.7035 207.01 40.5715C207.046 40.4395 207.12 40.2812 207.219 40.0911L207.54 42.1924C207.593 42.5196 207.661 42.7467 207.74 42.8628C207.793 42.9367 207.866 42.9789 207.961 42.9789H208.402V43.8976H208.407ZM207.634 39.1725L207.267 39.8007L206.789 39.5314L206.52 40.0647L205.895 39.7216L206.242 39.1303L206.737 39.3784L207.031 38.861L207.63 39.1725H207.634ZM207.104 41.9918L207.036 41.5852C206.963 41.6168 206.91 41.6486 206.867 41.6644C206.746 41.7278 206.646 41.7911 206.573 41.8492C206.52 41.8914 206.473 41.9336 206.437 41.9759C206.39 42.0234 206.369 42.0604 206.369 42.0867C206.369 42.1185 206.41 42.1448 206.484 42.1607C206.563 42.1765 206.641 42.1871 206.716 42.1871C206.763 42.1871 206.814 42.1712 206.867 42.1448C206.92 42.1185 206.999 42.0656 207.093 41.9918" fill="white"/>
<path d="M210.272 43.8977H208.175V42.979H209.941C209.915 42.826 209.872 42.6993 209.804 42.5937C209.772 42.5356 209.694 42.4353 209.568 42.2928L209.836 41.4902C210.004 41.6803 210.119 41.8809 210.177 42.0921C210.241 42.298 210.272 42.6095 210.272 43.0212V43.903V43.8977ZM210.219 44.489L209.851 45.1753L209.374 44.9061L209.105 45.4393L208.48 45.0962L208.827 44.4415L209.321 44.6896L209.604 44.1458L210.215 44.489H210.219Z" fill="white"/>
<path d="M212.628 43.8976H211.108C210.961 43.8976 210.846 43.8659 210.772 43.8025C210.678 43.7286 210.625 43.6019 210.625 43.4277C210.625 43.3273 210.629 43.2218 210.64 43.1057C210.651 42.9894 210.667 42.8733 210.687 42.7572H210.814C210.829 42.8311 210.872 42.8839 210.934 42.9209C210.998 42.9578 211.072 42.9737 211.155 42.9737H212.307C212.254 42.6463 212.164 42.3824 212.038 42.1817C211.934 42.018 211.787 41.8756 211.596 41.7593L211.839 40.7088C212.128 40.9252 212.333 41.205 212.454 41.5535C212.564 41.8703 212.622 42.2926 212.622 42.8152V43.8976H212.628Z" fill="white"/>
<path d="M215.724 43.6657C215.724 44.0511 215.562 44.4312 215.235 44.8115C214.909 45.1863 214.589 45.3763 214.268 45.3763C214.085 45.3763 213.88 45.3183 213.659 45.1969C213.438 45.0806 213.101 44.8431 212.644 44.4946L212.786 44.2993C213.027 44.463 213.227 44.5685 213.38 44.6213C213.506 44.6689 213.653 44.6899 213.812 44.6899C214.027 44.6899 214.242 44.6266 214.457 44.5052C214.709 44.3626 214.968 44.1304 215.235 43.8083C215.141 43.8242 215.062 43.8295 215 43.8295C214.777 43.8295 214.6 43.7555 214.468 43.613C214.336 43.4704 214.274 43.2698 214.274 43.0217C214.274 42.6838 214.353 42.3617 214.505 42.0502C214.673 41.7123 214.862 41.5434 215.077 41.5434C215.256 41.5434 215.409 41.6648 215.535 41.913C215.662 42.1558 215.724 42.4515 215.724 42.8V43.671V43.6657ZM215.32 42.9795C215.256 42.6204 215.13 42.4356 214.936 42.4356C214.868 42.4356 214.809 42.4621 214.768 42.5201C214.726 42.5729 214.704 42.6363 214.704 42.6996C214.704 42.7788 214.747 42.8475 214.836 42.9002C214.926 42.953 215.041 42.9795 215.188 42.9795H215.315H215.32Z" fill="white"/>
<path d="M218.2 43.8976H217.7C217.521 43.8976 217.368 43.8606 217.232 43.792C217.095 43.718 216.991 43.6019 216.906 43.4436C216.759 43.6231 216.57 43.7498 216.339 43.8237C216.186 43.8712 216.018 43.8976 215.833 43.8976H215.482V42.979H215.833C216.018 42.979 216.15 42.9684 216.223 42.9525C216.297 42.9315 216.397 42.8892 216.527 42.8206C216.459 42.6886 216.401 42.5936 216.354 42.5355C216.291 42.4669 216.233 42.4299 216.165 42.4299C216.139 42.4299 216.118 42.4404 216.097 42.4563C216.076 42.4722 216.05 42.5038 216.024 42.5513L215.876 42.5302C215.876 42.1237 215.944 41.8334 216.086 41.6591C216.228 41.4849 216.45 41.4004 216.748 41.4004C217.048 41.4004 217.306 41.4637 217.479 41.5852C217.658 41.7067 217.747 41.8756 217.747 42.0868C217.747 42.2029 217.721 42.3085 217.679 42.4141C217.632 42.5197 217.542 42.6622 217.411 42.8417C217.442 42.8839 217.485 42.9156 217.538 42.9421C217.589 42.9684 217.642 42.979 217.689 42.979H218.189V43.8976H218.2Z" fill="white"/>
<path d="M222.383 43.8981C222.13 43.8981 221.926 43.8822 221.757 43.8452C221.589 43.8083 221.432 43.7502 221.268 43.671C221.137 43.7608 221.021 43.8241 220.921 43.8558C220.821 43.8875 220.669 43.8981 220.465 43.8981H219.918C219.765 43.8981 219.65 43.8611 219.56 43.7818C219.471 43.7026 219.392 43.5706 219.324 43.3913C219.203 43.5812 219.06 43.7132 218.909 43.7977C218.777 43.8663 218.625 43.9034 218.44 43.9034H217.963V42.9847H218.44C218.677 42.9847 218.872 42.9214 219.03 42.7841C219.234 42.6098 219.334 42.3458 219.334 41.9974L219.554 42.0292C219.554 42.103 219.545 42.1822 219.539 42.2773C219.539 42.3723 219.534 42.4725 219.534 42.5835C219.534 42.6943 219.571 42.7947 219.65 42.8685C219.728 42.9424 219.818 42.9847 219.918 42.9847H220.333C220.606 42.9847 220.801 42.9477 220.916 42.8685C221.059 42.7788 221.127 42.6045 221.127 42.3511C221.127 42.2983 221.142 42.2508 221.18 42.2085C221.2 42.1822 221.242 42.1453 221.306 42.0977L221.432 41.9974C221.432 42.0396 221.442 42.0977 221.442 42.1716C221.442 42.2456 221.442 42.293 221.442 42.3142C221.442 42.4356 221.427 42.5993 221.389 42.8051C221.474 42.8474 221.563 42.8791 221.668 42.9108C221.774 42.9371 221.879 42.9636 221.994 42.9794C221.994 42.9055 221.968 42.8051 221.91 42.6837C221.853 42.5623 221.826 42.4831 221.826 42.4356C221.826 42.3775 221.836 42.3301 221.853 42.2983C221.853 42.2879 221.878 42.2508 221.926 42.1928L222.209 41.8074C222.268 41.9498 222.315 42.0767 222.341 42.1928C222.368 42.3089 222.377 42.4515 222.377 42.6257V43.8981H222.383Z" fill="white"/>
<path d="M223.993 43.8978H222.147V42.9792H223.588L223.184 40.6932L222.968 40.5506C222.968 40.4186 222.988 40.2866 223.031 40.1494C223.084 39.9804 223.167 39.7745 223.294 39.537L223.446 39.6162C223.446 39.6162 223.446 39.6637 223.435 39.7217C223.435 39.7957 223.482 39.8696 223.578 39.9382C223.661 40.0016 223.793 40.0702 223.972 40.1494C223.952 40.2919 223.92 40.4345 223.882 40.5717C223.846 40.709 223.799 40.8304 223.752 40.9414L223.63 40.8938L223.999 42.9792V43.8978H223.993Z" fill="white"/>
<path d="M225.232 42.9156C225.232 43.1161 225.205 43.2957 225.164 43.4646C225.117 43.6283 225.026 43.85 224.89 44.1298L224.691 44.0506C224.743 43.7656 224.77 43.5279 224.77 43.3484C224.77 43.2112 224.759 43.0105 224.738 42.7466C224.717 42.4826 224.685 42.2186 224.653 41.9599C224.623 41.7012 224.564 41.3897 224.491 41.0308C224.464 40.9041 224.449 40.8196 224.449 40.772C224.449 40.7035 224.485 40.5819 224.553 40.4183C224.623 40.2493 224.723 40.0488 224.847 39.8112L225.047 41.0044C225.121 41.4584 225.174 41.8491 225.2 42.1817C225.221 42.4351 225.232 42.6832 225.232 42.9207" fill="white"/>
<path d="M212.076 60.2428V51.8695H213.758V55.5916L217.158 51.8695H219.425L216.285 55.1323L219.593 60.2428H217.416L215.124 56.3148L213.758 57.7139V60.2428H212.076Z" fill="white"/>
<path d="M212.265 71.5619L213.905 71.4036C214.005 71.9527 214.205 72.3591 214.505 72.6231C214.804 72.8818 215.214 73.0138 215.724 73.0138C216.266 73.0138 216.675 72.8977 216.948 72.6706C217.222 72.4383 217.363 72.1691 217.363 71.8629C217.363 71.6623 217.307 71.4987 217.19 71.3561C217.075 71.2135 216.869 71.0974 216.586 70.9917C216.386 70.9231 215.94 70.8017 215.235 70.6275C214.331 70.4004 213.7 70.126 213.337 69.7985C212.828 69.3393 212.57 68.7745 212.57 68.1145C212.57 67.6868 212.691 67.2908 212.932 66.916C213.175 66.5465 213.522 66.2614 213.973 66.066C214.425 65.8707 214.972 65.7757 215.613 65.7757C216.66 65.7757 217.448 66.008 217.978 66.4673C218.51 66.9266 218.789 67.5442 218.815 68.3097L217.133 68.3838C217.059 67.9561 216.907 67.6446 216.67 67.4546C216.434 67.2645 216.076 67.1694 215.602 67.1694C215.13 67.1694 214.731 67.2698 214.457 67.4703C214.278 67.5971 214.189 67.7713 214.189 67.9878C214.189 68.1883 214.273 68.3573 214.441 68.4946C214.652 68.6741 215.166 68.8589 215.987 69.0542C216.807 69.2495 217.411 69.4502 217.805 69.6561C218.199 69.862 218.504 70.147 218.725 70.5061C218.946 70.865 219.057 71.3085 219.057 71.8417C219.057 72.3222 218.925 72.771 218.657 73.188C218.389 73.6051 218.016 73.9166 217.531 74.1225C217.048 74.3284 216.439 74.4287 215.719 74.4287C214.661 74.4287 213.852 74.1858 213.29 73.6949C212.723 73.2038 212.385 72.4911 212.276 71.5567" fill="white"/>
<path d="M219.57 88.3242H217.741L217.011 86.4236H213.679L212.989 88.3242H211.203L214.451 79.951H216.233L219.57 88.3242ZM216.47 85.0087L215.318 81.8991L214.194 85.0087H216.47Z" fill="white"/>
<path d="M219.313 101.313C219.313 102.995 217.949 104.358 216.268 104.358C214.587 104.358 213.221 102.995 213.221 101.313C213.221 99.6317 214.584 98.2688 216.268 98.2688C217.953 98.2688 219.313 99.6317 219.313 101.313Z" fill="white"/>
<line x1="105.087" y1="3.88826" x2="105.087" y2="113.491" stroke="black" stroke-width="3.04601"/>
<path d="M135.438 31.7688C135.438 32.5811 135.365 33.2553 135.219 33.7914C135.089 34.3275 134.877 34.758 134.585 35.0829C134.309 35.3915 133.951 35.6108 133.513 35.7408C133.074 35.8708 132.546 35.9357 131.929 35.9357H126.519C126.357 35.9357 126.276 35.8545 126.276 35.6921V34.2787C126.276 34.1163 126.357 34.035 126.519 34.035H131.174C131.628 34.035 131.994 34.0025 132.27 33.9376C132.546 33.8563 132.757 33.7345 132.904 33.572C133.05 33.3933 133.147 33.1659 133.196 32.8897C133.245 32.6136 133.269 32.2643 133.269 31.8419V29.8925C133.269 28.2517 132.343 27.4313 130.491 27.4313H127.665C127.502 27.4313 127.421 27.3501 127.421 27.1876V25.7743C127.421 25.6118 127.502 25.5306 127.665 25.5306H131.247C132.481 25.5306 133.488 25.8798 134.268 26.5784C135.048 27.2769 135.438 28.3735 135.438 29.8681V31.7688ZM151.095 36.1063C150.25 36.1063 149.503 35.9682 148.853 35.6921C148.219 35.4159 147.7 34.9773 147.293 34.3762C147.131 34.6361 146.936 34.8229 146.709 34.9367C146.497 35.0504 146.286 35.1722 146.075 35.3022C145.88 35.4321 145.709 35.6027 145.563 35.8139C145.417 36.0251 145.344 36.3581 145.344 36.813V40.785H143.297V36.3013C143.297 35.7977 143.37 35.3834 143.516 35.0585C143.663 34.7173 143.849 34.4412 144.077 34.23C144.304 34.0025 144.548 33.8157 144.808 33.6695C145.084 33.5233 145.336 33.3771 145.563 33.2309C145.807 33.0847 146.01 32.9222 146.172 32.7435C146.351 32.5486 146.457 32.2968 146.489 31.9881C146.473 31.8094 146.457 31.6307 146.441 31.452C146.441 31.2571 146.441 31.054 146.441 30.8428C146.441 28.9746 146.855 27.6262 147.683 26.7977C148.512 25.9529 149.649 25.5306 151.095 25.5306C152.541 25.5306 153.678 25.9529 154.506 26.7977C155.335 27.6262 155.749 28.9746 155.749 30.8428C155.749 31.7688 155.635 32.5648 155.408 33.2309C155.197 33.8969 154.888 34.4412 154.482 34.8635C154.092 35.2859 153.605 35.6027 153.02 35.8139C152.451 36.0088 151.81 36.1063 151.095 36.1063ZM151.095 27.4313C150.185 27.4313 149.519 27.7318 149.097 28.3329C148.69 28.934 148.487 29.7706 148.487 30.8428C148.487 32.0125 148.69 32.8654 149.097 33.4015C149.519 33.9376 150.185 34.2056 151.095 34.2056C152.005 34.2056 152.662 33.9376 153.069 33.4015C153.491 32.8654 153.702 32.0125 153.702 30.8428C153.702 29.7706 153.491 28.934 153.069 28.3329C152.662 27.7318 152.005 27.4313 151.095 27.4313ZM173.489 31.7688C173.489 32.5811 173.416 33.2553 173.27 33.7914C173.14 34.3275 172.929 34.758 172.636 35.0829C172.36 35.3915 172.003 35.6108 171.564 35.7408C171.126 35.8708 170.598 35.9357 169.98 35.9357H164.571C164.408 35.9357 164.327 35.8545 164.327 35.6921V34.2787C164.327 34.1163 164.408 34.035 164.571 34.035H169.225C169.68 34.035 170.045 34.0025 170.321 33.9376C170.598 33.8563 170.809 33.7345 170.955 33.572C171.101 33.3933 171.199 33.1659 171.247 32.8897C171.296 32.6136 171.321 32.2643 171.321 31.8419V29.8925C171.321 28.2517 170.395 27.4313 168.543 27.4313H165.716C165.553 27.4313 165.472 27.3501 165.472 27.1876V25.7743C165.472 25.6118 165.553 25.5306 165.716 25.5306H169.298C170.533 25.5306 171.54 25.8798 172.32 26.5784C173.099 27.2769 173.489 28.3735 173.489 29.8681V31.7688Z" fill="black"/>
<path d="M41.9858 38.9818C41.466 38.9818 40.9461 38.933 40.4263 38.8355C39.9227 38.7218 39.4678 38.5025 39.0617 38.1776C38.6718 37.8365 38.3469 37.3491 38.0869 36.7155C37.8433 36.0819 37.7214 35.2291 37.7214 34.1569V31.0378C37.7214 29.7219 37.827 28.6253 38.0382 27.7481C38.2656 26.8546 38.5743 26.1479 38.9642 25.628C39.3541 25.1082 39.809 24.7427 40.3288 24.5315C40.8649 24.304 41.4416 24.1903 42.0589 24.1903C42.66 24.1903 43.2205 24.2959 43.7403 24.5071C44.2764 24.702 44.7313 25.0676 45.105 25.6037C45.4948 26.1235 45.7954 26.8302 46.0066 27.7237C46.234 28.6009 46.3477 29.7219 46.3477 31.0865V34.035C46.3477 35.0747 46.2259 35.9195 45.9822 36.5693C45.7548 37.2029 45.438 37.6984 45.0319 38.0558C44.642 38.4132 44.179 38.6568 43.6429 38.7868C43.123 38.9168 42.5707 38.9818 41.9858 38.9818ZM42.0346 37.0079C42.4082 37.0079 42.7331 36.9673 43.0093 36.8861C43.3017 36.8049 43.5373 36.6505 43.716 36.4231C43.9109 36.1957 44.0571 35.887 44.1546 35.4971C44.2521 35.091 44.3008 34.5711 44.3008 33.9376V31.2083C44.3008 29.3564 44.1221 28.0324 43.7647 27.2363C43.4073 26.4241 42.8306 26.0179 42.0346 26.0179C41.6447 26.0179 41.3035 26.1073 41.0111 26.286C40.7349 26.4647 40.4994 26.7571 40.3044 27.1632C40.1257 27.5694 39.9877 28.0973 39.8902 28.7472C39.809 29.397 39.7683 30.193 39.7683 31.1352V33.9376C39.7683 34.6036 39.8171 35.1397 39.9146 35.5458C40.012 35.9357 40.1582 36.2444 40.3532 36.4718C40.5481 36.683 40.7837 36.8292 41.0599 36.9105C41.3523 36.9754 41.6772 37.0079 42.0346 37.0079ZM52.9562 38.9818C52.4364 38.9818 51.9165 38.933 51.3967 38.8355C50.8931 38.7218 50.4382 38.5025 50.0321 38.1776C49.6422 37.8365 49.3173 37.3491 49.0573 36.7155C48.8137 36.0819 48.6918 35.2291 48.6918 34.1569V31.0378C48.6918 29.7219 48.7974 28.6253 49.0086 27.7481C49.236 26.8546 49.5447 26.1479 49.9346 25.628C50.3245 25.1082 50.7794 24.7427 51.2992 24.5315C51.8353 24.304 52.412 24.1903 53.0293 24.1903C53.6304 24.1903 54.1909 24.2959 54.7107 24.5071C55.2468 24.702 55.7017 25.0676 56.0754 25.6037C56.4652 26.1235 56.7658 26.8302 56.977 27.7237C57.2044 28.6009 57.3181 29.7219 57.3181 31.0865V34.035C57.3181 35.0747 57.1963 35.9195 56.9526 36.5693C56.7252 37.2029 56.4084 37.6984 56.0023 38.0558C55.6124 38.4132 55.1494 38.6568 54.6133 38.7868C54.0934 38.9168 53.5411 38.9818 52.9562 38.9818ZM53.005 37.0079C53.3786 37.0079 53.7035 36.9673 53.9797 36.8861C54.2721 36.8049 54.5077 36.6505 54.6864 36.4231C54.8813 36.1957 55.0275 35.887 55.125 35.4971C55.2225 35.091 55.2712 34.5711 55.2712 33.9376V31.2083C55.2712 29.3564 55.0925 28.0324 54.7351 27.2363C54.3777 26.4241 53.801 26.0179 53.005 26.0179C52.6151 26.0179 52.2739 26.1073 51.9815 26.286C51.7053 26.4647 51.4698 26.7571 51.2748 27.1632C51.0961 27.5694 50.9581 28.0973 50.8606 28.7472C50.7794 29.397 50.7387 30.193 50.7387 31.1352V33.9376C50.7387 34.6036 50.7875 35.1397 50.885 35.5458C50.9824 35.9357 51.1286 36.2444 51.3236 36.4718C51.5185 36.683 51.7541 36.8292 52.0303 36.9105C52.3227 36.9754 52.6476 37.0079 53.005 37.0079ZM63.9266 38.9818C63.4068 38.9818 62.8869 38.933 62.3671 38.8355C61.8635 38.7218 61.4086 38.5025 61.0025 38.1776C60.6126 37.8365 60.2877 37.3491 60.0277 36.7155C59.7841 36.0819 59.6622 35.2291 59.6622 34.1569V31.0378C59.6622 29.7219 59.7678 28.6253 59.979 27.7481C60.2064 26.8546 60.5151 26.1479 60.905 25.628C61.2949 25.1082 61.7498 24.7427 62.2696 24.5315C62.8057 24.304 63.3824 24.1903 63.9997 24.1903C64.6008 24.1903 65.1613 24.2959 65.6811 24.5071C66.2172 24.702 66.6721 25.0676 67.0458 25.6037C67.4356 26.1235 67.7362 26.8302 67.9474 27.7237C68.1748 28.6009 68.2885 29.7219 68.2885 31.0865V34.035C68.2885 35.0747 68.1667 35.9195 67.923 36.5693C67.6956 37.2029 67.3788 37.6984 66.9727 38.0558C66.5828 38.4132 66.1198 38.6568 65.5837 38.7868C65.0638 38.9168 64.5115 38.9818 63.9266 38.9818ZM63.9754 37.0079C64.349 37.0079 64.6739 36.9673 64.9501 36.8861C65.2425 36.8049 65.4781 36.6505 65.6568 36.4231C65.8517 36.1957 65.9979 35.887 66.0954 35.4971C66.1929 35.091 66.2416 34.5711 66.2416 33.9376V31.2083C66.2416 29.3564 66.0629 28.0324 65.7055 27.2363C65.3481 26.4241 64.7714 26.0179 63.9754 26.0179C63.5855 26.0179 63.2443 26.1073 62.9519 26.286C62.6757 26.4647 62.4402 26.7571 62.2452 27.1632C62.0665 27.5694 61.9285 28.0973 61.831 28.7472C61.7498 29.397 61.7091 30.193 61.7091 31.1352V33.9376C61.7091 34.6036 61.7579 35.1397 61.8554 35.5458C61.9528 35.9357 62.099 36.2444 62.294 36.4718C62.4889 36.683 62.7245 36.8292 63.0007 36.9105C63.2931 36.9754 63.618 37.0079 63.9754 37.0079Z" fill="black"/>
<path d="M126.933 77.4833C126.933 77.3209 127.015 77.2396 127.177 77.2396H132.757C135.6 77.2396 137.404 78.4174 138.167 80.773C138.232 81.0005 138.289 81.236 138.338 81.4797C138.403 81.7234 138.451 82.0239 138.484 82.3813C138.533 82.7387 138.565 83.1692 138.581 83.6728C138.598 84.1764 138.606 84.7938 138.606 85.5248C138.606 86.2558 138.598 86.8732 138.581 87.3768C138.565 87.8804 138.533 88.3109 138.484 88.6683C138.451 89.0257 138.403 89.3262 138.338 89.5699C138.289 89.8136 138.232 90.0491 138.167 90.2766C137.404 92.6322 135.6 93.81 132.757 93.81H127.177C127.015 93.81 126.933 93.7287 126.933 93.5663V77.4833ZM129.102 91.6412C129.102 91.7387 129.151 91.7874 129.248 91.7874H132.294C133.302 91.7874 134.114 91.6168 134.731 91.2757C135.349 90.9183 135.795 90.3334 136.072 89.5212C136.12 89.375 136.169 89.2044 136.218 89.0094C136.266 88.8145 136.299 88.5708 136.315 88.2784C136.348 87.9697 136.372 87.5961 136.388 87.1575C136.405 86.7188 136.413 86.1746 136.413 85.5248C136.413 84.875 136.405 84.3308 136.388 83.8921C136.372 83.4535 136.348 83.088 136.315 82.7956C136.299 82.4869 136.266 82.2351 136.218 82.0402C136.169 81.8452 136.12 81.6746 136.072 81.5284C135.795 80.7162 135.349 80.1395 134.731 79.7983C134.114 79.4409 133.302 79.2622 132.294 79.2622H129.248C129.151 79.2622 129.102 79.3109 129.102 79.4084V91.6412ZM147.361 93.81C147.198 93.81 147.117 93.7287 147.117 93.5663V92.0311C147.117 91.9336 147.15 91.8443 147.215 91.763L155.305 79.2866V79.2622H147.653C147.491 79.2622 147.41 79.181 147.41 79.0185V77.4833C147.41 77.3209 147.491 77.2396 147.653 77.2396H157.547C157.709 77.2396 157.79 77.3209 157.79 77.4833V79.0185C157.79 79.116 157.758 79.2053 157.693 79.2866L149.578 91.763V91.7874H157.547C157.709 91.7874 157.79 91.8686 157.79 92.0311V93.5663C157.79 93.7287 157.709 93.81 157.547 93.81H147.361ZM166.889 77.4833C166.889 77.3209 166.97 77.2396 167.132 77.2396H172.713C175.555 77.2396 177.359 78.4174 178.122 80.773C178.187 81.0005 178.244 81.236 178.293 81.4797C178.358 81.7234 178.407 82.0239 178.439 82.3813C178.488 82.7387 178.52 83.1692 178.537 83.6728C178.553 84.1764 178.561 84.7938 178.561 85.5248C178.561 86.2558 178.553 86.8732 178.537 87.3768C178.52 87.8804 178.488 88.3109 178.439 88.6683C178.407 89.0257 178.358 89.3262 178.293 89.5699C178.244 89.8136 178.187 90.0491 178.122 90.2766C177.359 92.6322 175.555 93.81 172.713 93.81H167.132C166.97 93.81 166.889 93.7287 166.889 93.5663V77.4833ZM169.057 91.6412C169.057 91.7387 169.106 91.7874 169.204 91.7874H172.25C173.257 91.7874 174.069 91.6168 174.686 91.2757C175.304 90.9183 175.75 90.3334 176.027 89.5212C176.075 89.375 176.124 89.2044 176.173 89.0094C176.222 88.8145 176.254 88.5708 176.27 88.2784C176.303 87.9697 176.327 87.5961 176.343 87.1575C176.36 86.7188 176.368 86.1746 176.368 85.5248C176.368 84.875 176.36 84.3308 176.343 83.8921C176.327 83.4535 176.303 83.088 176.27 82.7956C176.254 82.4869 176.222 82.2351 176.173 82.0402C176.124 81.8452 176.075 81.6746 176.027 81.5284C175.75 80.7162 175.304 80.1395 174.686 79.7983C174.069 79.4409 173.257 79.2622 172.25 79.2622H169.204C169.106 79.2622 169.057 79.3109 169.057 79.4084V91.6412Z" fill="black"/>
<path d="M35.6015 90.6177C35.569 90.4553 35.634 90.3578 35.7965 90.3253L37.2342 89.9598C37.3966 89.9435 37.5022 90.0085 37.551 90.1547C37.6809 90.7396 37.9652 91.2269 38.4038 91.6168C38.8587 91.9905 39.476 92.1773 40.2558 92.1773C40.8244 92.1773 41.328 92.0392 41.7666 91.763C42.2053 91.4868 42.5139 91.0807 42.6926 90.5446C42.7739 90.3172 42.8307 90.041 42.8632 89.7161C42.8957 89.3749 42.9119 88.9607 42.9119 88.4733C42.9119 87.9535 42.8876 87.5311 42.8388 87.2062C42.8063 86.8813 42.7495 86.6051 42.6683 86.3777C42.4896 85.8091 42.1809 85.4029 41.7423 85.1593C41.3199 84.8993 40.8244 84.7694 40.2558 84.7694C39.5898 84.7694 39.0455 84.9318 38.6232 85.2567C38.217 85.5654 37.949 85.9147 37.819 86.3046C37.754 86.467 37.6566 86.5482 37.5266 86.5482H36.0889C35.9264 86.5482 35.8452 86.467 35.8452 86.3046V77.4833C35.8452 77.3209 35.9264 77.2396 36.0889 77.2396H44.4228C44.5852 77.2396 44.6664 77.3209 44.6664 77.4833V78.8967C44.6664 79.0591 44.5852 79.1403 44.4228 79.1403H37.8921C37.7946 79.1403 37.7459 79.1891 37.7459 79.2866V83.9409H37.819C38.014 83.6809 38.347 83.4373 38.8181 83.2098C39.2892 82.9824 39.8659 82.8687 40.5482 82.8687C41.5717 82.8687 42.4327 83.1042 43.1313 83.5753C43.8461 84.0302 44.3497 84.7044 44.6421 85.5979C44.7558 85.9553 44.8451 86.3533 44.9101 86.7919C44.9751 87.2306 45.0076 87.791 45.0076 88.4733C45.0076 89.0582 44.9751 89.5699 44.9101 90.0085C44.8614 90.4471 44.7802 90.8289 44.6664 91.1538C44.3578 92.096 43.8054 92.819 43.0094 93.3226C42.2296 93.8262 41.3118 94.078 40.2558 94.078C39.6223 94.078 39.0374 93.9886 38.5013 93.8099C37.9652 93.6475 37.4941 93.4119 37.088 93.1033C36.6818 92.7946 36.3488 92.4291 36.0889 92.0067C35.8452 91.5843 35.6827 91.1213 35.6015 90.6177ZM48.8088 90.6177C48.7763 90.4553 48.8413 90.3578 49.0038 90.3253L50.4415 89.9598C50.6039 89.9435 50.7095 90.0085 50.7583 90.1547C50.8882 90.7396 51.1725 91.2269 51.6112 91.6168C52.066 91.9905 52.6834 92.1773 53.4631 92.1773C54.0317 92.1773 54.5353 92.0392 54.974 91.763C55.4126 91.4868 55.7212 91.0807 55.8999 90.5446C55.9812 90.3172 56.038 90.041 56.0705 89.7161C56.103 89.3749 56.1193 88.9607 56.1193 88.4733C56.1193 87.9535 56.0949 87.5311 56.0462 87.2062C56.0137 86.8813 55.9568 86.6051 55.8756 86.3777C55.6969 85.8091 55.3882 85.4029 54.9496 85.1593C54.5272 84.8993 54.0317 84.7694 53.4631 84.7694C52.7971 84.7694 52.2529 84.9318 51.8305 85.2567C51.4243 85.5654 51.1563 85.9147 51.0263 86.3046C50.9613 86.467 50.8639 86.5482 50.7339 86.5482H49.2962C49.1337 86.5482 49.0525 86.467 49.0525 86.3046V77.4833C49.0525 77.3209 49.1337 77.2396 49.2962 77.2396H57.6301C57.7925 77.2396 57.8738 77.3209 57.8738 77.4833V78.8967C57.8738 79.0591 57.7925 79.1403 57.6301 79.1403H51.0994C51.002 79.1403 50.9532 79.1891 50.9532 79.2866V83.9409H51.0263C51.2213 83.6809 51.5543 83.4373 52.0254 83.2098C52.4965 82.9824 53.0732 82.8687 53.7556 82.8687C54.779 82.8687 55.64 83.1042 56.3386 83.5753C57.0534 84.0302 57.557 84.7044 57.8494 85.5979C57.9631 85.9553 58.0525 86.3533 58.1174 86.7919C58.1824 87.2306 58.2149 87.791 58.2149 88.4733C58.2149 89.0582 58.1824 89.5699 58.1174 90.0085C58.0687 90.4471 57.9875 90.8289 57.8738 91.1538C57.5651 92.096 57.0128 92.819 56.2167 93.3226C55.437 93.8262 54.5191 94.078 53.4631 94.078C52.8296 94.078 52.2447 93.9886 51.7086 93.8099C51.1725 93.6475 50.7014 93.4119 50.2953 93.1033C49.8891 92.7946 49.5561 92.4291 49.2962 92.0067C49.0525 91.5843 48.8901 91.1213 48.8088 90.6177ZM62.0161 90.6177C61.9837 90.4553 62.0486 90.3578 62.2111 90.3253L63.6488 89.9598C63.8113 89.9435 63.9169 90.0085 63.9656 90.1547C64.0956 90.7396 64.3799 91.2269 64.8185 91.6168C65.2733 91.9905 65.8907 92.1773 66.6705 92.1773C67.239 92.1773 67.7426 92.0392 68.1813 91.763C68.6199 91.4868 68.9286 91.0807 69.1073 90.5446C69.1885 90.3172 69.2453 90.041 69.2778 89.7161C69.3103 89.3749 69.3266 88.9607 69.3266 88.4733C69.3266 87.9535 69.3022 87.5311 69.2535 87.2062C69.221 86.8813 69.1641 86.6051 69.0829 86.3777C68.9042 85.8091 68.5955 85.4029 68.1569 85.1593C67.7345 84.8993 67.239 84.7694 66.6705 84.7694C66.0044 84.7694 65.4602 84.9318 65.0378 85.2567C64.6317 85.5654 64.3636 85.9147 64.2336 86.3046C64.1687 86.467 64.0712 86.5482 63.9412 86.5482H62.5035C62.3411 86.5482 62.2598 86.467 62.2598 86.3046V77.4833C62.2598 77.3209 62.3411 77.2396 62.5035 77.2396H70.8374C70.9998 77.2396 71.0811 77.3209 71.0811 77.4833V78.8967C71.0811 79.0591 70.9998 79.1403 70.8374 79.1403H64.3067C64.2093 79.1403 64.1605 79.1891 64.1605 79.2866V83.9409H64.2336C64.4286 83.6809 64.7616 83.4373 65.2327 83.2098C65.7039 82.9824 66.2806 82.8687 66.9629 82.8687C67.9863 82.8687 68.8473 83.1042 69.5459 83.5753C70.2607 84.0302 70.7643 84.7044 71.0567 85.5979C71.1704 85.9553 71.2598 86.3533 71.3248 86.7919C71.3897 87.2306 71.4222 87.791 71.4222 88.4733C71.4222 89.0582 71.3897 89.5699 71.3248 90.0085C71.276 90.4471 71.1948 90.8289 71.0811 91.1538C70.7724 92.096 70.2201 92.819 69.424 93.3226C68.6443 93.8262 67.7264 94.078 66.6705 94.078C66.0369 94.078 65.452 93.9886 64.9159 93.8099C64.3799 93.6475 63.9087 93.4119 63.5026 93.1033C63.0965 92.7946 62.7634 92.4291 62.5035 92.0067C62.2598 91.5843 62.0974 91.1213 62.0161 90.6177Z" fill="black"/>
</svg>
