<svg width="51" height="53" viewBox="0 0 51 53" fill="none" xmlns="http://www.w3.org/2000/svg">
<g style="mix-blend-mode:multiply">
<path d="M35.1693 52.3101L1.17443 32.3653C-0.565439 31.3374 -0.346268 29.566 1.65998 28.3873L8.96675 24.1009C10.973 22.9223 14.0077 22.7955 15.7475 23.8165L49.7424 43.7613C51.4823 44.7892 51.2631 46.5607 49.2569 47.7393L41.9501 52.0257C39.9438 53.2044 36.9092 53.3311 35.1693 52.3101Z" fill="#EAEAEA"/>
</g>
<path d="M50.3897 32.5709H50.3729L49.9885 32.4818C49.9514 32.4818 49.9042 32.5024 49.8536 32.5709L49.4861 33.0574C49.3366 33.3 49.2561 33.5799 49.2534 33.8661V36.2645C49.2534 36.5386 49.3579 36.6243 49.4861 36.453L49.8536 35.9664C50.0052 35.7246 50.087 35.4445 50.0896 35.1578V33.9003L50.3897 32.5709Z" fill="#2E2E3B"/>
<path d="M50.2652 36.0589L49.8977 36.5454C49.7696 36.7202 49.665 36.6345 49.665 36.3604V33.962C49.6682 33.6769 49.7487 33.3983 49.8977 33.1568L50.2652 32.6668C50.3967 32.4955 50.4709 32.5812 50.5013 32.8553C50.6867 34.517 50.5013 35.2537 50.5013 35.2537C50.4752 35.5352 50.395 35.8088 50.2652 36.0589Z" fill="url(#paint0_linear_69_5005)"/>
<path d="M29.7946 44.1588L2.92773 28.3942V27.1333L29.7946 42.898V44.1588Z" fill="#1B1B1B"/>
<path d="M6.44787 29.8093L7.00086 30.1348L5.93872 30.707L5.38574 30.3815L6.44787 29.8093Z" fill="#602929"/>
<path d="M8.62283 30.8851L6.21533 32.5195V29.3775L8.62283 27.7432V30.8851Z" fill="#1A1A1A"/>
<path d="M5.93896 32.3585L6.21546 32.5195V29.3775L5.93896 29.2165V32.3585Z" fill="#292929"/>
<path d="M8.52183 30.7309L7.02136 32.0878L6.86963 33.4275L8.03966 32.7422L8.18802 31.4025L9.68849 30.0457L8.52183 30.7309Z" fill="#292929"/>
<path d="M29.417 45.4916L31.0692 44.3404L35.7021 47.4138L34.967 42.8773L30.0037 41.6233L29.417 45.4916Z" fill="#222222"/>
<path d="M36.5145 48.4795C36.4661 47.654 36.2273 46.8517 35.8172 46.1374C35.4072 45.4231 34.8375 44.8169 34.1542 44.3678C33.5035 43.9875 32.9168 43.9498 32.4919 44.1931L31.0083 45.0634V46.2352L34.343 50.8882L35.739 50.0659C35.8045 50.0361 35.8666 49.9994 35.9244 49.9562C36.1332 49.7771 36.296 49.5491 36.3988 49.2918C36.5016 49.0346 36.5413 48.7558 36.5145 48.4795Z" fill="url(#paint1_linear_69_5005)"/>
<path d="M30.3711 46.571C30.4189 47.3966 30.6576 48.1991 31.0676 48.9134C31.4777 49.6278 32.0477 50.2339 32.7314 50.6826C34.0329 51.4467 35.0917 50.8368 35.0917 49.312C35.0441 48.4864 34.8056 47.6838 34.3955 46.9694C33.9854 46.255 33.4152 45.6489 32.7314 45.2004C31.4096 44.4432 30.3711 45.0565 30.3711 46.571Z" fill="url(#paint2_linear_69_5005)"/>
<path d="M34.9298 49.2915C34.9298 50.7477 33.9182 51.3473 32.6673 50.6038C32.0125 50.1708 31.4668 49.5879 31.0739 48.9018C30.6809 48.2157 30.4518 47.4455 30.4048 46.6532C30.4048 45.1935 31.4163 44.5974 32.6673 45.3409C33.3226 45.7732 33.8688 46.356 34.2618 47.0422C34.6548 47.7284 34.8836 48.4989 34.9298 49.2915Z" fill="url(#paint3_linear_69_5005)"/>
<path d="M31.3457 47.15C31.3691 47.6294 31.5035 48.0964 31.7378 48.5131C31.9722 48.9299 32.2999 49.2846 32.6944 49.5485C33.4497 49.9905 34.06 49.6376 34.06 48.757C34.0347 48.2761 33.8978 47.8081 33.6604 47.3913C33.4231 46.9744 33.0921 46.6205 32.6944 46.3585C31.956 45.9165 31.3457 46.2695 31.3457 47.15Z" fill="#CBCAE8"/>
<path d="M31.541 47.263C31.5632 47.6747 31.6803 48.0753 31.883 48.4324C32.0857 48.7895 32.3682 49.0932 32.7077 49.3189C33.3551 49.6958 33.8777 49.3942 33.8777 48.6336C33.8565 48.2213 33.7394 47.82 33.536 47.4627C33.3326 47.1053 33.0487 46.802 32.7077 46.5778C32.0569 46.2077 31.541 46.5127 31.541 47.263Z" fill="#93949C"/>
<path d="M32.0029 47.9038C32.0636 48.1121 32.1709 48.3033 32.3165 48.4623C32.3446 48.492 32.3659 48.5277 32.3787 48.5669C32.3915 48.606 32.3956 48.6475 32.3907 48.6884C32.3738 48.7467 32.2895 48.7296 32.212 48.637C32.0302 48.4176 31.8906 48.1654 31.8006 47.8935C31.7635 47.7804 31.8006 47.7016 31.8546 47.7188C31.8911 47.7367 31.9234 47.7625 31.949 47.7945C31.9747 47.8265 31.9931 47.8638 32.0029 47.9038Z" fill="#504F58"/>
<path d="M33.4058 47.8764C33.3439 47.6687 33.2367 47.4778 33.0922 47.3179C33.0644 47.2879 33.0432 47.2522 33.0298 47.2132C33.0165 47.1743 33.0113 47.1329 33.0147 47.0918C33.0349 47.0336 33.1192 47.0507 33.1968 47.1432C33.3786 47.3626 33.5181 47.6148 33.6081 47.8867C33.6452 47.9998 33.6081 48.0786 33.5542 48.0615C33.5176 48.0436 33.4853 48.0177 33.4597 47.9858C33.4341 47.9538 33.4157 47.9165 33.4058 47.8764Z" fill="#504F58"/>
<path d="M33.0686 48.9283C33.136 48.943 33.2063 48.9336 33.2677 48.9018C33.3291 48.8699 33.3779 48.8176 33.4058 48.7536C33.4361 48.7056 33.5002 48.6987 33.5609 48.7536C33.5903 48.7842 33.6103 48.8228 33.6187 48.8647C33.6271 48.9066 33.6234 48.9501 33.6081 48.99C33.5641 49.065 33.5004 49.1262 33.4242 49.1667C33.348 49.2073 33.2623 49.2255 33.1765 49.2195C33.1341 49.2129 33.0946 49.1938 33.0629 49.1645C33.0311 49.1353 33.0085 49.0972 32.9978 49.0551C32.9776 48.9728 33.0146 48.9249 33.0686 48.9283Z" fill="#504F58"/>
<path d="M33.2708 49.1887C33.2284 49.181 33.189 49.1611 33.1573 49.1313C33.1256 49.1016 33.103 49.0633 33.0921 49.0209C33.081 48.9911 33.081 48.9581 33.0921 48.9283H33.0685C33.0078 48.9283 32.9707 48.9729 32.9842 49.0551C32.9949 49.0973 33.0175 49.1353 33.0493 49.1646C33.0811 49.1938 33.1206 49.2129 33.1629 49.2196C33.2368 49.2261 33.3112 49.2131 33.3787 49.1819C33.3432 49.1888 33.3069 49.1911 33.2708 49.1887Z" fill="#9C9AAB"/>
<path d="M33.5003 48.709C33.4828 48.7002 33.4626 48.6985 33.4438 48.7043C33.425 48.71 33.4091 48.7227 33.3992 48.7399C33.3709 48.7964 33.3277 48.8438 33.2744 48.8769C33.3234 48.8719 33.3701 48.8537 33.4098 48.8242C33.4495 48.7947 33.4808 48.7549 33.5003 48.709Z" fill="#9C9AAB"/>
<path d="M32.3436 46.852C32.2762 46.8373 32.2058 46.8467 32.1444 46.8785C32.083 46.9103 32.0343 46.9627 32.0064 47.0267C31.976 47.0747 31.912 47.0815 31.8513 47.0267C31.8219 46.9961 31.8018 46.9575 31.7934 46.9156C31.7851 46.8736 31.7888 46.8301 31.8041 46.7903C31.8475 46.7147 31.9111 46.6531 31.9874 46.6125C32.0637 46.5719 32.1498 46.5539 32.2357 46.5607C32.278 46.5674 32.3175 46.5865 32.3493 46.6157C32.381 46.645 32.4037 46.683 32.4144 46.7252C32.4413 46.8074 32.3941 46.8554 32.3436 46.852Z" fill="#504F58"/>
<path d="M32.2698 48.5617C32.0881 48.3416 31.9476 48.0896 31.855 47.8182C31.851 47.7852 31.851 47.7518 31.855 47.7188C31.8045 47.7188 31.7809 47.7873 31.8146 47.8936C31.9046 48.1654 32.0441 48.4177 32.2259 48.6371C32.3035 48.7296 32.3878 48.7467 32.4047 48.6885C32.4215 48.6302 32.4047 48.6576 32.4047 48.6439C32.3517 48.6333 32.304 48.6042 32.2698 48.5617Z" fill="#93949C"/>
<path d="M33.6217 47.9861C33.5851 47.9678 33.5526 47.9419 33.5264 47.91C33.5003 47.8782 33.4811 47.841 33.47 47.8011C33.4107 47.5919 33.3045 47.3996 33.1598 47.2391C33.1165 47.1896 33.0904 47.127 33.0856 47.061C33.0735 47.0575 33.0606 47.0588 33.0494 47.0645C33.0382 47.0702 33.0295 47.0799 33.0249 47.0918C33.0216 47.1329 33.0267 47.1743 33.0401 47.2132C33.0534 47.2522 33.0747 47.2879 33.1025 47.3179C33.2469 47.4778 33.3541 47.6687 33.4161 47.8764C33.4259 47.9165 33.4443 47.9538 33.47 47.9858C33.4956 48.0177 33.5278 48.0436 33.5644 48.0615C33.6049 48.0615 33.6285 48.0409 33.6319 47.9861H33.6217Z" fill="#93949C"/>
<path d="M31.9223 46.9479C31.8927 46.9188 31.8724 46.8814 31.864 46.8405C31.8556 46.7995 31.8594 46.757 31.8751 46.7183C31.8533 46.74 31.8341 46.7642 31.8177 46.7903C31.8024 46.8301 31.7987 46.8736 31.8071 46.9155C31.8155 46.9575 31.8356 46.9961 31.8649 47.0267C31.9256 47.0815 31.9897 47.0747 32.0201 47.0267C32.0345 47.001 32.0514 46.9769 32.0706 46.9547C32.0571 46.9959 31.9796 46.9959 31.9223 46.9479Z" fill="#93949C"/>
<path d="M32.3941 46.7765C32.3317 46.7654 32.2674 46.7747 32.2104 46.803C32.1535 46.8313 32.1068 46.8772 32.0771 46.9341C32.1114 46.9013 32.1526 46.8768 32.1976 46.8626C32.2426 46.8483 32.2902 46.8447 32.3368 46.8519C32.384 46.8519 32.4076 46.8176 32.4143 46.7662C32.4143 46.7697 32.3941 46.7765 32.3941 46.7765Z" fill="#93949C"/>
<path d="M32.7751 49.223C32.4486 49.0072 32.1765 48.7165 31.9809 48.3743C31.7853 48.0321 31.6716 47.6479 31.6489 47.2528C31.6489 46.6772 31.9692 46.3757 32.4076 46.4579C31.9085 46.3208 31.541 46.6326 31.541 47.2631C31.5632 47.6747 31.6803 48.0753 31.883 48.4324C32.0857 48.7896 32.3682 49.0932 32.7077 49.3189C33.2573 49.6375 33.7192 49.4662 33.8406 48.9489C33.6956 49.3943 33.2741 49.5142 32.7751 49.223Z" fill="#9C9AAB"/>
<path d="M31.9526 47.5064C31.9686 47.7718 32.0452 48.0298 32.1763 48.2599C32.3074 48.4901 32.4894 48.6861 32.7079 48.8324C33.126 49.0791 33.4666 48.8803 33.4666 48.3938C33.4502 48.1281 33.3731 47.8699 33.2415 47.6397C33.1098 47.4095 32.9271 47.2137 32.7079 47.0678C32.2932 46.8245 31.9526 47.0198 31.9526 47.5064Z" fill="#CBCAE8"/>
<path d="M32.0806 47.5817C32.0929 47.8022 32.1561 48.0166 32.2651 48.2076C32.374 48.3987 32.5256 48.5611 32.7077 48.6816C33.0449 48.8872 33.3383 48.7227 33.3383 48.3184C33.3258 48.0975 33.2622 47.8828 33.1526 47.6917C33.043 47.5006 32.8906 47.3385 32.7077 47.2185C32.3638 47.0164 32.0806 47.1774 32.0806 47.5817Z" fill="#93949C"/>
<path d="M32.792 48.5822C32.6219 48.4695 32.4802 48.3177 32.3783 48.1392C32.2764 47.9607 32.2172 47.7604 32.2053 47.5543C32.2053 47.3111 32.3166 47.1603 32.4818 47.1363C32.2492 47.1055 32.0806 47.2734 32.0806 47.5817C32.0929 47.8022 32.1561 48.0166 32.2651 48.2077C32.374 48.3987 32.5256 48.5611 32.7077 48.6816C32.9842 48.8426 33.2169 48.7741 33.3012 48.5377C33.2 48.6816 33.0112 48.709 32.792 48.5822Z" fill="#9C9AAB"/>
<path d="M47.0146 40.8181V41.0374L50.3966 42.8876V42.6683L47.0146 40.8181Z" fill="#292929"/>
<path d="M50.3966 44.176L47.0146 42.3257V42.6444L47.5508 43.6038L49.6649 44.7105L50.3966 44.3404V44.176Z" fill="#292929"/>
<path d="M47.0146 41.0374V42.3257L50.3966 44.176V42.8877L47.0146 41.0374Z" fill="#222222"/>
<path d="M36.3291 47.5783V48.8666L39.5964 50.7854V49.4971L36.3291 47.5783Z" fill="#222222"/>
<path d="M35.6143 47.5063V47.7256L38.8816 49.6444V49.4217L35.6143 47.5063Z" fill="#292929"/>
<path d="M50.0225 45.3032L50.9936 44.2479L49.9281 45.3067L41.0366 50.525L37.8198 50.4976L37.9614 50.9636L38.8651 51.3953C38.8651 51.3953 40.46 50.9567 40.8882 50.7854C43.1507 49.8671 47.0047 47.455 49.129 46.0502C49.2537 45.9679 50.0225 45.3032 50.0225 45.3032Z" fill="#B9B3C0"/>
<path d="M50.9093 44.4775C50.9093 44.4775 50.3597 44.9948 50.1945 45.1285C49.1121 46.009 43.8318 49.3532 40.8106 50.6312C40.5746 50.7306 39.6507 51.0492 39.6507 51.0492C39.4654 51.1166 39.2671 51.1384 39.0719 51.1128C38.8767 51.0872 38.6903 51.0149 38.5279 50.9019L37.8198 50.4976V49.2024L49.1796 44.5323L50.2653 43.5352L50.7677 43.6997C51.1184 43.9121 50.97 44.4158 50.9093 44.4775Z" fill="#404B4D"/>
<path d="M50.9932 42.8328V44.2548C50.9932 44.2548 50.1907 45.0839 49.9344 45.3135C48.6059 46.5059 43.3391 49.4491 41.0362 50.5318C40.6518 50.7134 39.4312 51.1143 39.4312 51.1143V49.6992L41.0362 49.1168L49.9277 43.8881L50.9932 42.8328Z" fill="#404B4D"/>
<path d="M50.9093 43.1823C50.9093 43.1823 50.3597 43.6997 50.1945 43.8333C49.1121 44.7173 43.8318 48.058 40.8106 49.3395C40.5746 49.4389 39.853 49.6821 39.853 49.6821C39.6377 49.7584 39.4095 49.7901 39.182 49.7754C38.9544 49.7607 38.732 49.6998 38.5279 49.5965L37.8198 49.1887L38.1165 48.9695L39.8025 48.7296L49.193 43.2817L50.3597 42.151L50.7711 42.3908C50.8871 42.4815 50.9656 42.6129 50.9912 42.7594C51.0168 42.9058 50.9876 43.0567 50.9093 43.1823Z" fill="#535C5E"/>
<path d="M39.283 49.6821C39.0391 49.6867 38.7979 49.629 38.5817 49.5142L38.0186 49.1922L38.1602 49.0859L39.8461 48.8461L49.2535 43.3845L50.373 42.2983L50.7102 42.5005C50.7516 42.5249 50.7875 42.558 50.8154 42.5975C50.8433 42.6371 50.8626 42.6823 50.872 42.7301C50.8972 42.858 50.883 42.9908 50.8315 43.1104C50.7675 43.1652 50.2786 43.6243 50.1268 43.7477C49.0613 44.618 43.7541 47.9724 40.77 49.2298C40.5407 49.3258 39.8259 49.5725 39.8191 49.5725C39.6483 49.6411 39.4667 49.6783 39.283 49.6821Z" fill="#535C5E"/>
<path d="M14.0853 35.2811C14.0372 34.4556 13.7985 33.6532 13.3884 32.9388C12.9784 32.2245 12.4085 31.6184 11.725 31.1695C11.0776 30.7891 10.4909 30.7515 10.0661 30.9947L8.5791 31.865V33.0368L11.9172 37.6898L13.3098 36.8675C13.3745 36.8363 13.4366 36.7997 13.4952 36.7579C13.7024 36.5774 13.8641 36.3492 13.9668 36.0923C14.0694 35.8354 14.1101 35.5572 14.0853 35.2811Z" fill="url(#paint4_linear_69_5005)"/>
<path d="M7.9248 33.3727C7.97238 34.1983 8.2109 35.0009 8.62101 35.7153C9.03111 36.4297 9.60124 37.0358 10.2851 37.4843C11.5833 38.2484 12.6454 37.635 12.6454 36.1137C12.5973 35.2882 12.3585 34.4858 11.9485 33.7715C11.5384 33.0572 10.9686 32.451 10.2851 32.0021C8.97682 31.2346 7.9248 31.8582 7.9248 33.3727Z" fill="url(#paint5_linear_69_5005)"/>
<path d="M12.5005 36.0966C12.5005 37.5528 11.489 38.1524 10.238 37.4055C9.58014 36.9724 9.03208 36.3876 8.63837 35.6988C8.24466 35.01 8.01641 34.2365 7.97217 33.4412C7.97217 31.9816 8.98371 31.3854 10.238 32.1289C10.8954 32.5632 11.4428 33.1487 11.8359 33.838C12.229 34.5274 12.4567 35.3012 12.5005 36.0966Z" fill="url(#paint6_linear_69_5005)"/>
<path d="M11.644 35.5553C11.644 36.4358 11.0303 36.7888 10.2784 36.3468C9.8839 36.0829 9.55616 35.7281 9.32182 35.3114C9.08748 34.8947 8.95313 34.4277 8.92969 33.9483C8.92969 33.0677 9.53999 32.7148 10.2784 33.1568C10.6755 33.4194 11.0061 33.7734 11.2434 34.1902C11.4806 34.6069 11.6179 35.0746 11.644 35.5553Z" fill="#CBCAE8"/>
<path d="M11.506 35.4764C11.506 36.2645 10.9564 36.5832 10.2786 36.1857C9.92158 35.9508 9.62427 35.6334 9.41096 35.2594C9.19766 34.8855 9.07441 34.4655 9.05127 34.0339C9.05127 33.2425 9.60088 32.9238 10.2786 33.3213C10.3393 33.3578 10.4 33.3989 10.4607 33.4446C11.013 33.8923 11.38 34.5342 11.4891 35.2434C11.4891 35.3223 11.506 35.4011 11.506 35.4764Z" fill="#CBCAE8"/>
<path d="M10.7203 35.8636C10.383 35.6408 10.1019 35.3405 9.89984 34.987C9.69777 34.6334 9.58034 34.2366 9.55705 33.8284C9.54778 33.7044 9.56331 33.5797 9.60272 33.4619C9.64212 33.3442 9.70458 33.2357 9.78633 33.1431C9.35473 33.1089 9.05127 33.4378 9.05127 34.0237C9.07441 34.4553 9.19766 34.8752 9.41096 35.2492C9.62427 35.6231 9.92158 35.9405 10.2786 36.1754C10.7709 36.4667 11.1991 36.3742 11.3913 36.0007C11.1587 36.0426 10.919 35.9936 10.7203 35.8636Z" fill="#93949C"/>
<g style="mix-blend-mode:multiply">
<path d="M11.4349 35.3462C11.4349 35.8328 11.0978 36.0315 10.6797 35.7814C10.461 35.6372 10.2789 35.4425 10.1482 35.2133C10.0176 34.9841 9.94201 34.7267 9.92773 34.4622C9.92773 33.9757 10.2649 33.7769 10.6797 34.0271C10.8992 34.1707 11.082 34.3651 11.2133 34.5944C11.3446 34.8237 11.4206 35.0813 11.4349 35.3462Z" fill="#91929A"/>
</g>
<path d="M11.489 35.2434C11.3575 35.4353 11.1147 35.4696 10.8315 35.3051C10.6132 35.1605 10.4314 34.9658 10.3008 34.7366C10.1702 34.5075 10.0944 34.2503 10.0796 33.9859C10.0796 33.6604 10.2313 33.4651 10.4572 33.4446C11.0108 33.8917 11.379 34.5336 11.489 35.2434Z" fill="#93949C"/>
<path d="M10.2784 33.5097L9.71191 33.8421L10.8246 35.6786L11.3843 35.3531L11.0033 34.428L10.2784 33.5097Z" fill="#93949C"/>
<path d="M11.0302 35.1955C11.0302 35.682 10.693 35.8808 10.2782 35.6341C10.0589 35.4895 9.87613 35.2944 9.74489 35.0646C9.61365 34.8348 9.53761 34.5768 9.52295 34.3115C9.52295 33.8284 9.86014 33.6262 10.2782 33.8764C10.4966 34.021 10.6784 34.2157 10.809 34.4448C10.9396 34.674 11.0154 34.9311 11.0302 35.1955Z" fill="#93949C"/>
<path d="M10.9559 35.1852C10.9559 35.6478 10.6356 35.8362 10.2377 35.6032C10.0282 35.4648 9.85369 35.2783 9.72833 35.0586C9.60297 34.839 9.53027 34.5924 9.51611 34.3389C9.51611 33.8763 9.8533 33.6879 10.2377 33.9209C10.4469 34.0593 10.6211 34.2459 10.7459 34.4656C10.8707 34.6853 10.9426 34.9319 10.9559 35.1852Z" fill="#CBCAE8"/>
<path d="M41.0634 15.7715V33.9723L40.7127 34.1779L28.0447 41.613L27.4243 41.9762V23.7754L41.0634 15.7715Z" fill="#CFD3D6"/>
<path d="M40.1191 24.5875L40.4563 30.9263V34.8803L45.2072 38.1627L46.7583 40.6742L50.0087 42.4491V39.941L50.2785 40.222L50.1639 38.2175L50.2785 37.7961L50.2043 37.4021L49.9851 36.4872C49.9851 36.4872 49.648 34.9968 49.2366 33.5748C48.8252 32.1529 47.4462 28.8362 47.4462 28.8362L47.1831 28.4935L40.2911 24.447L40.1191 24.5875Z" fill="#98AC9F"/>
<path d="M40.4565 30.9263V34.8803L45.221 38.1627L46.772 40.6777L50.0225 42.4491V39.941L50.2922 40.222L50.1776 38.2175L47.4565 36.4975L43.1742 32.5195L40.4565 30.9263Z" fill="#7B9685"/>
<path d="M49.8874 42.2812L47.0584 40.7565V40.7359C46.9066 40.255 46.709 39.7902 46.4684 39.3482C46.0061 38.5092 45.4192 37.7476 44.7285 37.0903L41.3971 35.1235C41.2839 35.0485 41.1897 34.9473 41.1223 34.8282C41.0549 34.7091 41.0162 34.5755 41.0094 34.4383L40.6722 25.5297C40.6674 25.4811 40.6759 25.432 40.6967 25.3879C40.7176 25.3438 40.7499 25.3063 40.7902 25.2796C40.8329 25.2576 40.8808 25.2482 40.9284 25.2525C40.9761 25.2567 41.0217 25.2744 41.0599 25.3036L46.9708 28.7677C47.1235 28.8706 47.2413 29.019 47.308 29.1925C47.4192 29.4632 47.6182 29.9634 47.9351 30.8406C48.4948 32.3722 49.6649 35.9801 49.6986 36.172C49.7323 36.3639 49.8065 37.3095 49.8099 37.3507L49.8874 42.2812ZM47.1427 40.6914L49.7896 42.1133L49.7154 37.3438C49.7154 37.289 49.6345 36.3433 49.6075 36.1754C49.5806 36.0075 48.4004 32.3653 47.8508 30.8612C47.5305 29.9874 47.3349 29.4906 47.2237 29.2165C47.1638 29.0617 47.0577 28.9299 46.9202 28.8396L41.0094 25.3721C40.9869 25.3495 40.9577 25.3349 40.9263 25.3306C40.8949 25.3264 40.863 25.3327 40.8355 25.3486C40.8079 25.3646 40.7863 25.3892 40.7739 25.4188C40.7614 25.4485 40.7589 25.4814 40.7666 25.5126L41.1038 34.4211C41.11 34.5409 41.1437 34.6575 41.2022 34.7617C41.2608 34.8658 41.3426 34.9545 41.441 35.0207L44.7791 36.9978C45.485 37.6604 46.0825 38.433 46.5493 39.2866C46.7878 39.736 46.9864 40.2061 47.1427 40.6914Z" fill="#6F8B79"/>
<path d="M41.7715 39.8656C41.8149 40.6898 42.0496 41.492 42.4563 42.2065C42.8629 42.9211 43.4301 43.5278 44.1115 43.9772C45.403 44.7344 46.4482 44.1279 46.4482 42.6066C46.4046 41.7828 46.1703 40.9811 45.7642 40.2666C45.3582 39.5522 44.7919 38.9452 44.1115 38.495C42.8168 37.7446 41.7715 38.358 41.7715 39.8656Z" fill="#222222"/>
<path d="M41.4981 32.4853L42.0612 32.8279C42.0882 32.8465 42.1103 32.8715 42.1256 32.9007C42.1409 32.93 42.1489 32.9627 42.1488 32.9958V34.3972C42.1488 34.4623 42.1117 34.4931 42.0612 34.4623L41.4981 34.1197C41.4721 34.1003 41.4509 34.0751 41.4362 34.0459C41.4216 34.0168 41.4139 33.9845 41.4138 33.9518V32.5504C41.4037 32.4887 41.4407 32.4579 41.4981 32.4853Z" fill="#0C100F"/>
<path d="M41.498 33.4001L42.0375 33.7153V34.2601C42.0375 34.2909 42.0173 34.3046 41.9971 34.2909L41.5385 34.0237C41.526 34.0148 41.5158 34.003 41.5088 33.9893C41.5017 33.9756 41.498 33.9604 41.498 33.9449V33.4001Z" fill="#222222"/>
<path d="M14.183 0L41.0633 15.7715L27.4243 23.7755L0.543945 8.00396L14.183 0Z" fill="#EAEAEA"/>
<path d="M27.4243 23.3609L0.894619 7.7984L0.543945 8.00398L27.4243 23.7755L41.0633 15.7715L40.7093 15.5659L27.4243 23.3609Z" fill="#F2EFEC"/>
<path d="M40.3217 38.0565L41.2051 38.5739L41.6502 37.6008L42.4122 36.9155L44.9209 38.3888C44.9209 38.3888 45.9324 39.0433 46.6844 40.9894C46.8692 41.5503 47.019 42.1225 47.1328 42.7026L47.3115 42.6683C47.3126 42.0876 47.2273 41.51 47.0586 40.9552C46.7585 39.821 45.6391 38.2141 44.8332 37.5288C44.0273 36.8435 40.4498 34.8563 40.4498 34.8563L40.3149 36.7236L40.3217 38.0565Z" fill="#292929"/>
<path d="M50.3796 42.0687L47.8541 44.3199L41.2756 48.1813L38.5107 49.2024V46.5401L50.3965 40.616L50.3796 42.0687Z" fill="#CFD3D6"/>
<path d="M50.3795 41.9831V42.2092L49.6006 43.0076L48.6531 43.8196L47.854 44.3199L48.9836 42.3908L50.3795 41.9831Z" fill="#CFD3D6"/>
<path d="M29.3933 30.892L29.0562 37.6282V41.5822L33.8206 44.8647L35.375 47.3762L38.5108 49.2161V46.7081L38.9862 46.8691V44.4432L38.703 44.1726L38.5985 43.1858C38.5985 43.1858 38.1837 41.7159 37.8533 40.2768C37.5228 38.8377 36.7372 35.1201 36.717 35.1373L36.4573 34.7946L29.5619 30.7515L29.3933 30.892Z" fill="#BEC3C7"/>
<path d="M29.0562 37.6145V41.5685L33.8206 44.851L35.375 47.3625L38.5108 49.2024L38.8817 48.9831L38.9862 48.4486V44.7824L36.0561 43.1858L31.7739 39.2078L29.0562 37.6145Z" fill="#AFB4B8"/>
<path d="M38.3896 49.0791L38.4807 48.7262V46.8245V44.5186L38.447 44.1383L36.5891 35.3086L36.2688 34.8803L29.4307 30.8474L29.5622 30.7344L36.4576 34.7809L36.7172 35.1133L38.6729 43.734L38.8752 44.0732L38.7032 44.1588L38.9865 44.4295V48.9283L38.6054 49.1476H38.511L38.3896 49.0791Z" fill="#BEC3C7"/>
<path d="M38.5108 49.2025L35.375 47.3625V47.3077L38.5108 49.1476V49.2025Z" fill="#292929"/>
<path d="M31.6491 32.7662L35.9751 35.3017C36.0616 35.3528 36.1364 35.422 36.1945 35.5047C36.2527 35.5874 36.2928 35.6817 36.3123 35.7814C36.4505 36.4667 36.7877 38.1456 37.0946 39.523C37.2911 40.3517 37.4464 41.1899 37.5599 42.0345V43.3262C37.5599 43.453 37.4722 43.5044 37.3643 43.4427L36.3528 42.8431C36.1572 42.7301 33.281 39.1427 32.8933 38.9165L31.3186 37.9914C31.2613 37.9545 31.2136 37.9041 31.1795 37.8444C31.1455 37.7848 31.1261 37.7177 31.123 37.6488L31.4602 32.8724C31.4535 32.7525 31.5412 32.7011 31.6491 32.7662Z" fill="#1E1E1E"/>
<path d="M36.4168 42.7163C36.3325 42.6478 35.7424 41.966 35.1995 41.3047C34.0329 39.917 33.1764 38.9234 32.9573 38.7863L31.3826 37.8646C31.3487 37.84 31.3203 37.8083 31.2994 37.7717C31.2785 37.7351 31.2654 37.6943 31.2612 37.6522L31.5984 32.9067L35.9009 35.4319C35.9695 35.4718 36.029 35.526 36.0755 35.591C36.122 35.6559 36.1544 35.7302 36.1706 35.8088C36.3021 36.4941 36.6461 38.1764 36.9495 39.5538C37.3103 41.171 37.4047 41.9522 37.4148 42.0448V43.2988L36.4168 42.7163Z" fill="#1E2329"/>
<path d="M31.0657 40.1774L31.6288 40.52C31.6552 40.5392 31.6769 40.5643 31.6921 40.5935C31.7074 40.6226 31.7157 40.655 31.7165 40.6879V42.0893C31.7165 42.1544 31.676 42.1852 31.6288 42.1578L31.0657 41.8152C31.0393 41.7961 31.0176 41.7709 31.0024 41.7418C30.9871 41.7126 30.9788 41.6803 30.978 41.6473V40.2459C30.978 40.1808 31.0185 40.1431 31.0657 40.1774Z" fill="#3C4749"/>
<path d="M31.0791 41.0922L31.6152 41.4075V41.9522C31.6152 41.9831 31.5984 41.9968 31.5748 41.9831L31.1196 41.7158C31.1071 41.707 31.0968 41.6952 31.0898 41.6815C31.0828 41.6678 31.0791 41.6525 31.0791 41.637V41.0922Z" fill="#222222"/>
<path d="M13.3971 37.1314L13.2488 35.7814L12.0889 32.7217L12.2676 32.6531L13.4376 35.7471L13.5893 37.1108L13.3971 37.1314Z" fill="#292929"/>
<path d="M13.5895 37.1108L13.4412 35.7608L12.2812 32.7011L13.6907 31.8171L14.8641 34.9111L15.0124 36.2748L13.5895 37.1108Z" fill="#1D1D1D"/>
<path d="M0.543945 8.00397L27.4243 23.7755L27.4243 41.9763L0.543945 26.2048L0.543945 8.00397Z" fill="#BEC3C7"/>
<path d="M26.8273 24.1352V40.9106L1.14062 25.8415L1.14062 9.06952L1.54187 9.30251L1.82511 9.46698L26.8273 24.1352Z" fill="#A5ABAF"/>
<path d="M26.8273 27.5376V40.914L1.14062 25.8415L1.9937 25.3413L9.10491 21.1714L16.7556 20.3148L26.8273 27.5376Z" fill="#A5ABAF"/>
<path d="M26.8273 24.1352V40.4892L1.50146 25.6291L1.50146 9.27856L26.8273 24.1352Z" fill="#BEC3C7"/>
<path d="M5.38574 32.033L5.93872 32.3585V30.707L5.38574 30.3815V32.033Z" fill="#862929"/>
<path d="M28.9245 44.7447L29.5112 44.9023L29.9597 43.9292L31.015 43.6037L33.5237 45.077C33.5237 45.077 34.5352 45.7315 35.2838 47.6776C35.453 48.2846 35.5659 48.9064 35.621 49.5347L35.9042 49.3668C35.9049 48.7861 35.8197 48.2086 35.6513 47.6537C35.3512 46.523 34.2318 44.9126 33.4259 44.2273C32.62 43.542 29.0425 41.5547 29.0425 41.5547L28.7593 41.7226L28.9245 44.7447Z" fill="#535C5E"/>
<path d="M28.5336 44.9743L29.417 45.4917L29.8654 44.5152L30.7286 43.7716L33.2373 45.2416C33.2373 45.2416 34.2488 45.8994 35.0007 47.8422C35.185 48.4029 35.3337 48.9752 35.4458 49.5553L35.6279 49.5211C35.6282 48.9401 35.5418 48.3625 35.3716 47.8079C35.0749 46.6772 33.9555 45.0668 33.1462 44.3815C32.337 43.6963 28.7628 41.7124 28.7628 41.7124L28.5234 43.638L28.5336 44.9743Z" fill="#3C4749"/>
<path d="M47.1832 28.4867L47.045 28.5655L37.0677 34.4246L36.4574 34.7809L29.562 30.7344L30.0577 30.2033L30.2161 30.0354L39.4078 24.6423L40.2912 24.4436L46.954 28.3531L47.1832 28.4867Z" fill="#EAEAEA"/>
<path d="M50.3966 40.616L48.0431 42.4491L47.1765 42.7643L42.4189 45.5533L40.2069 46.5984L38.9863 47.0438V44.5186L50.3966 37.9777V39.2112V40.616Z" fill="#CFD3D6"/>
<path d="M50.3796 39.7971L49.1826 40.825L41.3464 45.591L39.4144 46.4133H38.9693L38.5815 46.3517V48.1471L38.9693 48.2567L39.5122 48.2362L41.3701 47.4687L41.3566 46.5298L41.3701 47.4687L42.6379 46.8451L48.0564 43.5935L49.4928 42.4388L50.3796 41.5993V39.7971Z" fill="#1E1E1E"/>
<path d="M39.4414 46.5059H38.9694L38.6592 46.451V48.0443L38.9694 48.1197L39.5325 48.0888L39.4414 46.5059Z" fill="#F39737"/>
<path d="M50.1943 40.0883L48.994 41.0888C48.941 41.1424 48.9107 41.2149 48.9097 41.2909V41.6644C48.9097 41.7363 48.9468 41.7672 48.994 41.7295L50.1943 40.729C50.2452 40.6742 50.2741 40.6021 50.2753 40.5268V40.1431C50.2651 40.078 50.2382 40.0506 50.1943 40.0883Z" fill="#E5E6EA"/>
<path d="M50.1943 40.9004L48.994 41.9009C48.941 41.9545 48.9107 42.027 48.9097 42.103V42.4765C48.9097 42.5484 48.9468 42.5793 48.994 42.5416L50.1943 41.5411C50.2457 41.4853 50.2746 41.4119 50.2753 41.3355V40.9655C50.2651 40.8901 50.2382 40.8627 50.1943 40.9004Z" fill="#E5E6EA"/>
<path d="M41.3564 45.7829L39.8189 46.4682C39.7877 46.4869 39.7617 46.5134 39.7434 46.5452C39.7251 46.577 39.7151 46.613 39.7144 46.6498V47.0233C39.7144 47.0952 39.7616 47.1329 39.8189 47.1089L41.3564 46.4236C41.389 46.4054 41.4162 46.3786 41.4351 46.346C41.4541 46.3135 41.4642 46.2764 41.4643 46.2386V45.8686C41.4643 45.7932 41.4171 45.7555 41.3564 45.7829Z" fill="#E5E6EA"/>
<path d="M41.3564 46.5949L39.8189 47.2802C39.7877 47.2989 39.7617 47.3254 39.7434 47.3572C39.7251 47.389 39.7151 47.425 39.7144 47.4618V47.8353C39.7144 47.9072 39.7616 47.9449 39.8189 47.9209L41.3564 47.2357C41.389 47.2174 41.4162 47.1906 41.4351 47.158C41.4541 47.1255 41.4642 47.0884 41.4643 47.0506V46.6806C41.4643 46.6052 41.4171 46.5675 41.3564 46.5949Z" fill="#E5E6EA"/>
<path d="M39.1449 44.6043L38.9224 44.4398L50.3967 37.707V38.0599L49.574 38.9988L47.7026 40.3556L42.1627 43.6072L40.3217 44.4295L39.1449 44.6043Z" fill="#DFE0EA"/>
<path d="M50.3967 37.707L49.1019 38.7863L47.4935 39.965L42.0042 43.1858L40.4565 43.8573L38.9088 44.4946L38.7031 44.1588L50.0865 36.8607L50.218 37.4021L50.3967 37.707Z" fill="#DFE0EA"/>
<path d="M38.7031 44.1588H38.3659L37.5601 43.8505L38.3626 44.361L39.1448 44.6043L38.7031 44.1588Z" fill="#CFD3D6"/>
<path d="M38.3727 49.0517L35.6752 47.4618V47.4413C35.527 46.9595 35.3304 46.4945 35.0885 46.0536C34.6266 45.2134 34.0384 44.4516 33.3453 43.7956L30.776 42.2743C30.6627 42.1993 30.5685 42.0981 30.5011 41.979C30.4337 41.8599 30.395 41.7263 30.3882 41.5891L31.0221 32.4373C31.0182 32.3897 31.0272 32.3419 31.048 32.299C31.0688 32.2562 31.1006 32.2199 31.1401 32.194C31.183 32.1728 31.2307 32.1638 31.2783 32.168C31.3258 32.1722 31.3713 32.1895 31.4099 32.218L36.2619 35.0619C36.4153 35.1641 36.5332 35.3127 36.5991 35.4867C36.663 35.6611 36.7104 35.8412 36.7407 36.0247C36.7846 36.2337 36.8453 36.5215 36.9498 36.9429C37.3376 38.4574 38.2985 42.6992 38.2985 42.8602C38.2985 43.0213 38.4064 43.9978 38.4098 44.0389L38.3727 49.0517ZM35.7427 47.3967L38.2783 48.8838L38.3188 44.0492C38.3188 43.9944 38.2378 43.0487 38.2075 42.8808C38.1771 42.7129 37.2296 38.4848 36.8587 36.9703C36.7508 36.5455 36.6902 36.2577 36.6463 36.0486C36.6185 35.8709 36.5733 35.6965 36.5114 35.5278C36.4503 35.3728 36.343 35.241 36.2046 35.1509L31.3559 32.3036C31.3309 32.2851 31.3016 32.2734 31.2709 32.2698C31.2402 32.2662 31.209 32.2708 31.1806 32.2831C31.1561 32.3013 31.137 32.3259 31.1251 32.3542C31.1132 32.3825 31.1091 32.4136 31.1131 32.4441L30.4759 41.5959C30.4826 41.7146 30.5165 41.8301 30.5751 41.933C30.6337 42.036 30.7152 42.1235 30.813 42.1887L33.3891 43.7168C34.0937 44.3819 34.6911 45.1555 35.1593 46.0091C35.3943 46.447 35.5895 46.9057 35.7427 47.3796V47.3967Z" fill="#A5ABAF"/>
<path d="M49.8434 37.8132L49.432 38.2655L48.5115 39.0467L47.2808 40.0061L42.0645 43.0692L39.7278 43.8504L38.8748 44.0732L38.6725 43.7339L36.7168 35.1132L47.446 28.819L48.6835 31.8514L49.9985 36.4872L50.0861 36.8607V37.4809L49.8434 37.8132Z" fill="#DFE0EA"/>
<path d="M39.0737 42.7609L39.1816 43.1515L39.3266 43.453L39.711 43.6552L42.014 42.8705L47.2134 39.8313L48.4306 38.8788L49.3949 38.0496L49.7287 37.5597L49.7759 37.2581L49.6546 36.5455L39.0737 42.7609Z" fill="#1E1E1E"/>
<path d="M49.6006 36.6037L48.09 38.3203L46.9807 39.218L43.039 41.4931L41.225 42.2778L39.0737 42.7609L38.7871 41.9694L39.593 41.2053L41.4172 40.2733L43.7876 38.8377L44.3102 37.0183L47.183 35.3976L49.5129 36.5318L49.6006 36.6037Z" fill="#5C5973"/>
<path d="M49.4455 35.7437L49.3983 35.7985L47.8843 37.5151L46.7783 38.4128L42.8367 40.6879L41.0192 41.4726L38.868 41.9591L38.5848 41.1676L38.0925 39.3585L37.1787 35.6135L37.4653 35.2263L38.5443 34.8426L40.4629 33.9449L43.7066 32.0432L44.8598 31.3682L46.3467 30.2718L47.2167 29.4392L47.3751 29.4632L48.7812 33.1842L49.4455 35.7437Z" fill="#1E1E1E"/>
<path d="M49.2872 35.706L48.9601 36.076L48.4982 36.5968L47.7867 37.4088L46.6976 38.2929L42.7728 40.5542L40.9756 41.332L38.9626 41.7843L38.7232 41.123L38.2343 39.3208L37.3374 35.6477L37.5566 35.353L38.5985 34.9796L40.5305 34.075L43.781 32.1734L43.8181 32.1494L44.9409 31.4915L46.4414 30.3848L47.0618 29.7886L47.2776 29.6105L48.6432 33.2287L49.2872 35.706Z" fill="#1E2329"/>
<path d="M48.9566 35.3462V36.076L48.498 36.5968L47.7427 36.1548C47.5876 36.0658 45.0452 33.3452 43.8179 32.1494L44.9407 31.4916L46.4412 30.3849L47.0616 29.7887L47.2066 29.6688C47.7026 30.7987 48.1382 31.9551 48.5115 33.1328C49.0071 34.8426 48.9566 35.3462 48.9566 35.3462Z" fill="#313942"/>
<g style="mix-blend-mode:screen">
<path d="M40.4566 34.1813C39.6203 34.5239 38.6897 34.983 38.6897 34.983L37.5871 35.3257L37.3174 35.6683L38.9392 41.7844L39.1753 42.5347L41.1512 42.1133L42.9248 41.3526L42.8809 40.6125L40.4566 34.1813Z" fill="#0B0E0F"/>
</g>
<path d="M49.6548 36.5455L49.6009 36.6037L48.0903 38.3203L46.9809 39.218L43.0393 41.4931L41.2252 42.2778L39.0706 42.7609L38.7874 41.9694L38.2276 39.9033L38.0928 39.3585L38.5851 41.1676L38.8683 41.9591L41.0195 41.4726L42.837 40.6879L46.7786 38.4128L47.8846 37.5151L49.3986 35.7985L49.4458 35.7437L49.6548 36.5455Z" fill="#1E1E1E"/>
<path d="M47.4464 28.8191L46.2123 29.727L44.3308 31.0051L40.2104 33.4206L38.8549 34.0408L36.7172 35.1133L36.4575 34.7809L37.0678 34.4246L47.0451 28.5655L47.1833 28.4867L47.4464 28.8191Z" fill="#EAEAEA"/>
<path d="M47.4463 28.819L46.2122 29.727L44.3307 31.005L40.2103 33.4206L38.8548 34.0408L36.7171 35.1132L36.4574 34.7809L29.562 30.7343L30.0577 30.2033L29.943 30.5527L36.6732 34.5136L37.0677 34.4245L37.2633 34.38L39.9978 33.1876L42.9954 31.4333L45.9255 29.5317L47.045 28.5689V28.5655L46.954 28.353L47.1832 28.4867L47.4463 28.819Z" fill="#DFE0EA"/>
<path d="M43.3461 33.0026L42.928 33.2459C42.695 33.3861 42.4698 33.5394 42.2536 33.7051C42.2159 33.7355 42.1872 33.7759 42.1705 33.8218C42.1539 33.8677 42.1499 33.9174 42.1592 33.9655L42.2098 34.2122C42.2114 34.232 42.2177 34.2512 42.228 34.2681C42.2384 34.285 42.2525 34.2992 42.2692 34.3095C42.286 34.3199 42.3049 34.3261 42.3244 34.3276C42.344 34.3291 42.3636 34.326 42.3817 34.3184C42.625 34.2125 42.8615 34.0912 43.0898 33.9552L43.5079 33.7119C43.7409 33.5717 43.966 33.4184 44.1823 33.2528C44.2197 33.222 44.2485 33.1817 44.2657 33.1359C44.2829 33.0902 44.2878 33.0407 44.2801 32.9924L44.2261 32.7457C44.2252 32.7255 44.2194 32.7059 44.2092 32.6885C44.1991 32.6712 44.1849 32.6566 44.1679 32.6461C44.1509 32.6356 44.1317 32.6295 44.1119 32.6284C44.092 32.6272 44.0722 32.631 44.0541 32.6395C43.8102 32.744 43.5737 32.8653 43.3461 33.0026Z" fill="#272E36"/>
<path d="M43.4373 33.3144C43.4373 33.1945 43.4069 32.8587 43.4069 32.8587H42.9922C42.9922 32.8587 43.0394 33.3315 43.0428 33.3487C43.0664 33.4275 43.1675 33.5131 43.2114 33.5097C43.3125 33.5063 43.444 33.448 43.4373 33.3144Z" fill="#272E36"/>
<path d="M43.3731 32.7594C43.3882 32.7796 43.3987 32.803 43.4041 32.8278C43.4094 32.8526 43.4093 32.8783 43.4038 32.9031C43.3984 32.9279 43.3877 32.9512 43.3725 32.9713C43.3573 32.9915 43.3379 33.008 43.3157 33.0198C43.2688 33.0478 43.2133 33.0574 43.1599 33.0466C43.1064 33.0359 43.0587 33.0056 43.0258 32.9615C43.0106 32.941 43 32.9174 42.9947 32.8923C42.9894 32.8672 42.9894 32.8413 42.9948 32.8162C43.0003 32.7912 43.011 32.7676 43.0262 32.7472C43.0414 32.7267 43.0608 32.7098 43.0831 32.6977C43.1308 32.6715 43.1861 32.6633 43.2392 32.6746C43.2923 32.6859 43.3397 32.7159 43.3731 32.7594Z" fill="#272E36"/>
<path d="M36.7575 40.7839C36.673 40.6893 36.5766 40.6063 36.4709 40.5372C36.4266 40.5107 36.3776 40.4934 36.3266 40.4863C36.2757 40.4793 36.2239 40.4826 36.1742 40.4961L35.5807 40.6297C35.4445 40.6635 35.3226 40.7411 35.2333 40.851C35.144 40.9609 35.092 41.0972 35.0851 41.2396V43.638C35.0828 43.7295 35.1114 43.8189 35.166 43.8916C35.2512 43.992 35.35 44.0797 35.4594 44.152L35.5268 44.0252H35.5774L36.1708 43.8916C36.4473 43.8299 36.5552 43.8265 36.6935 43.5489C36.6935 43.5489 36.6935 41.8358 36.6766 41.1505L36.7575 40.7839Z" fill="#2E2E3B"/>
<path d="M36.734 42.2572L37.115 42.5416L37.6579 42.8842C37.7336 42.9263 37.7941 42.992 37.8305 43.0715C37.8669 43.151 37.8773 43.2403 37.8602 43.3262C37.786 43.7854 37.4421 43.6243 37.4421 43.6243L36.6733 43.3468L36.734 42.2572Z" fill="#2E2E3B"/>
<path d="M36.3931 44.0971L35.7996 44.2307C35.7414 44.2495 35.6796 44.2537 35.6194 44.243C35.5592 44.2324 35.5024 44.2072 35.4538 44.1696C35.4052 44.132 35.3662 44.083 35.3402 44.0269C35.3141 43.9707 35.3017 43.909 35.304 43.847V41.4486C35.3087 41.3044 35.3597 41.1658 35.4492 41.0538C35.5387 40.9418 35.6618 40.8627 35.7996 40.8284L36.3931 40.6947C36.6696 40.6331 36.8281 40.7804 36.8921 41.0785C36.8921 41.1402 36.9157 43.7648 36.9157 43.7648C36.7775 44.0355 36.6696 44.0355 36.3931 44.0971Z" fill="url(#paint7_linear_69_5005)"/>
<g style="mix-blend-mode:multiply">
<path d="M18.0166 14.2193L28.3513 20.2805H29.2988L25.3234 10.4641H24.4164L18.0166 14.2193Z" fill="#E8E8E8"/>
</g>
<path d="M18.9644 13.9212L29.299 19.9825L35.6988 16.2272L25.3641 10.166L18.9644 13.9212Z" fill="#F1F1F1"/>
<path d="M18.9644 14.2194L29.299 20.2806V19.9825L18.9644 13.9213V14.2194Z" fill="#BEC3C7"/>
<path d="M35.6986 16.5253L29.2988 20.2806V19.9825L35.6986 16.2272V16.5253Z" fill="#E0E0E0"/>
<path d="M25.8158 9.66577L20.2185 12.9516L19.8105 13.9487L25.4112 10.6628L25.8158 9.66577Z" fill="#E0DAD3"/>
<path d="M34.8525 16.1998L29.2518 19.4857L28.8877 18.0398L34.4883 14.7539L34.8525 16.1998Z" fill="#E0E0E0"/>
<path d="M34.4884 14.7538L28.8877 18.0397L20.2188 12.9516L25.816 9.66571L34.4884 14.7538Z" fill="#F1F1F1"/>
<path d="M27.9604 16.7754L28.0785 16.844L32.4551 14.2776L32.3371 14.2091L27.9604 16.7754Z" fill="#493F41"/>
<path d="M27.5488 16.5356L27.6668 16.6041L32.0435 14.0343L31.9255 13.9658L27.5488 16.5356Z" fill="#493F41"/>
<path d="M27.1377 16.2957L27.2557 16.3642L31.6357 13.7945L31.5143 13.726L27.1377 16.2957Z" fill="#493F41"/>
<path d="M26.7261 16.0524L26.8441 16.121L31.2241 13.5546L31.1061 13.4827L26.7261 16.0524Z" fill="#493F41"/>
<path d="M26.3149 15.8126L26.433 15.8811L30.813 13.3113L30.695 13.2428L26.3149 15.8126Z" fill="#493F41"/>
<path d="M25.9033 15.5693L26.0213 15.6413L30.4014 13.0715L30.2833 13.003L25.9033 15.5693Z" fill="#493F41"/>
<path d="M25.4956 15.3295L25.6136 15.3981L29.9903 12.8317L29.8722 12.7598L25.4956 15.3295Z" fill="#493F41"/>
<path d="M25.084 15.0897L25.202 15.1582L29.5786 12.5884L29.4606 12.5199L25.084 15.0897Z" fill="#493F41"/>
<path d="M24.6729 14.8464L24.7909 14.9183L29.1675 12.3486L29.0495 12.28L24.6729 14.8464Z" fill="#493F41"/>
<path d="M24.2612 14.6065L24.3792 14.675L28.7593 12.1087L28.6412 12.0367L24.2612 14.6065Z" fill="#493F41"/>
<path d="M23.8501 14.3667L23.9681 14.4352L28.3481 11.8655L28.2301 11.7969L23.8501 14.3667Z" fill="#493F41"/>
<path d="M23.4385 14.1234L23.5565 14.1954L27.9365 11.6256L27.8185 11.5571L23.4385 14.1234Z" fill="#493F41"/>
<path d="M23.0273 13.8836L23.1454 13.9521L27.5254 11.3858L27.4074 11.3138L23.0273 13.8836Z" fill="#493F41"/>
<path d="M22.6191 13.6437L22.7371 13.7123L27.1138 11.1425L26.9958 11.074L22.6191 13.6437Z" fill="#493F41"/>
<path d="M22.208 13.4004L22.326 13.4724L26.7027 10.9026L26.5846 10.8341L22.208 13.4004Z" fill="#493F41"/>
<path d="M24.2412 12.2081L30.1116 15.6516L30.4218 15.47L24.5514 12.0265L24.2412 12.2081Z" fill="#F1F1F1"/>
<path d="M19.8105 13.9487L29.2517 19.4857L28.8875 18.0398L20.2185 12.9517L19.8105 13.9487Z" fill="#BEC3C7"/>
<path d="M38.4334 33.777L31.2446 29.5421L31.3761 29.4667L38.4806 33.777H38.4334Z" fill="#BEC3C7"/>
<path d="M38.4803 33.7324L31.2915 29.5009L31.4196 29.4221L38.6084 33.657L38.4803 33.7324Z" fill="#EAEAEA"/>
<path d="M38.4805 33.7324V33.777L38.6086 33.7016V33.657L38.4805 33.7324Z" fill="#F4F1EE"/>
<path d="M38.4803 33.777L31.2915 29.542V29.5009L38.4803 33.7325V33.777Z" fill="#BEC3C7"/>
<path d="M39.863 32.941L32.6709 28.706L32.8024 28.6306L39.9069 32.941H39.863Z" fill="#BEC3C7"/>
<path d="M39.9065 32.8964L32.7178 28.6614L32.8459 28.5861L40.0347 32.821L39.9065 32.8964Z" fill="#EAEAEA"/>
<path d="M39.9067 32.8964V32.941L40.0349 32.8656V32.821L39.9067 32.8964Z" fill="#F4F1EE"/>
<path d="M39.9065 32.9409L32.7178 28.706V28.6614L39.9065 32.8964V32.9409Z" fill="#BEC3C7"/>
<path d="M41.2893 32.1015L34.1006 27.8665L34.2287 27.7911L41.3332 32.1015H41.2893Z" fill="#BEC3C7"/>
<path d="M41.3328 32.0604L34.144 27.8254L34.2722 27.75L41.4643 31.985L41.3328 32.0604Z" fill="#EAEAEA"/>
<path d="M41.333 32.0604V32.1015L41.4645 32.0261V31.985L41.333 32.0604Z" fill="#F4F1EE"/>
<path d="M41.3328 32.1015L34.144 27.8666V27.8254L41.3328 32.0604V32.1015Z" fill="#BEC3C7"/>
<path d="M42.7156 31.2654L35.5269 27.0305L35.655 26.9551L42.7628 31.2654H42.7156Z" fill="#BEC3C7"/>
<path d="M42.7629 31.2209L35.5708 26.9859L35.7023 26.9105L42.8911 31.1455L42.7629 31.2209Z" fill="#EAEAEA"/>
<path d="M42.7627 31.2209V31.2654L42.8908 31.19V31.1455L42.7627 31.2209Z" fill="#F4F1EE"/>
<path d="M42.7629 31.2655L35.5708 27.0305V26.986L42.7629 31.2209V31.2655Z" fill="#BEC3C7"/>
<path d="M44.1419 30.4294L36.9531 26.1944L37.0846 26.1156L44.1891 30.4294H44.1419Z" fill="#BEC3C7"/>
<path d="M44.1893 30.3849L37.0005 26.1499L37.1286 26.0745L44.3174 30.3095L44.1893 30.3849Z" fill="#EAEAEA"/>
<path d="M44.189 30.3849V30.4294L44.3171 30.354V30.3095L44.189 30.3849Z" fill="#F4F1EE"/>
<path d="M44.1893 30.4294L37.0005 26.1944V26.1499L44.1893 30.3849V30.4294Z" fill="#BEC3C7"/>
<path d="M45.5715 29.59L38.3794 25.355L38.5109 25.2796L45.6154 29.59H45.5715Z" fill="#BEC3C7"/>
<path d="M45.6155 29.5488L38.4268 25.3138L38.5549 25.2385L45.747 29.47L45.6155 29.5488Z" fill="#EAEAEA"/>
<path d="M45.6155 29.59L38.4268 25.355V25.3139L45.6155 29.5489V29.59Z" fill="#BEC3C7"/>
<path d="M40.1191 32.7217L39.7212 32.4887L40.0348 32.3002L40.345 32.7217H40.1191Z" fill="#EBE7E3"/>
<path d="M40.3452 32.7217L40.6622 32.5332V32.3722L40.3452 32.5641V32.7217Z" fill="#E07427"/>
<path d="M40.3451 32.564L39.9473 32.331L40.2642 32.1392L40.6621 32.3722L40.3451 32.564Z" fill="#FF9A2E"/>
<path d="M40.3451 32.564L39.9473 32.3311V32.4887L40.3451 32.7217V32.564Z" fill="#E06F2E"/>
<path d="M41.7006 31.7691L41.2993 31.5361L41.6163 31.3442L41.9265 31.7691H41.7006Z" fill="#EBE7E3"/>
<path d="M41.9263 31.7691L42.2432 31.5772V31.4162L41.9263 31.6081V31.7691Z" fill="#E07427"/>
<path d="M41.9266 31.6081L41.5254 31.3751L41.8423 31.1832L42.2436 31.4162L41.9266 31.6081Z" fill="#FF9A2E"/>
<path d="M41.9266 31.6081L41.5254 31.3751V31.5362L41.9266 31.7692V31.6081Z" fill="#E06F2E"/>
<path d="M43.2787 30.8132L42.8809 30.5802L43.1944 30.3883L43.5047 30.8132H43.2787Z" fill="#EBE7E3"/>
<path d="M43.5044 30.8132L43.8213 30.6213V30.4637L43.5044 30.6521V30.8132Z" fill="#E07427"/>
<path d="M43.5043 30.6522L43.1064 30.4226L43.42 30.2307L43.8213 30.4637L43.5043 30.6522Z" fill="#FF9A2E"/>
<path d="M43.5043 30.6522L43.1064 30.4226V30.5802L43.5043 30.8132V30.6522Z" fill="#E06F2E"/>
<path d="M50.3796 42.2092V42.6067L49.9514 43.0624L49.0005 43.9327L48.1643 44.5323L44.1114 46.8656L41.3768 48.3938L39.1885 49.2024H38.5107L38.6052 49.1476L38.8816 48.9831L42.2096 47.3967L48.4543 43.8299L50.3796 42.2092Z" fill="#CFD3D6"/>
<path d="M50.3796 42.5519V42.6067L49.9514 43.0624L49.0005 43.9327L48.1643 44.5323L42.3479 47.8799L41.3768 48.3938L39.1885 49.2024H38.5107V49.1476H39.1885L41.3768 48.339L42.3479 47.8216L48.1643 44.4741L49.0005 43.8745L49.9514 43.0076L50.3796 42.5519Z" fill="#292929"/>
<path d="M41.188 18.5468L31.2816 24.3614L29.3057 23.2033L39.2121 17.3887L41.188 18.5468Z" fill="#F1F1F1"/>
<path d="M41.8793 19.4856V22.0143L40.7497 22.6687L31.9728 27.8185L30.8432 28.4832L29.3057 23.2032L31.2816 24.3613L41.188 18.5468L41.8793 19.4856Z" fill="#E0E0E0"/>
<path d="M31.9728 25.3002V27.8288L30.8432 28.4833L29.3057 27.5821V23.2032L31.2816 24.3614L31.9728 25.3002Z" fill="#CFD3D6"/>
<path d="M29.3057 27.5821V23.4568L31.1029 24.5087L31.7604 25.3995V27.8254L30.7353 28.4216L29.3057 27.5821Z" fill="#BEC3C7"/>
<path d="M41.8794 19.4856L31.973 25.3002L31.2817 24.3613L41.1882 18.5468L41.8794 19.4856Z" fill="#EAEAEA"/>
<path d="M36.9293 23.3437L36.582 23.5459V23.2033L36.9293 22.9977V23.3437Z" fill="url(#paint8_linear_69_5005)"/>
<path d="M36.9293 23.8885L36.582 24.0907V23.7481L36.9293 23.5425V23.8885Z" fill="url(#paint9_linear_69_5005)"/>
<path d="M37.5602 23.515L37.2129 23.7206V23.3779L37.5602 23.1724V23.515Z" fill="url(#paint10_linear_69_5005)"/>
<path d="M36.9293 24.4333L36.582 24.6354V24.2928L36.9293 24.0872V24.4333Z" fill="url(#paint11_linear_69_5005)"/>
<path d="M37.5602 24.0598L37.2129 24.2654V23.9227L37.5602 23.7172V24.0598Z" fill="url(#paint12_linear_69_5005)"/>
<path d="M38.1906 23.6932L37.8433 23.8954V23.5528L38.1906 23.3472V23.6932Z" fill="url(#paint13_linear_69_5005)"/>
<defs>
<linearGradient id="paint0_linear_69_5005" x1="49.7307" y1="35.3698" x2="50.6533" y2="35.3698" gradientUnits="userSpaceOnUse">
<stop offset="0.02" stop-color="#2E2E3B"/>
<stop offset="0.14" stop-color="#393945"/>
<stop offset="0.3" stop-color="#40404B"/>
<stop offset="0.77" stop-color="#42424D"/>
</linearGradient>
<linearGradient id="paint1_linear_69_5005" x1="35.6513" y1="50.1173" x2="32.2564" y2="44.3259" gradientUnits="userSpaceOnUse">
<stop stop-color="#181818"/>
<stop offset="0.27" stop-color="#262626"/>
<stop offset="0.77" stop-color="#2E2E2E"/>
</linearGradient>
<linearGradient id="paint2_linear_69_5005" x1="31.5411" y1="50.0076" x2="33.9345" y2="45.9258" gradientUnits="userSpaceOnUse">
<stop stop-color="#141414"/>
<stop offset="0.44" stop-color="#1E1E1E"/>
<stop offset="0.78" stop-color="#202020"/>
<stop offset="0.98" stop-color="#292929"/>
<stop offset="1" stop-color="#2A2A2A"/>
</linearGradient>
<linearGradient id="paint3_linear_69_5005" x1="31.5445" y1="49.9425" x2="33.848" y2="46.017" gradientUnits="userSpaceOnUse">
<stop stop-color="#161616"/>
<stop offset="0.3" stop-color="#1A1A1A"/>
<stop offset="0.79" stop-color="#1E1E1E"/>
<stop offset="0.8" stop-color="#1E1E1E"/>
</linearGradient>
<linearGradient id="paint4_linear_69_5005" x1="13.2221" y1="36.9189" x2="9.82379" y2="31.1276" gradientUnits="userSpaceOnUse">
<stop stop-color="#181818"/>
<stop offset="0.27" stop-color="#262626"/>
<stop offset="0.77" stop-color="#2E2E2E"/>
</linearGradient>
<linearGradient id="paint5_linear_69_5005" x1="9.10832" y1="36.8127" x2="11.5017" y2="32.7309" gradientUnits="userSpaceOnUse">
<stop stop-color="#141414"/>
<stop offset="0.44" stop-color="#1E1E1E"/>
<stop offset="0.78" stop-color="#202020"/>
<stop offset="0.98" stop-color="#292929"/>
<stop offset="1" stop-color="#2A2A2A"/>
</linearGradient>
<linearGradient id="paint6_linear_69_5005" x1="9.11185" y1="36.7476" x2="11.4154" y2="32.8188" gradientUnits="userSpaceOnUse">
<stop stop-color="#161616"/>
<stop offset="0.3" stop-color="#1A1A1A"/>
<stop offset="0.79" stop-color="#1E1E1E"/>
<stop offset="0.8" stop-color="#1E1E1E"/>
</linearGradient>
<linearGradient id="paint7_linear_69_5005" x1="35.5217" y1="42.2497" x2="37.1382" y2="42.2497" gradientUnits="userSpaceOnUse">
<stop offset="0.02" stop-color="#2E2E3B"/>
<stop offset="0.14" stop-color="#393945"/>
<stop offset="0.3" stop-color="#40404B"/>
<stop offset="0.77" stop-color="#42424D"/>
</linearGradient>
<linearGradient id="paint8_linear_69_5005" x1="36.5955" y1="23.5527" x2="36.9236" y2="22.9954" gradientUnits="userSpaceOnUse">
<stop stop-color="#161616"/>
<stop offset="0.3" stop-color="#1A1A1A"/>
<stop offset="0.79" stop-color="#1E1E1E"/>
<stop offset="0.8" stop-color="#1E1E1E"/>
</linearGradient>
<linearGradient id="paint9_linear_69_5005" x1="36.5955" y1="24.0975" x2="36.9236" y2="23.5402" gradientUnits="userSpaceOnUse">
<stop stop-color="#161616"/>
<stop offset="0.3" stop-color="#1A1A1A"/>
<stop offset="0.79" stop-color="#1E1E1E"/>
<stop offset="0.8" stop-color="#1E1E1E"/>
</linearGradient>
<linearGradient id="paint10_linear_69_5005" x1="37.2264" y1="23.7274" x2="37.5545" y2="23.1701" gradientUnits="userSpaceOnUse">
<stop stop-color="#161616"/>
<stop offset="0.3" stop-color="#1A1A1A"/>
<stop offset="0.79" stop-color="#1E1E1E"/>
<stop offset="0.8" stop-color="#1E1E1E"/>
</linearGradient>
<linearGradient id="paint11_linear_69_5005" x1="36.5955" y1="24.6423" x2="36.9236" y2="24.0849" gradientUnits="userSpaceOnUse">
<stop stop-color="#161616"/>
<stop offset="0.3" stop-color="#1A1A1A"/>
<stop offset="0.79" stop-color="#1E1E1E"/>
<stop offset="0.8" stop-color="#1E1E1E"/>
</linearGradient>
<linearGradient id="paint12_linear_69_5005" x1="37.2264" y1="24.2722" x2="37.5545" y2="23.7149" gradientUnits="userSpaceOnUse">
<stop stop-color="#161616"/>
<stop offset="0.3" stop-color="#1A1A1A"/>
<stop offset="0.79" stop-color="#1E1E1E"/>
<stop offset="0.8" stop-color="#1E1E1E"/>
</linearGradient>
<linearGradient id="paint13_linear_69_5005" x1="37.8567" y1="23.9022" x2="38.1848" y2="23.3449" gradientUnits="userSpaceOnUse">
<stop stop-color="#161616"/>
<stop offset="0.3" stop-color="#1A1A1A"/>
<stop offset="0.79" stop-color="#1E1E1E"/>
<stop offset="0.8" stop-color="#1E1E1E"/>
</linearGradient>
</defs>
</svg>
