<svg width="17" height="18" viewBox="0 0 17 18" fill="none" xmlns="http://www.w3.org/2000/svg">
<g clip-path="url(#clip0_126_10635)">
<g clip-path="url(#clip1_126_10635)">
<path d="M9.1484 0.0151875C10.13 0 11.1059 0.009 12.0807 0C12.1398 1.14806 12.5527 2.3175 13.393 3.12919C14.2318 3.96112 15.418 4.34194 16.5723 4.47075V7.49081C15.4906 7.45538 14.4039 7.23037 13.4223 6.76462C12.9948 6.57113 12.5965 6.32194 12.2067 6.06713C12.2017 8.25863 12.2158 10.4473 12.1926 12.6298C12.1342 13.6783 11.7882 14.7218 11.1785 15.5858C10.1975 17.024 8.49477 17.9618 6.74596 17.991C5.67327 18.0523 4.60171 17.7598 3.68765 17.221C2.17284 16.3277 1.1069 14.6925 0.951652 12.9375C0.932096 12.5658 0.929093 12.1934 0.942652 11.8215C1.07765 10.3945 1.78359 9.02925 2.87934 8.10052C4.12134 7.01888 5.86115 6.50362 7.49015 6.8085C7.50534 7.9194 7.4609 9.02925 7.4609 10.1402C6.71671 9.89948 5.84709 9.9669 5.19684 10.4186C4.7211 10.732 4.36159 11.1931 4.17365 11.7309C4.0184 12.1112 4.06284 12.5336 4.07184 12.9375C4.25015 14.1683 5.43365 15.2027 6.69703 15.0907C7.53459 15.0817 8.33728 14.5958 8.77378 13.8842C8.915 13.635 9.07303 13.3802 9.0815 13.0871C9.15515 11.7456 9.1259 10.4096 9.1349 9.06803C9.14112 6.04463 9.1259 3.02962 9.149 0.01575L9.1484 0.0151875Z" fill="#1DC370"/>
</g>
</g>
<defs>
<clipPath id="clip0_126_10635">
<rect width="16.5" height="18" fill="white"/>
</clipPath>
<clipPath id="clip1_126_10635">
<rect width="16.5" height="18" fill="white" transform="translate(0.5)"/>
</clipPath>
</defs>
</svg>
