<svg width="18" height="15" viewBox="0 0 18 15" fill="none" xmlns="http://www.w3.org/2000/svg">
<g clip-path="url(#clip0_126_10625)">
<g clip-path="url(#clip1_126_10625)">
<path d="M17.2319 2.20269C16.6056 2.48019 15.9329 2.66769 15.2256 2.75244C15.9554 2.31578 16.5014 1.62853 16.7616 0.818939C16.076 1.22617 15.3257 1.51283 14.5431 1.66644C14.0169 1.10458 13.3199 0.73218 12.5603 0.607041C11.8008 0.481902 11.0212 0.611029 10.3426 0.974377C9.66393 1.33772 9.12423 1.91496 8.80728 2.61646C8.49032 3.31797 8.41383 4.1045 8.58963 4.85394C7.2004 4.78418 5.84136 4.4231 4.60071 3.79411C3.36006 3.16513 2.26552 2.28231 1.38814 1.20294C1.08814 1.72044 0.91564 2.32044 0.91564 2.95944C0.91531 3.53468 1.05697 4.10112 1.32805 4.60849C1.59914 5.11585 1.99126 5.54846 2.46964 5.86794C1.91485 5.85028 1.3723 5.70037 0.88714 5.43069V5.47569C0.887088 6.28249 1.16617 7.06447 1.67703 7.68897C2.1879 8.31342 2.89907 8.74189 3.68989 8.90172C3.17523 9.04099 2.63565 9.06147 2.11189 8.96172C2.33502 9.65592 2.76964 10.263 3.35492 10.6979C3.9402 11.1328 4.64683 11.3738 5.37589 11.3872C4.13827 12.3588 2.60981 12.8857 1.03639 12.8835C0.757675 12.8835 0.4792 12.8673 0.202393 12.8347C1.7995 13.8615 3.65865 14.4066 5.55739 14.4045C11.9849 14.4045 15.4986 9.08097 15.4986 4.46394C15.4986 4.31394 15.4949 4.16244 15.4881 4.01244C16.1716 3.51817 16.7615 2.90611 17.2304 2.20494L17.2319 2.20269Z" fill="#1DC370"/>
</g>
</g>
<defs>
<clipPath id="clip0_126_10625">
<rect width="18" height="15" fill="white"/>
</clipPath>
<clipPath id="clip1_126_10625">
<rect width="18" height="15" fill="white" transform="translate(-0.5)"/>
</clipPath>
</defs>
</svg>
